<?xml version="1.0" standalone="no"?> 
<!DOCTYPE svg PUBLIC "-//W3C//DTD SVG 1.1//EN" "http://www.w3.org/Graphics/SVG/1.1/DTD/svg11.dtd" >
<svg xmlns="http://www.w3.org/2000/svg">
<defs>
  <font id="icons" horiz-adv-x="612">
    <font-face font-family="icons"
      units-per-em="612" ascent="612"
      descent="0" />
    <missing-glyph horiz-adv-x="0" />
    <glyph glyph-name="external"
      unicode="&#xEA01;"
      horiz-adv-x="612" d=" M583.727458448398 605.2114486341097H404.542372881356C388.9265057643545 605.2114486341097 376.269831329754 592.5547741995093 376.269831329754 576.9389070825077S388.9265057643545 548.6663655309058 404.542372881356 548.6663655309058H515.4712603558194L244.3690008110135 277.5641059860999C233.32700263836 266.5221078134465 233.32700263836 248.6224476177767 244.3690008110135 237.5804494451232C249.8915705940931 232.0610210555493 257.1261998377974 229.2997361640096 264.3608290815019 229.2997361640096S278.8300875689106 232.0610210555494 284.3526573519902 237.5804494451232L555.454916896796 508.6827089899291V397.7506801219601C555.454916896796 382.1348130049585 568.1115913313965 369.478138570358 583.7274584483981 369.478138570358S612.0000000000001 382.1348130049585 612.0000000000001 397.7506801219601V576.9357656890021C612 592.5547741995093 599.3433255653994 605.2114486341097 583.727458448398 605.2114486341097z M468.0676323542999 369.4812799638638C452.4517652372984 369.4812799638638 439.7950908026979 356.8246055292633 439.7950908026979 341.2087384122618V63.3336344690944H56.545083103204V446.5836421685882H351.1386832838855C366.754550400887 446.5836421685882 379.4112248354875 459.2403166031887 379.4112248354875 474.8561837201902S366.754550400887 503.1287252717922 351.1386832838855 503.1287252717922H28.272541551602C12.6566744346005 503.1287252717922 0 490.4720508371917 0 474.8561837201902V35.0610929174923C0 19.4452258004908 12.6566744346005 6.7885513658903 28.272541551602 6.7885513658903H468.0676323542999C483.6834994713014 6.7885513658903 496.3401739059019 19.4452258004908 496.3401739059019 35.0610929174923V341.2087384122618C496.3401739059019 356.8246055292632 483.6834994713014 369.4812799638638 468.0676323542999 369.4812799638638z" />
    <glyph glyph-name="key"
      unicode="&#xEA02;"
      horiz-adv-x="612" d=" M610.5081358484954 271.9642175137829L564.5436989243314 342.0420040721079C562.1050529467001 345.8723738157882 556.3606362901053 348.8322049813594 551.9203205622856 348.8322049813594H266.6453974953748C248.6258179079779 403.4144048493413 197.2640417995371 442.6762637015275 136.6745567631391 442.6762637015275C61.1982930616116 442.6751257426019 0 381.4768326809903 0 306.0005689794628C0 230.525443236861 61.1982930616116 169.3248742573981 136.6745567631391 169.3248742573981C197.1764189622633 169.3248742573981 248.451710192356 208.6732179879325 266.5589126170267 263.1712088954175H369.3700876711819C373.8968882773496 263.1712088954175 380.2512509180837 260.7325629177862 383.5592975148985 257.5997619955188L439.3613893511589 205.6291778618644C442.6694359479737 202.4952389806713 448.0656371733249 202.4952389806713 451.3748217290654 205.6291778618644L490.0267345971124 241.4953672799621C493.3347811939271 244.6293061611551 498.732120378204 244.6293061611551 502.0413049339444 241.4953672799621L540.6932178019914 205.6291778618644C544.0012643988063 202.4952389806713 549.2244958674613 202.6682087373676 552.5325424642762 205.8021476185605L609.1175500413718 259.6890545829807C612.3368358419874 262.7353706269 612.9467818261265 268.2180567305994 610.5081358484954 271.9642175137829zM136.8486644787609 263.9529866773273C113.605853422709 263.9529866773273 94.802220135551 282.8453807606846 94.802220135551 306.0005689794628C94.802220135551 329.1568951571666 113.6934762599827 348.0481512815984 136.8486644787609 348.0481512815984C160.0049906564647 348.0481512815984 178.8962467808964 329.1568951571666 178.8962467808964 306.0005689794628C178.8962467808964 282.8453807606846 160.0926134937385 263.9529866773273 136.8486644787609 263.9529866773273z" />
    <glyph glyph-name="location"
      unicode="&#xEA03;"
      horiz-adv-x="612" d=" M306.4360519575644 612H305.5625112979296C199.8712752046539 612 113.8878634998814 526.0453231853471 113.8878634998814 420.3943159382389C113.8878634998814 351.1403572610767 145.4272788951153 259.7418555132723 207.6296955369363 148.7332280033712C253.7463206898252 66.4350659564328 300.5094808704043 3.4036477346624 300.9778595793531 2.777227130056C302.2795501017694 1.0287090662805 304.3312212563063 -0.0014367445059 306.5050156938513 -0.0014367445059C306.5667957076084 -0.0014367445059 306.6300124658714 -0.0014367445059 306.6917924796285 0.001436744506C308.9345506534605 0.0632167582631 311.0048994865751 1.2111756185396 312.2491202287523 3.0803802208173C312.7103152151713 3.7786380507227 359.1401506703634 73.8932066869658 404.943565520949 159.6510495042997C466.7666816131916 275.3994971394229 498.1135732446244 363.1285534189589 498.1135732446244 420.3943159382387C498.1092630111065 526.0467599298531 412.1244145618282 612 306.4360519575644 612zM394.9107786357031 415.7119655932558C394.9107786357031 366.684496071255 355.0253144052418 326.8004685852997 305.9978448832411 326.8004685852997C256.9718121057463 326.8004685852997 217.0863478752849 366.685932815761 217.0863478752849 415.7119655932558S256.9718121057463 504.6234626012118 305.9978448832411 504.6234626012118C355.0253144052418 504.6234626012118 394.9107786357031 464.7379983707505 394.9107786357031 415.7119655932558z" />
    <glyph glyph-name="clock"
      unicode="&#xEA04;"
      horiz-adv-x="612" d=" M522.37546875 522.37546875C464.5785234375 580.17121875 387.7366640625 612 306 612C224.26453125 612 147.4214765625 580.17121875 89.62453125 522.37546875C31.82878125 464.5785234375 0 387.73546875 0 306S31.82878125 147.4214765625 89.62453125 89.62453125C147.4214765625 31.82878125 224.26453125 0 306 0C387.7366640625 0 464.5785234375001 31.82878125 522.37546875 89.62453125C580.17121875 147.4214765625 612 224.26453125 612 306S580.17121875 464.5785234375 522.37546875 522.37546875zM397.4437968750001 171.7197890625L286.0442578125 298.4767031250001V488.50509375H325.9569375000001V313.5232968750001L427.427015625 198.0680625L397.4437968750001 171.7197890625z" />
    <glyph glyph-name="phone"
      unicode="&#xEA05;"
      horiz-adv-x="612.0000000000001" d=" M611.7078182893796 129.129495282872C613.0046392876048 119.1942584923872 609.9769592427688 110.5558427001276 602.637481707507 103.2142479060933L516.469284179718 17.6971074508826C512.5819970732011 13.3778995547528 507.5079864246351 9.7033969548836 501.2451349752468 6.6831273157517C494.9822835258586 3.6586231590746 488.82847090326 1.7149796058162 482.7836971074509 0.8521966559765C482.351776317838 0.8521966559765 481.0528380608401 0.7410405704143 478.8921754833889 0.5250801756079C476.735747423483 0.3101784101877 473.9282622909986 0.2000809540118 470.4728959740948 0.2000809540118C462.2642837126756 0.2000809540118 448.9816608026903 1.603823520254 430.6250272441387 4.4123672821247S389.8095712550986 14.1327023071893 363.2485599526732 25.1445651835476C336.6811968739298 36.1585453186784 306.5557804278109 52.6816327801474 272.867017467385 74.7074757916367C239.178254506959 96.7322601737396 203.3277703396955 126.9688327054207 165.3187408537535 165.410841610362C135.0842855808451 195.2133760936575 110.0328797832924 223.720148208114 90.1645234610954 250.9300993243453C70.2961671388984 278.1421676993492 54.3150979232182 303.3015536943052 42.2213158140549 326.4093159385995C30.1264750755052 349.5170781828938 21.0561384936327 370.4652364791232 15.009247439051 389.2537908272878S4.859108883146 424.239374785939 2.6995049350811 437.8448796587477S-0.3239405922097 462.1404240744777 0.1079801974032 469.9149982875113C0.5399009870162 477.6895725005448 0.7558613818227 482.0087803966746 0.7558613818227 482.8726219759006C1.6197029610487 488.9195130304823 3.5633465143071 495.0743842824672 6.5867920415979 501.3372357318554S13.2815642805991 512.675156459196 17.6007721767288 516.5624435657129L103.7689697045179 602.7306410935018C109.8158607590996 608.7775321480835 116.7265933929072 611.8009776753744 124.5011676059408 611.8009776753744C130.1161378709095 611.8009776753744 135.0832269514588 610.1812747143257 139.4024348475885 606.9418687922284S147.3929694554286 599.707195566211 150.4164149827195 594.9560668804683L219.7397017156023 463.4361864433166C223.6269888221191 456.525453809509 224.7067907961516 448.9668399912819 222.9791076376997 440.7603449886352C221.2514244792478 432.5538499859887 217.5800977675375 425.6431173521811 211.9651275025688 420.0281470872124L180.2189494660149 388.2819690506585C179.355107886789 387.4181274714325 178.5992465049662 386.0143849051904 177.9513653205468 384.070741351932S176.9795435439176 380.5073948376248 176.9795435439176 379.2116324687859C178.7072267023695 370.1412958869134 182.5945138088863 359.775196936202 188.641404863468 348.1133356166515C193.8244543388237 337.7472366659401 201.8149889466638 325.1135535697605 212.6130086869882 310.2122863281128S238.7442164585734 278.1432263287355 258.6125727807704 258.7067907961515C278.0490083133543 238.8363172151819 295.3258398978734 223.3972662452906 310.4430675343277 212.381168851387C325.5571192826229 201.3714232338013 338.1950368963478 193.2697325403991 348.3451754522528 188.0866830650433C358.4953140081577 182.9036335896876 366.2698882211913 179.7722078649935 371.6678394619672 178.69558177912L379.764237008438 177.074820188685C380.6280785876639 177.074820188685 382.034997042065 177.3998194102811 383.9765233365508 178.0466419653142C385.9201668898092 178.69558177912 387.3239094560514 179.4503845315564 388.1888096646636 180.3152847401686L425.1169785471869 217.8923934364976C432.8957872777657 224.802067440919 441.961889342093 228.2574337578228 452.3290469221907 228.2574337578228C459.673817604384 228.2574337578228 465.5015723760002 226.9627300183702 469.82078027213 224.370146651306H470.4676028271632L595.5076127907339 150.5116916274868C604.5811252607654 144.892486844973 609.9790765015413 137.7679110751315 611.7078182893796 129.129495282872z" />
    <glyph glyph-name="angle-down"
      unicode="&#xEA06;"
      horiz-adv-x="1020" d=" M1020 498.168L510 0L0 498.168L115.056 611.898L510 226.338L904.944 611.898L1020 498.168z" />
    <glyph glyph-name="angle-up"
      unicode="&#xEA07;"
      horiz-adv-x="1020" d=" M0 113.832L510 612L1020 113.832L904.944 0.1020000000001L510 385.6620000000001L115.056 0.1020000000001L0 113.832z" />
    <glyph glyph-name="menu"
      unicode="&#xEA08;"
      horiz-adv-x="612" d=" M23.0943396226415 456.1132075471698H588.9056603773585C601.6537358490566 456.1132075471698 612 466.4594716981132 612 479.2075471698113S601.6537358490566 502.3018867924528 588.9056603773585 502.3018867924528H23.0943396226415C10.3462641509434 502.3018867924528 0 491.9556226415094 0 479.2075471698113S10.3462641509434 456.1132075471698 23.0943396226415 456.1132075471698z M23.0943396226415 282.9056603773585H588.9056603773585C601.6537358490566 282.9056603773585 612 293.2519245283019 612 306S601.6537358490566 329.0943396226415 588.9056603773585 329.0943396226415H23.0943396226415C10.3462641509434 329.0943396226415 0 318.7480754716981 0 306S10.3462641509434 282.9056603773585 23.0943396226415 282.9056603773585z M23.0943396226415 109.6981132075472H588.9056603773585C601.6537358490566 109.6981132075472 612 120.0443773584906 612 132.7924528301887S601.6537358490566 155.8867924528302 588.9056603773585 155.8867924528302H23.0943396226415C10.3462641509434 155.8867924528302 0 145.5405283018868 0 132.7924528301887S10.3462641509434 109.6981132075472 23.0943396226415 109.6981132075472z" />
    <glyph glyph-name="location-empty"
      unicode="&#xEA09;"
      horiz-adv-x="612" d=" M306.111638088289 612C359.2653228748632 612 407.7720722364101 590.3003465888362 442.5473367384166 555.3018059102517C477.5458774170011 520.3032652316673 499.2455308281649 472.0197920466983 499.2455308281649 418.6428310835462C499.2455308281649 364.5960415906603 464.4702663261584 299.4831265961329 434.1326158336374 242.5477015687706C424.8247902225466 225.2717074060563 415.9635169646115 208.6515870120395 408.8884531192996 193.8176760306458L320.0663991244072 8.8612732579351C316.2986136446553 1.1024261218535 307.0047427946006 -2.2188070047426 299.2458956585188 1.5489784750092C295.9246625319227 3.0979569500182 293.482579350602 5.7633163079169 291.9336008755929 8.8612732579351L291.9336008755929 8.8612732579351L203.1115468807005 193.8176760306458C196.0225282743524 208.6515870120394 187.1612550164173 225.2717074060563 178.0767055819044 242.5477015687706C147.5157789128055 299.4691718350968 112.7405144107989 364.5960415906603 112.7405144107989 418.6428310835462C112.7405144107989 472.0197920466983 134.4401678219628 520.3172199927034 169.4387085005472 555.3018059102518C204.4512039401678 590.3003465888362 252.7346771251368 612 306.111638088289 612L306.111638088289 612zM306.111638088289 513.4375228018971C332.2489055089384 513.4375228018971 355.9440897482671 502.803994892375 372.9968077344035 485.7512769062386C390.04952572054 468.6985589201022 400.6830536300621 444.9894199197373 400.6830536300621 418.6428310835462C400.6830536300621 392.5055636628968 390.04952572054 368.810379423568 372.9968077344035 351.7437066763955C355.944089748267 334.690988690259 332.2489055089383 324.057460780737 306.111638088289 324.057460780737C279.9743706676395 324.057460780737 256.2791864283108 334.690988690259 239.0031922655965 351.7437066763955C221.9504742794601 368.796424662532 211.316946369938 392.5055636628968 211.316946369938 418.6428310835462C211.316946369938 445.0033746807735 221.9504742794601 468.6985589201022 239.0031922655965 485.7512769062387C256.2791864283108 502.803994892375 279.9743706676395 513.4375228018971 306.111638088289 513.4375228018971L306.111638088289 513.4375228018971zM350.8506019700839 463.5911163808829C339.3379241152864 475.1037942356804 323.6109084275812 482.1928128420285 306.111638088289 482.1928128420285C288.3890915724188 482.1928128420285 272.6620758847136 475.1037942356804 261.1493980299161 463.5911163808829C249.6367201751186 452.0784385260854 242.5477015687705 436.3514228383802 242.5477015687705 418.6288763225101C242.5477015687705 401.1296059832179 249.6367201751186 385.4025902955126 261.1493980299161 373.8899124407151C272.6620758847136 362.3772345859176 288.3890915724188 355.2882159795696 306.111638088289 355.2882159795696C323.6109084275812 355.2882159795696 339.3379241152864 362.3772345859176 350.8506019700839 373.8899124407151C362.3632798248815 385.4025902955126 369.4522984312295 401.1296059832179 369.4522984312295 418.6288763225101C369.4662531922656 436.3514228383802 362.3772345859176 452.0784385260854 350.8506019700839 463.5911163808829L350.8506019700839 463.5911163808829zM420.624407150675 533.141645384896C391.1659066034294 562.6001459321416 350.8506019700839 580.7692448011675 306.111638088289 580.7692448011675C261.372674206494 580.7692448011675 220.8340933965706 562.6001459321416 191.598869025903 533.141645384896C162.1403684786574 503.9064210142284 143.9712696096315 463.367840204305 143.9712696096315 418.6288763225101C143.9712696096315 372.1176577891281 176.7510032834732 310.9818496898942 205.5396753009851 257.1583363735864C214.8475009120759 239.6590660342941 223.7087741700109 222.8296242247356 231.2303903684787 207.3258847136082L306.0976833272529 51.6186610726013L380.7417001094492 207.3258847136082C388.277271068953 222.8296242247356 397.1385443268881 239.6590660342942 406.4324151769428 257.1583363735864C435.2210871944546 310.9818496898943 468.0008208682963 372.1176577891282 468.0008208682963 418.6288763225101C468.0287303903685 463.367840204305 449.8596315213426 503.9064210142284 420.624407150675 533.141645384896L420.624407150675 533.141645384896z" />
    <glyph glyph-name="phone-empty"
      unicode="&#xEA0A;"
      horiz-adv-x="612" d=" M124.7067302113551 205.1835888934936C185.0697637795275 133.026937422296 257.733667633651 76.2146705346042 340.6694322420224 36.0149191877331C372.2458930791546 21.0509738914215 414.4746539577289 3.2971404890178 461.5223124740986 0.2536261914629C464.4390136759221 0.1268130957314 467.2289017820141 0 470.1456029838375 0C501.7220638209697 0 527.0846829672606 10.9059262329051 547.7552175714877 33.3518441773726C547.8820306672192 33.4786572731041 548.1356568586821 33.732283464567 548.2624699544135 33.9859096560299C555.6176295068379 42.8628263572317 563.9872938251139 50.8520513883134 572.7373974305842 59.3485288023209C578.6976129299626 65.0551181102363 584.7846415250725 71.0153336096146 590.6180439287194 77.1023622047245C617.6292333195192 105.2548694571074 617.6292333195192 141.0161624533776 590.3644177372565 168.2809780356404L514.1497472026523 244.4956485702446C501.2148114380439 257.9378367177789 485.7436137588065 265.0393700787403 469.5115375051803 265.0393700787403C453.279461251554 265.0393700787403 437.6814504765851 257.9378367177788 424.3660754247824 244.622461665976L378.9669871529216 199.2233733941153C374.7821549937836 201.6328222130129 370.4705097389142 203.7886448404477 366.4124906755077 205.8176543721509C361.3399668462495 208.35391628678 356.6478823041857 210.7633651056776 352.4630501450477 213.4264401160382C311.1219809365935 239.6767509324493 273.5853046000829 273.916286779942 237.6971985080812 317.9204309987568C219.5629258184832 340.8736013261501 207.3888686282636 360.1491918773312 198.8923912142561 379.8052217157066C210.8128222130129 390.5843348528803 221.9723746373809 401.8707003729797 232.7514877745545 412.9034397016162C236.5558806464982 416.8346456692913 240.4870866141732 420.7658516369665 244.4182925818483 424.6970576046415C258.1141069208454 438.3928719436386 265.4692664732698 454.2445089100704 265.4692664732698 470.3497720679652S258.2409200165769 502.3066721922917 244.4182925818483 516.0024865312888L206.6279900538748 553.7927890592623C202.1895317032739 558.2312474098633 198.0046995441359 562.5428926647327 193.6930542892665 566.9813510153335C185.3233899709905 575.6046415250725 176.5732863655201 584.4815582262743 167.9499958557812 592.470783257356C154.8882469954413 605.2789059262329 139.5438624119353 612 123.3117861583091 612C107.2065230004144 612 91.735325321177 605.2789059262329 78.1663240779113 592.3439701616245L30.7382262743473 544.9158723580605C13.4916452548694 527.6692913385826 3.7270368835474 506.7451305428926 1.6980273518442 482.5238292581848C-0.7114214670535 452.2154993783672 4.8683547451305 420.0049730625777 19.3250476585164 381.0733526730212C41.5173394115209 320.8371322005803 74.9959966846249 264.9125569830088 124.7067302113551 205.1835888934936zM32.6404227103191 479.8607542478243C34.1621798590966 496.7268959801078 40.6296477414007 510.8031496062992 52.8037049316204 522.9772067965189L99.9781765437215 570.15167840862C107.3333360961459 577.2532117695814 115.449374222959 580.9307915457936 123.3117861583092 580.9307915457936C131.0473849979279 580.9307915457936 138.9097969332781 577.2532117695814 146.138143389971 569.8980522171571C154.6346208039784 562.0356402818069 162.6238458350601 553.7927890592623 171.247136344799 545.0426854537919C175.5587815996685 540.6042271031911 179.9972399502694 536.1657687525901 184.4356983008703 531.6004973062578L222.2260008288438 493.8101947782843C230.088412764194 485.9477828429341 234.1464318276005 477.9585578118525 234.1464318276005 470.0961458765023S230.088412764194 454.2445089100705 222.2260008288438 446.3820969747203C218.2947948611687 442.4508910070453 214.3635888934936 438.3928719436386 210.4323829258185 434.4616659759636C198.6387650227932 422.5412349772069 187.6060256941567 411.2548694571074 175.431968503937 400.4757563199337C175.1783423124741 400.2221301284708 175.0515292167426 400.0953170327394 174.7979030252797 399.8416908412765C164.272416079569 389.3162038955657 165.9209863240779 379.2979693327808 168.457248238707 371.6891835888935C168.5840613344385 371.3087443016991 168.7108744301699 371.0551181102362 168.8376875259014 370.6746788230419C178.6022958972234 347.2142561127228 192.1712971404891 324.8951512639868 213.349084127642 298.2644011603813C251.3930128470783 251.3435557397431 291.465951098218 214.9481972648156 335.5969084127642 186.9225031081642C341.0498715292167 183.3717364276835 346.8832739328636 180.5818483215915 352.3362370493162 177.7919602154995C357.4087608785744 175.2556983008704 362.1008454206382 172.8462494819727 366.2856775797762 170.1831744716122C366.792929962702 169.9295482801493 367.1733692498964 169.6759220886864 367.6806216328222 169.4222958972234C371.8654537919602 167.2664732697887 375.9234728553668 166.2519685039371 379.9814919187733 166.2519685039371C390.1265395772897 166.2519685039371 396.7208205553253 172.7194363862413 398.87664318276 174.875259013676L446.304740986324 222.30335681724C453.6599005387484 229.6585163696644 461.64912556983 233.5897223373394 469.5115375051802 233.5897223373394C479.1493327807707 233.5897223373394 487.0117447161209 227.6295068379611 491.9574554496476 222.30335681724L568.4257521757148 145.9618731869043C583.6433236634894 130.7443016991298 583.5165105677579 114.2585992540407 568.0453128885204 98.153336096146C562.7191628677994 92.4467467882305 557.1393866556152 86.9937836717779 551.179171156237 81.2871943638625C542.3022544550352 72.6639038541235 533.0448984666389 63.7869871529217 524.675234148363 53.7687525901368C510.0917281392457 38.0439287194365 492.7183340240364 30.6887691670121 470.2724160795689 30.6887691670121C468.1165934521342 30.6887691670121 465.833957728968 30.8155822627436 463.6781351015333 30.942395358475C422.0834397016162 33.6054703688355 383.4054455035225 49.8375466224617 354.3652465810195 63.6601740571903C275.4875010360547 101.8309158723582 206.2475507666805 155.9801077496893 148.8012184003316 224.7128056361377C101.499933692499 281.6518856195608 69.6698466639039 334.6597596353088 48.6188727724824 391.4720265230005C35.5571239121426 426.3456278491505 30.6114131786158 454.3713220058019 32.6404227103191 479.8607542478243z" />
    <glyph glyph-name="user-empty"
      unicode="&#xEA0B;"
      horiz-adv-x="612" d=" M396.6786506725836 298.3934960477049C444.2909097212592 328.5118568853141 475.989980585217 381.4974691443628 475.989980585217 442.0047150187214C475.989980585217 535.8925253085564 399.8825058937734 612 306 612C212.1068853141035 612 136.0047150187214 535.8925253085564 136.0047150187214 442.0047150187214C136.0047150187214 381.4974691443628 167.7090902787408 328.5118568853141 215.3160449313549 298.3934960477049C97.2985369574262 260.2920191374289 9.8025239217862 150.3849327416447 6.8108445430592 20.899320482596C6.5509291360422 9.6380876438774 15.4729233116073 0.297046179448 26.7288517542643 0.0212175842462C38.0961725142144 -0.4720912494801 47.347039245597 8.6832963527943 47.6069546526141 19.9392247954513C50.8161142698655 158.9462279850229 166.7224726112883 272.0147344335044 306 272.0147344335044C445.2722229926502 272.0147344335044 561.178581334073 158.9356191928998 564.3877409513244 19.944529191513C564.6476563583415 8.8477326307031 573.7340868118154 0.0265219803078 584.7884482041326 0.0265219803078H585.2658438496742C596.5217722923312 0.0265219803078 605.4437664678964 9.6274788517543 605.1838510608792 20.888711690473C602.1868672860907 150.36901955346 514.6961586465122 260.2920191374289 396.6786506725836 298.3934960477049M176.8008251282763 442.0047150187214C176.8008251282763 513.2374497295798 234.7672652891416 571.1985854943836 305.9946956039385 571.1985854943836S435.1885660796007 513.2321453335182 435.1885660796007 442.0047150187214S377.2274303147969 312.8108445430592 306 312.8108445430592S176.8008251282763 370.7719803078631 176.8008251282763 442.0047150187214" />
    <glyph glyph-name="clock-empty"
      unicode="&#xEA0C;"
      horiz-adv-x="612" d=" M305.9901477832513 0C137.2610837438424 0 0 137.2610837438423 0 306.0098522167488C0 474.7192118226601 137.2610837438424 612 305.9901477832513 612S611.9802955665025 474.7192118226601 611.9802955665025 306.0098522167488C612 137.2610837438423 474.7192118226601 0 305.9901477832513 0zM305.9901477832513 577.0246305418719C156.5517241379311 577.0246305418719 34.9753694581281 455.448275862069 34.9753694581281 306.0098522167488C34.9753694581281 156.551724137931 156.5517241379311 34.9753694581281 305.9901477832513 34.9753694581281C455.4285714285714 34.9753694581281 577.0049261083744 156.5517241379311 577.0049261083744 306.0098522167488C577.0246305418719 455.448275862069 455.448275862069 577.0246305418719 305.9901477832513 577.0246305418719z M399.8423645320198 194.679802955665C395.3497536945813 194.679802955665 390.896551724138 196.3743842364532 387.4679802955665 199.8029556650247L293.6354679802956 293.6354679802957C290.3448275862069 296.9261083743843 288.512315270936 301.3596059113301 288.512315270936 306.0098522167488V504.5320197044335C288.512315270936 514.1871921182266 296.3349753694582 522.0098522167488 306.0098522167488 522.0098522167488C315.6650246305419 522.0098522167488 323.4876847290641 514.2068965517242 323.4876847290641 504.5320197044335V313.2413793103449L412.1970443349754 224.5320197044335C419.0344827586208 217.6945812807881 419.0344827586208 206.6206896551724 412.1970443349754 199.8029556650246C408.768472906404 196.3743842364532 404.2955665024631 194.679802955665 399.8423645320198 194.679802955665z" />
    <glyph glyph-name="arrow-down"
      unicode="&#xEA0D;"
      horiz-adv-x="158.2758620689655" d=" M87.7586896551724 3.7986206896552L154.4455862068965 69.6624827586207C159.267724137931 74.4213103448276 159.267724137931 82.1451724137932 154.4455862068965 86.904C149.6234482758621 91.6733793103449 141.8046206896552 91.6733793103449 136.9824827586207 86.904L91.3779310344828 41.8586896551724L91.3779310344828 599.8022068965518C91.3779310344828 606.5342068965517 85.8488275862069 611.9894482758621 79.0324137931035 611.9894482758621C72.2054482758621 611.9894482758621 66.6868965517241 606.5342068965517 66.6868965517241 599.8022068965518L66.6868965517241 41.8586896551724L21.0823448275862 86.904C16.2602068965517 91.6733793103449 8.4413793103448 91.6733793103449 3.6192413793103 86.904C1.2028965517241 84.5193103448276 0 81.406551724138 0 78.2832413793103C0 75.1599310344827 1.2028965517241 72.0366206896551 3.6192413793103 69.6624827586207L70.2955862068966 3.7986206896552C75.117724137931 -0.9707586206896 82.9365517241379 -0.9707586206896 87.7586896551724 3.7986206896552z" />
    <glyph glyph-name="magnifier"
      unicode="&#xEA0E;"
      horiz-adv-x="612" d=" M602.82 8.5425C597.159 2.9325 589.7130000000001 0.1274999999999 582.2925 0.1274999999999C574.872 0.1274999999999 567.4515 2.9325 561.7905 8.5425L420.5205 148.563C376.38 114.6735 321.147 94.2735 261.0945000000001 94.2735C117.1215 94.2735 0 210.3495 0 353.022C0 495.7455 117.1215 611.8215 261.0945000000001 611.8215C405.0675 611.8215 522.2144999999999 495.7455 522.2144999999999 353.022C522.2144999999999 290.5470000000001 499.7235000000001 233.1720000000001 462.3915 188.3940000000001L602.82 49.215C614.1419999999999 37.995 614.1419999999999 19.788 602.82 8.5425zM261.0945000000001 554.319C149.124 554.319 58.0125 464.0235 58.0125 353.022C58.0125 242.0715 149.124 151.7760000000001 261.0945000000001 151.7760000000001C373.0905 151.7760000000001 464.1765 242.0715 464.1765 353.022C464.1765 464.0235 373.0905 554.319 261.0945000000001 554.319z" />
    <glyph glyph-name="angle-left"
      unicode="&#xEA0F;"
      horiz-adv-x="306.82945054945054" d=" M306.7846153846154 603.5261538461539L298.0193406593407 612.4035164835165L0.1120879120879 309.9903296703297L4.2369230769231 305.7534065934066L0.1120879120879 301.5837362637363L298.0193406593407 -0.9191208791209L306.7846153846154 8.0254945054945L13.5178021978022 305.7534065934066L306.7846153846154 603.5261538461539z" />
    <glyph glyph-name="angle-right"
      unicode="&#xEA10;"
      horiz-adv-x="306.67252747252746" d=" M0 603.5261538461539L8.7652747252747 612.4035164835165L306.6501098901099 309.9903296703297L302.5476923076923 305.7534065934066L306.6501098901099 301.5837362637363L8.7652747252747 -0.9191208791209L0 8.0254945054945L293.2668131868132 305.7534065934066L0 603.5261538461539z" />
    <glyph glyph-name="refresh"
      unicode="&#xEA11;"
      horiz-adv-x="612" d=" M306 94.154C232.866 94.154 168.394 131.226 130.309 187.578H75.676C118.681 104.134 205.679 47.077 306 47.077C441.063 47.077 551.977 150.505 563.864 282.462H612L541.385 376.615L470.77 282.462H516.552C504.853 176.538 415.054 94.154 306 94.154z M306 564.923C179.081 564.923 73.487 473.594 51.337 353.077H0L70.615 258.923L141.231 353.077H99.403C120.799 447.419 205.185 517.846 306 517.846C369.719 517.846 426.847 489.718 465.685 445.206L474.771 447.5360000000001H522.836C476.606 518.223 396.765 564.923 306 564.923z" />
    <glyph glyph-name="letter"
      unicode="&#xEA12;"
      horiz-adv-x="803.25" d=" M744.8805 0L58.3695 0C26.27775 0 0 26.01 0 57.8340000000001L0 484.66575C0 516.4515 21.6495 527.7735 48.08025 509.68125L352.1295 302.634C378.5985 284.6182500000001 421.9357500000001 284.54175 448.443 302.481L755.055 509.8725C781.56225 527.81175 803.25 516.4515 803.25 484.66575L803.25 57.8340000000001C803.25 26.01 776.9722499999999 0 744.8805 0zM755.4375 579.1815L448.3665 375.3472500000001C421.70625 357.6375 378.1395 357.75225 351.594 375.65325L48.99825 579.4875C22.45275 597.3885 27.0045 612 59.09625 611.96175L745.53075 611.42625C777.66075 611.42625 782.09775 596.9295 755.4375 579.1815z" />
    <glyph glyph-name="metro"
      unicode="&#xEA13;"
      horiz-adv-x="612" d=" M504.9711870918171 554.9719554360354L309.4287360737611 277.3031117940838L109.6868997310795 548.5128697656551L0 94.4045332308874L148.4348828275067 94.4045332308874L175.6296580868229 239.6392623895505L307.0122935074914 57.0280445639646L437.7091817134077 235.6358048405686L464.0026892047637 93.6012293507491L612 93.6012293507491z" />
    <glyph glyph-name="arrow-up"
      unicode="&#xEA14;"
      horiz-adv-x="327.8571428571429" d=" M181.7858571428572 604.1532857142857L319.923 467.6991428571429C329.9117142857143 457.8197142857143 329.9117142857143 441.8640000000001 319.923 431.9845714285714C309.9342857142857 422.127 293.7381428571429 422.127 283.7494285714286 431.9845714285714L189.2828571428572 525.2708571428572L189.2828571428572 25.2668571428571C189.2828571428572 11.3001428571429 177.8297142857143 0.0218571428571 163.71 0.0218571428571C149.5684285714286 0.0218571428571 138.1152857142857 11.3001428571429 138.1152857142857 25.2668571428571L138.1152857142857 525.2708571428572L43.6705714285714 431.9845714285714C33.6818571428571 422.127 17.4857142857143 422.127 7.497 431.9845714285714C2.4917142857143 436.9461428571429 0 443.3502857142858 0 449.8418571428572C0 456.3115714285714 2.4917142857143 462.7812857142857 7.497 467.6991428571429L145.6122857142857 604.1532857142857C155.601 614.0327142857143 171.7971428571429 614.0327142857143 181.7858571428572 604.1532857142857z" />
    <glyph glyph-name="check"
      unicode="&#xEA15;"
      horiz-adv-x="816" d=" M725.356 612L328.644 196.452L90.644 445.808L0 340L328.644 0L816 544L725.356 612z" />
    <glyph glyph-name="cross"
      unicode="&#xEA16;"
      horiz-adv-x="612" d=" M611.4645 68.391L543.609 0.5355L306 238.10625L68.42925 0.5355L0.5355 68.391L238.10625 306L0.5355 543.57075L68.42925 611.4645L306 373.8555L543.609 611.4645L611.4645 543.57075L373.89375 306L611.4645 68.391z" />
    <glyph glyph-name="letter-empty"
      unicode="&#xEA17;"
      horiz-adv-x="890.1818181818181" d=" M0 0L0 612L890.1818181818181 612L890.1818181818181 0L0 0zM55.6363636363636 55.6363636363636L834.5454545454545 55.6363636363636L834.5454545454545 522.2029090909091L461.2810909090909 255.5378181818182L445.0909090909091 278.1818181818182L428.9007272727273 255.5378181818182L55.6363636363636 522.2029090909091L55.6363636363636 55.6363636363636zM55.6363636363636 556.3636363636364L55.6363636363636 556.3636363636364L55.6363636363636 556.3636363636364L55.6363636363636 556.3636363636364zM445.0909090909091 312.3425454545455L786.7538181818181 556.3636363636364L103.428 556.3636363636364L445.0909090909091 312.3425454545455zM834.5454545454545 556.3636363636364L834.5454545454545 556.3636363636364L834.5454545454545 556.3636363636364L834.5454545454545 556.3636363636364z" />
    <glyph glyph-name="lock-empty"
      unicode="&#xEA18;"
      horiz-adv-x="450.9473684210526" d=" M353.3494736842105 0.0322105263158L97.5978947368421 0.0322105263158C43.8063157894737 0.0322105263158 0 44.5149473684211 0 99.144L0 312.1844210526316C0 330.5122105263158 14.5913684210526 345.2968421052632 32.5648421052632 345.2968421052632L375.8002105263158 345.2968421052632L375.8002105263158 425.0501052631579C375.8002105263158 509.3128421052631 308.286947368421 577.7924210526315 225.4092631578948 577.7924210526315C142.4027368421053 577.7924210526315 75.0183157894737 509.2162105263158 75.0183157894737 425.0501052631579C75.0183157894737 415.5157894736842 67.5132631578947 407.9141052631579 58.1722105263158 407.9141052631579C48.798947368421 407.9141052631579 41.3261052631579 415.5157894736842 41.3261052631579 425.0501052631579C41.3261052631579 528.2526315789473 123.9461052631579 612.0322105263158 225.4092631578948 612.0322105263158C327.0012631578947 612.0322105263158 409.5246315789474 528.1237894736842 409.5246315789474 425.0501052631579L409.5246315789474 345.2968421052632L418.3825263157895 345.2968421052632C436.356 345.2968421052632 450.9473684210526 330.5122105263158 450.9473684210526 312.1844210526316L450.9473684210526 99.144C450.9473684210526 44.5149473684211 407.141052631579 0.0322105263158 353.3494736842105 0.0322105263158zM417.2551578947369 311.0892631578947L33.821052631579 311.0892631578947L33.821052631579 99.144C33.821052631579 63.2936842105263 62.5206315789474 34.2397894736841 97.7267368421053 34.2397894736841L353.3494736842105 34.2397894736841C388.6522105263158 34.2397894736841 417.2551578947369 63.4225263157896 417.2551578947369 99.144L417.2551578947369 311.0892631578947zM225.5381052631579 106.1336842105263C190.7185263157895 106.1336842105263 162.5021052631579 134.8976842105263 162.5021052631579 170.1037894736842C162.5021052631579 205.3743157894737 190.7185263157895 234.106105263158 225.5381052631579 234.106105263158C260.2288421052632 234.106105263158 288.5741052631579 205.5031578947369 288.5741052631579 170.1037894736842C288.5741052631579 134.8976842105263 260.3576842105263 106.1336842105263 225.5381052631579 106.1336842105263zM225.5381052631579 200.0595789473684C209.304 200.0595789473684 196.1943157894737 186.4667368421053 196.1943157894737 170.1037894736842C196.1943157894737 153.7730526315789 209.304 140.3412631578947 225.5381052631579 140.3412631578947C241.7722105263158 140.3412631578947 254.8818947368421 153.9341052631579 254.8818947368421 170.2326315789474C254.8818947368421 186.6277894736842 241.7722105263158 200.0595789473684 225.5381052631579 200.0595789473684z" />
    <glyph glyph-name="rouble"
      unicode="&#xEA19;"
      horiz-adv-x="376.61538461538464" d=" M206.6676923076923 274.788C300.3978461538462 274.788 376.6153846153847 350.4406153846154 376.6153846153847 443.4175384615385C376.6153846153847 536.3944615384615 300.3978461538462 612 206.6676923076923 612L42.5104615384615 612L42.5104615384615 219.1901538461539L0 219.1901538461539L0 177.432923076923L42.5104615384615 177.432923076923L42.5104615384615 0L86.5273846153846 0L86.5273846153846 177.432923076923L235.9966153846154 177.432923076923L235.9966153846154 219.1901538461539L86.5273846153846 219.1901538461539L86.5273846153846 274.788L206.6676923076923 274.788L206.6676923076923 274.788zM86.5273846153846 570.2898461538462L206.6676923076923 570.2898461538462C276.1061538461539 570.2898461538462 332.6455384615385 513.3738461538461 332.6455384615385 443.4175384615385C332.6455384615385 373.4612307692307 276.1061538461539 316.5452307692308 206.6676923076923 316.5452307692308L86.5273846153846 316.5452307692308L86.5273846153846 570.2898461538462L86.5273846153846 570.2898461538462z" />
    <glyph glyph-name="arrow-right"
      unicode="&#xEA1A;"
      horiz-adv-x="612" d=" M603.6656796809904 326.1221134388763L421.5445036305202 508.2432894893465C410.4328353767409 519.3549577431259 392.4119450065469 519.3549577431259 381.3002767527676 508.2432894893465C370.1863319842876 497.1293447208666 370.1863319842876 479.1130073800738 381.3002767527676 467.9990626115938L514.8429056064755 334.456433757886H28.456433757886C12.741652779431 334.456433757886 0 321.714780978455 0 306C0 290.2874955362457 12.741652779431 277.5435662421141 28.456433757886 277.5435662421141H514.8429056064755L381.3048297821689 144.0009373884061C370.1908850136889 132.8869926199262 370.1908850136889 114.8706552791334 381.3048297821689 103.7567105106535C386.8595256517082 98.2042911558148 394.144372693727 95.4223901916438 401.4269432210452 95.4223901916438S415.9920842756815 98.2042911558148 421.5490566599215 103.7567105106535L603.6656796809904 285.8778865611237C614.7796244494704 296.9918313296036 614.7796244494704 315.0081686703964 603.6656796809904 326.1221134388763z" />
    <glyph glyph-name="search"
      unicode="&#xEA1B;"
      horiz-adv-x="611.1257142857143" d=" M605.5885714285714 31.2120000000001L457.1057142857143 179.928C496.9148571428571 225.7988571428571 521.0451428571429 285.6582857142857 521.0451428571429 351.0548571428572C521.0451428571429 495.0205714285714 404.124 612 260.508 612C116.7754285714286 612 0 494.904 0 351.0548571428572C0 207.2057142857143 116.9211428571429 90.1097142857143 260.508 90.1097142857143C325.8171428571429 90.1097142857143 385.56 114.2691428571429 431.3434285714286 154.1365714285714L579.8262857142857 5.4205714285714C583.3525714285714 1.8942857142857 588.1028571428571 0 592.7074285714286 0C597.3119999999999 0 602.0622857142856 1.7777142857143 605.5885714285714 5.4205714285714C612.612 12.4731428571429 612.612 24.1594285714286 605.5885714285714 31.2120000000001zM36.4285714285714 351.0548571428572C36.4285714285714 474.7954285714286 136.9714285714286 575.3674285714286 260.3914285714286 575.3674285714286C383.928 575.3674285714286 484.3251428571429 474.6788571428572 484.3251428571429 351.0548571428572C484.3251428571429 227.4308571428572 383.928 126.5965714285715 260.3914285714286 126.5965714285715C136.9714285714286 126.5965714285715 36.4285714285714 227.2851428571429 36.4285714285714 351.0548571428572z" />
  </font>
</defs>
</svg>
