<svg xmlns="http://www.w3.org/2000/svg" xmlns:xlink="http://www.w3.org/1999/xlink" preserveAspectRatio="xMidYMid" width="39.438" height="156.06" viewBox="0 0 39.438 156.06">
  <defs>
    <style>
      .cls-1 {
        fill: #fff;
        filter: url(#color-overlay-1);
        fill-rule: evenodd;
      }
    </style>

    <filter id="color-overlay-1" filterUnits="userSpaceOnUse">
      <feFlood flood-color="#d0b991"/>
      <feComposite operator="in" in2="SourceGraphic"/>
      <feBlend in2="SourceGraphic" result="solidFill"/>
    </filter>
  </defs>
  <path d="M22.326,26.273 C22.326,20.035 23.465,15.833 25.746,13.673 C28.024,11.513 32.586,10.374 39.426,10.253 L39.426,-0.007 L35.286,-0.007 C26.404,-0.007 20.014,1.914 16.116,5.753 C12.215,9.595 10.266,15.895 10.266,24.653 L10.266,56.693 C10.266,65.693 6.846,71.093 0.006,72.893 L0.006,82.433 C3.845,83.513 6.514,85.313 8.016,87.833 C9.515,90.353 10.266,94.254 10.266,99.533 L10.266,129.413 C10.266,139.012 12.156,145.852 15.936,149.933 C19.716,154.011 26.165,156.053 35.286,156.053 C36.605,156.053 37.986,155.991 39.426,155.873 L39.426,145.793 C32.465,145.672 27.875,144.533 25.656,142.373 C23.434,140.213 22.326,135.772 22.326,129.053 L22.326,99.173 C22.326,93.534 21.516,89.155 19.896,86.033 C18.276,82.914 15.365,80.273 11.166,78.113 C15.365,75.953 18.276,73.405 19.896,70.463 C21.516,67.524 22.326,63.173 22.326,57.413 L22.326,26.273 Z" class="cls-1"/>
</svg>
