<svg xmlns="http://www.w3.org/2000/svg" xmlns:xlink="http://www.w3.org/1999/xlink" preserveAspectRatio="xMidYMid" width="39.44" height="156.06" viewBox="0 0 39.44 156.06">
  <defs>
    <style>
      .cls-1 {
        fill: #fff;
        filter: url(#color-overlay-1);
        fill-rule: evenodd;
      }
    </style>

    <filter id="color-overlay-1" filterUnits="userSpaceOnUse">
      <feFlood flood-color="#d0b991"/>
      <feComposite operator="in" in2="SourceGraphic"/>
      <feBlend in2="SourceGraphic" result="solidFill"/>
    </filter>
  </defs>
  <path d="M17.112,26.273 C17.112,20.035 15.973,15.833 13.692,13.673 C11.414,11.513 6.852,10.374 0.012,10.253 L0.012,-0.007 L4.152,-0.007 C13.034,-0.007 19.424,1.914 23.322,5.753 C27.223,9.595 29.172,15.895 29.172,24.653 L29.172,56.693 C29.172,65.693 32.592,71.093 39.432,72.893 L39.432,82.433 C35.593,83.513 32.924,85.313 31.422,87.833 C29.923,90.353 29.172,94.254 29.172,99.533 L29.172,129.413 C29.172,139.012 27.282,145.852 23.502,149.933 C19.722,154.011 13.273,156.053 4.152,156.053 C2.833,156.053 1.452,155.991 0.012,155.873 L0.012,145.793 C6.973,145.672 11.563,144.533 13.782,142.373 C16.004,140.213 17.112,135.772 17.112,129.053 L17.112,99.173 C17.112,93.534 17.922,89.155 19.542,86.033 C21.162,82.914 24.073,80.273 28.272,78.113 C24.073,75.953 21.162,73.405 19.542,70.463 C17.922,67.524 17.112,63.173 17.112,57.413 L17.112,26.273 Z" class="cls-1"/>
</svg>
