<?xml version="1.0" encoding="utf-8"?>
<!-- Generator: Adobe Illustrator 24.1.1, SVG Export Plug-In . SVG Version: 6.00 Build 0)  -->
<svg version="1.1" id="Layer_1" xmlns="http://www.w3.org/2000/svg" xmlns:xlink="http://www.w3.org/1999/xlink" x="0px" y="0px"
	 viewBox="0 0 1005 204.2" style="enable-background:new 0 0 1005 204.2;" xml:space="preserve">
<style type="text/css">
	.st0{fill:#504B47;}
	.st1{fill:#CFB890;}
	.st2{fill:#383838;}
	.st3{fill:#7A2810;}
	.st4{enable-background:new    ;}
	.st5{fill:#3D2800;}
</style>
<g id="XMLID_129_">
	<g id="XMLID_253_">
		<g id="XMLID_256_">
			<rect y="122" class="st0" width="60" height="60"/>
		</g>
		<g id="XMLID_254_">
			<path id="XMLID_251_" class="st1" d="M31.7,139.3h3.6c0,6.1,0,12.1,0,18.2h2.1v3h-2.1v6.8h-4v-6.8h-9.5v-2.9L31.7,139.3z
				 M25,157.5h6.3v-11.9L25,157.5z"/>
		</g>
	</g>
	<g id="XMLID_245_">
		<g id="XMLID_248_">
			<rect class="st0" width="60" height="60"/>
		</g>
		<g id="XMLID_246_">
			<path id="XMLID_243_" class="st1" d="M28.1,19.7l-2.4-0.8v-1.7c2.4,0,4,0,6.4,0c0,8.5,0,17,0,25.4l1.8,1.2v1.3
				c-2.3,0-5.3,0-7.6,0v-1.3l1.8-1.2C28.1,35,28.1,27.4,28.1,19.7z"/>
		</g>
	</g>
	<g id="XMLID_241_">
		<g id="XMLID_244_">
			<rect x="512" class="st0" width="60" height="60"/>
		</g>
		<g id="XMLID_242_">
			<path id="XMLID_257_" class="st1" d="M545.8,42.5l1.3-3.9h1.8v6.6c-4.6,0-9.3,0-13.9,0v-1.5c-0.2-9.5,9.1-13.4,9.2-20.9
				c0-2-0.8-3.5-2.5-3.5c-2.5,0-2.4,3.3-2.4,5.1h-4c0-4.6,1.4-7.8,6.4-7.8c4.2,0,6.9,1.9,6.9,6.1c0,7.4-8.9,11.3-9.1,19.7
				L545.8,42.5L545.8,42.5z"/>
		</g>
	</g>
	<g id="XMLID_237_">
		<g id="XMLID_240_">
			<rect x="512" y="122" class="st0" width="60" height="60"/>
		</g>
		<g id="XMLID_238_">
			<path id="XMLID_674_" class="st1" d="M544.1,142h-5.6l-1.3,3.8h-1.8v-6.5c4.5,0,8.9,0,13.4,0v1.4l-4,10.2
				c2.7,0.4,4.2,2.9,4.2,5.5v4.7c0,4.6-2.6,6.7-7.2,6.7s-7-2.1-7-6.7v-1.8h4v1.8c0,2.1,0.3,4.1,2.9,4.1c2.2,0,3-2,3-4.1v-4.7
				c0-2-0.8-4-3.1-4c-0.5,0-0.9,0-1.4,0l-0.2-0.7L544.1,142z"/>
		</g>
	</g>
	<g id="XMLID_212_">
		<g id="XMLID_215_">
			<path class="st2" d="M481,32h-4c-0.6,0-1-0.4-1-1s0.4-1,1-1h4c0.6,0,1,0.4,1,1S481.5,32,481,32z M472,32h-6c-0.6,0-1-0.4-1-1
				s0.4-1,1-1h6c0.6,0,1,0.4,1,1S472.6,32,472,32z M461,32h-6c-0.6,0-1-0.4-1-1s0.4-1,1-1h6c0.6,0,1,0.4,1,1S461.6,32,461,32z
				 M450,32h-6c-0.6,0-1-0.4-1-1s0.4-1,1-1h6c0.6,0,1,0.4,1,1S450.5,32,450,32z M439,32h-6c-0.6,0-1-0.4-1-1s0.4-1,1-1h6
				c0.6,0,1,0.4,1,1S439.5,32,439,32z M428,32h-6c-0.6,0-1-0.4-1-1s0.4-1,1-1h6c0.6,0,1,0.4,1,1S428.5,32,428,32z M417,32h-6
				c-0.6,0-1-0.4-1-1s0.4-1,1-1h6c0.6,0,1,0.4,1,1S417.5,32,417,32z M406,32h-6c-0.6,0-1-0.4-1-1s0.4-1,1-1h6c0.6,0,1,0.4,1,1
				S406.5,32,406,32z M395,32h-6c-0.6,0-1-0.4-1-1s0.4-1,1-1h6c0.6,0,1,0.4,1,1S395.5,32,395,32z M384,32h-6c-0.6,0-1-0.4-1-1
				s0.4-1,1-1h6c0.6,0,1,0.4,1,1S384.5,32,384,32z M373,32h-6c-0.6,0-1-0.4-1-1s0.4-1,1-1h6c0.6,0,1,0.4,1,1S373.5,32,373,32z
				 M362,32h-6c-0.6,0-1-0.4-1-1s0.4-1,1-1h6c0.6,0,1,0.4,1,1S362.5,32,362,32z"/>
		</g>
		<g id="XMLID_213_">
			<path class="st3" d="M487.6,23c0.4,0,0.7,0.1,1,0.4l7.7,7.6l-7.7,7.6c-0.5,0.5-1.4,0.5-2,0c-0.5-0.5-0.5-1.4,0-1.9l5.7-5.7
				l-5.7-5.7c-0.5-0.5-0.5-1.4,0-1.9C486.9,23.1,487.3,23,487.6,23z"/>
		</g>
	</g>
	<g id="XMLID_196_">
		<g id="XMLID_199_">
			<path class="st2" d="M368.3,155c0-0.6,0.4-1,1-1h4c0.6,0,1,0.4,1,1s-0.4,1-1,1h-4C368.7,156,368.3,155.6,368.3,155z M377.2,155
				c0-0.6,0.4-1,1-1h6c0.6,0,1,0.4,1,1s-0.4,1-1,1h-6C377.7,156,377.2,155.6,377.2,155z M388.2,155c0-0.6,0.4-1,1-1h6
				c0.6,0,1,0.4,1,1s-0.4,1-1,1h-6C388.7,156,388.2,155.6,388.2,155z M399.2,155c0-0.6,0.4-1,1-1h6c0.6,0,1,0.4,1,1s-0.4,1-1,1h-6
				C399.7,156,399.2,155.6,399.2,155z M410.2,155c0-0.6,0.4-1,1-1h6c0.6,0,1,0.4,1,1s-0.4,1-1,1h-6C410.7,156,410.2,155.6,410.2,155
				z M421.3,155c0-0.6,0.4-1,1-1h6c0.6,0,1,0.4,1,1s-0.4,1-1,1h-6C421.7,156,421.3,155.6,421.3,155z M432.3,155c0-0.6,0.4-1,1-1h6
				c0.6,0,1,0.4,1,1s-0.4,1-1,1h-6C432.7,156,432.3,155.6,432.3,155z M443.3,155c0-0.6,0.4-1,1-1h6c0.6,0,1,0.4,1,1s-0.4,1-1,1h-6
				C443.7,156,443.3,155.6,443.3,155z M454.3,155c0-0.6,0.4-1,1-1h6c0.6,0,1,0.4,1,1s-0.4,1-1,1h-6C454.7,156,454.3,155.6,454.3,155
				z M465.3,155c0-0.6,0.4-1,1-1h6c0.6,0,1,0.4,1,1s-0.4,1-1,1h-6C465.7,156,465.3,155.6,465.3,155z M476.3,155c0-0.6,0.4-1,1-1h6
				c0.6,0,1,0.4,1,1s-0.4,1-1,1h-6C476.7,156,476.3,155.6,476.3,155z M487.3,155c0-0.6,0.4-1,1-1h6c0.6,0,1,0.4,1,1s-0.4,1-1,1h-6
				C487.7,156,487.3,155.6,487.3,155z"/>
		</g>
		<g id="XMLID_197_">
			<path class="st3" d="M363.6,147.4c0.5,0.5,0.5,1.4,0,1.9l-5.7,5.7l5.7,5.7c0.5,0.5,0.5,1.4,0,1.9s-1.4,0.5-2,0l-7.7-7.6l7.7-7.6
				c0.3-0.3,0.6-0.4,1-0.4S363.3,147.2,363.6,147.4z"/>
		</g>
	</g>
	<g id="XMLID_163_">
		<g id="XMLID_166_">
			<path class="st2" d="M896.9,155.1h6c0.6,0,1-0.4,1-1s-0.4-1-1-1h-6c-0.6,0-1,0.4-1,1C895.9,154.6,896.4,155.1,896.9,155.1z
				 M907.9,155.1h6c0.6,0,1-0.4,1-1s-0.4-1-1-1h-6c-0.6,0-1,0.4-1,1C906.9,154.6,907.4,155.1,907.9,155.1z M918.9,155.1h6
				c0.6,0,1-0.4,1-1s-0.4-1-1-1h-6c-0.6,0-1,0.4-1,1C917.9,154.6,918.4,155.1,918.9,155.1z M929.9,155.1h6c0.6,0,1-0.4,1-1
				s-0.4-1-1-1h-6c-0.6,0-1,0.4-1,1C928.9,154.6,929.3,155.1,929.9,155.1z M940.9,155.1h6c0.6,0,1-0.4,1-1s-0.4-1-1-1h-6
				c-0.6,0-1,0.4-1,1C939.9,154.6,940.3,155.1,940.9,155.1z M951.9,155.1h6c0.6,0,1-0.4,1-1s-0.4-1-1-1h-6c-0.6,0-1,0.4-1,1
				C950.9,154.6,951.3,155.1,951.9,155.1z M962.9,155.1h6c0.6,0,1-0.4,1-1s-0.4-1-1-1h-6c-0.6,0-1,0.4-1,1
				C961.9,154.6,962.3,155.1,962.9,155.1z M973.8,155.1h3.1c1,0,2-0.1,2.9-0.2c0.5-0.1,0.9-0.5,0.9-1.1c-0.1-0.5-0.6-0.9-1.1-0.9
				c-0.9,0.1-1.8,0.1-2.7,0.1h-3.1c-0.6,0-1,0.4-1,1C972.8,154.6,973.3,155.1,973.8,155.1z M984.7,153.9c0.1,0,0.2,0,0.3,0
				c2-0.6,3.9-1.4,5.7-2.4c0.5-0.3,0.7-0.9,0.4-1.4s-0.9-0.6-1.4-0.4c-1.7,0.9-3.5,1.7-5.3,2.3c-0.5,0.2-0.8,0.7-0.7,1.2
				C983.9,153.7,984.3,153.9,984.7,153.9z M994.3,148.8c0.2,0,0.5-0.1,0.6-0.2c1.6-1.3,3-2.8,4.3-4.5c0.3-0.4,0.2-1.1-0.2-1.4
				s-1.1-0.2-1.4,0.2c-1.2,1.5-2.5,2.9-4,4.2c-0.4,0.4-0.5,1-0.1,1.4C993.7,148.6,994,148.8,994.3,148.8z M1001.1,140.2
				c0.4,0,0.7-0.2,0.9-0.6c0.9-1.9,1.7-3.8,2.2-5.8c0.1-0.5-0.2-1.1-0.7-1.2s-1.1,0.2-1.2,0.7c-0.5,1.9-1.1,3.7-2,5.4
				c-0.2,0.5-0.1,1.1,0.4,1.3C1000.8,140.2,1000.9,140.2,1001.1,140.2z M1003.9,129.7c0.5,0,1-0.4,1-0.9s0-1.1,0-1.6v-4.4
				c0-0.6-0.4-1-1-1s-1,0.4-1,1v4.4c0,0.5,0,1,0,1.5S1003.3,129.6,1003.9,129.7L1003.9,129.7z M1004,118.7c0.6,0,1-0.4,1-1v-6
				c0-0.6-0.4-1-1-1s-1,0.4-1,1v6C1003,118.2,1003.4,118.7,1004,118.7z M1004,107.7c0.6,0,1-0.4,1-1v-6c0-0.6-0.4-1-1-1s-1,0.4-1,1
				v6C1003,107.3,1003.4,107.7,1004,107.7z M1004,96.7c0.6,0,1-0.4,1-1v-6c0-0.6-0.4-1-1-1s-1,0.4-1,1v6
				C1003,96.3,1003.4,96.7,1004,96.7z M1004,85.7c0.6,0,1-0.4,1-1v-6c0-0.6-0.4-1-1-1s-1,0.4-1,1v6C1003,85.3,1003.4,85.7,1004,85.7
				z M1004,74.7c0.6,0,1-0.4,1-1v-6c0-0.5-0.4-1-1-1s-1,0.4-1,1v6C1003,74.3,1003.4,74.7,1004,74.7z M1004,63.7c0.6,0,1-0.4,1-1v-6
				c0-0.6-0.4-1-1-1s-1,0.5-1,1v6C1003,63.3,1003.4,63.7,1004,63.7z M1003.4,52.8c0.1,0,0.1,0,0.2,0c0.5-0.1,0.9-0.6,0.8-1.2
				c-0.4-2-1-4-1.9-5.9c-0.2-0.5-0.8-0.7-1.3-0.5s-0.7,0.8-0.5,1.3c0.8,1.8,1.4,3.6,1.7,5.5C1002.6,52.5,1003,52.8,1003.4,52.8z
				 M999.2,42.7c0.2,0,0.4-0.1,0.6-0.2c0.5-0.3,0.6-0.9,0.3-1.4c-1.2-1.7-2.5-3.3-4.1-4.7c-0.4-0.4-1-0.3-1.4,0.1s-0.3,1,0.1,1.4
				c1.4,1.3,2.7,2.8,3.8,4.4C998.6,42.6,998.9,42.7,999.2,42.7z M991.3,35.2c0.3,0,0.7-0.2,0.8-0.5c0.3-0.5,0.2-1.1-0.3-1.4
				c-1.8-1.1-3.6-2-5.6-2.7c-0.5-0.2-1.1,0.1-1.3,0.6s0.1,1.1,0.6,1.3c1.8,0.6,3.6,1.5,5.2,2.5C991,35.1,991.1,35.2,991.3,35.2z
				 M981.1,31.4c0.5,0,0.9-0.4,1-0.8c0.1-0.5-0.3-1.1-0.8-1.1c-1.4-0.2-2.8-0.3-4.3-0.3l0,0h-1.9c-0.6,0-1,0.4-1,1c0,0.5,0.4,1,1,1
				h1.9l0,0c1.3,0,2.7,0.1,4,0.3C981,31.4,981.1,31.4,981.1,31.4z M898.2,31.1h6c0.6,0,1-0.4,1-1s-0.4-1-1-1h-6c-0.6,0-1,0.4-1,1
				C897.2,30.6,897.7,31.1,898.2,31.1z M909.2,31.1h6c0.6,0,1-0.4,1-1s-0.4-1-1-1h-6c-0.6,0-1,0.4-1,1
				C908.2,30.6,908.7,31.1,909.2,31.1z M920.2,31.1h6c0.6,0,1-0.4,1-1s-0.4-1-1-1h-6c-0.6,0-1,0.4-1,1
				C919.2,30.6,919.7,31.1,920.2,31.1z M931.2,31.1h6c0.6,0,1-0.4,1-1s-0.4-1-1-1h-6c-0.6,0-1,0.4-1,1
				C930.2,30.6,930.6,31.1,931.2,31.1z M942.2,31.1h6c0.6,0,1-0.4,1-1s-0.4-1-1-1h-6c-0.6,0-1,0.4-1,1
				C941.2,30.6,941.6,31.1,942.2,31.1z M953.2,31.1h6c0.6,0,1-0.4,1-1s-0.4-1-1-1h-6c-0.6,0-1,0.4-1,1
				C952.2,30.6,952.6,31.1,953.2,31.1z M964.2,31.1h6c0.6,0,1-0.4,1-1s-0.4-1-1-1h-6c-0.6,0-1,0.4-1,1
				C963.2,30.6,963.6,31.1,964.2,31.1z"/>
		</g>
		<g id="XMLID_164_">
			<path class="st3" d="M888,144.9c-0.4,0-0.7,0.1-1,0.4l-7.7,7.6l7.7,7.6c0.5,0.5,1.4,0.5,2,0c0.5-0.5,0.5-1.4,0-1.9l-5.7-5.7
				l5.7-5.7c0.5-0.5,0.5-1.4,0-1.9C888.7,145.1,888.3,144.9,888,144.9z"/>
		</g>
	</g>
</g>
<g class="st4">
	<path class="st5" d="M83.6,26.2c-1.8,0-3.3-0.6-4.5-1.9c-1.2-1.3-1.8-2.8-1.8-4.6c0-1.8,0.6-3.4,1.8-4.6c1.2-1.3,2.7-1.9,4.6-1.9
		c1.1,0,2,0.2,2.7,0.5s1.5,0.8,2.2,1.5l-0.9,1c-1.2-1.2-2.5-1.7-4-1.7c-1.4,0-2.6,0.5-3.5,1.5c-0.9,1-1.4,2.2-1.4,3.7
		c0,1.5,0.5,2.7,1.4,3.7s2.1,1.5,3.5,1.5c0.8,0,1.5-0.2,2.2-0.5s1.3-0.8,1.9-1.4l0.9,1c-0.7,0.7-1.5,1.2-2.2,1.6
		C85.6,26,84.7,26.2,83.6,26.2z"/>
	<path class="st5" d="M90.9,26v-9.3h1.4v5.4l5.1-5.4h1.7l-3.9,4l4,5.3h-1.6l-3.3-4.3l-2,2V26H90.9z"/>
	<path class="st5" d="M103.9,26.2c-0.9,0-1.8-0.3-2.4-0.8c-0.7-0.5-1-1.2-1-2.2c0-1,0.4-1.7,1.1-2.3c0.7-0.5,1.7-0.8,2.9-0.8
		c1,0,1.9,0.1,2.8,0.4v-0.3c0-0.8-0.2-1.4-0.7-1.9c-0.5-0.4-1.2-0.6-2-0.6c-0.9,0-1.9,0.2-2.8,0.7l-0.4-1.1c1.2-0.5,2.3-0.8,3.4-0.8
		c1.3,0,2.3,0.3,3,1c0.6,0.6,1,1.6,1,2.7V26h-1.4v-1.4C106.4,25.7,105.3,26.2,103.9,26.2z M104.1,25.1c0.9,0,1.6-0.2,2.2-0.7
		c0.6-0.5,0.9-1.1,0.9-1.8v-0.9c-0.9-0.3-1.8-0.4-2.7-0.4c-0.9,0-1.5,0.2-2,0.5c-0.5,0.3-0.7,0.8-0.7,1.4c0,0.6,0.2,1,0.7,1.4
		C102.9,24.9,103.5,25.1,104.1,25.1z"/>
	<path class="st5" d="M117.4,26v-3.8c-0.4,0.2-0.9,0.4-1.5,0.6c-0.6,0.2-1.2,0.3-1.7,0.3c-0.9,0-1.7-0.2-2.2-0.7
		c-0.6-0.5-0.8-1.2-0.8-2.1v-3.5h1.4V20c0,0.6,0.2,1,0.5,1.3c0.3,0.3,0.8,0.5,1.4,0.5c1.1,0,2.1-0.3,2.9-0.9v-4.2h1.4V26H117.4z"/>
	<path class="st5" d="M124.7,26.2c-0.9,0-1.8-0.3-2.4-0.8c-0.7-0.5-1-1.2-1-2.2c0-1,0.4-1.7,1.1-2.3c0.7-0.5,1.7-0.8,2.9-0.8
		c1,0,1.9,0.1,2.8,0.4v-0.3c0-0.8-0.2-1.4-0.7-1.9c-0.5-0.4-1.2-0.6-2-0.6c-0.9,0-1.9,0.2-2.8,0.7l-0.4-1.1c1.2-0.5,2.3-0.8,3.4-0.8
		c1.3,0,2.3,0.3,3,1c0.6,0.6,1,1.6,1,2.7V26H128v-1.4C127.2,25.7,126.1,26.2,124.7,26.2z M125,25.1c0.9,0,1.6-0.2,2.2-0.7
		c0.6-0.5,0.9-1.1,0.9-1.8v-0.9c-0.9-0.3-1.8-0.4-2.7-0.4c-0.9,0-1.5,0.2-2,0.5c-0.5,0.3-0.7,0.8-0.7,1.4c0,0.6,0.2,1,0.7,1.4
		C123.7,24.9,124.3,25.1,125,25.1z"/>
	<path class="st5" d="M134.6,26v-8.1h-3.3v-1.2h8.1v1.2H136V26H134.6z"/>
	<path class="st5" d="M141.3,26v-9.3h1.4v3.5h2.5c1.1,0,2,0.2,2.6,0.7s1,1.2,1,2.1c0,0.9-0.3,1.7-1,2.2c-0.6,0.5-1.5,0.8-2.6,0.8
		H141.3z M142.7,24.8h2.5c0.7,0,1.3-0.2,1.6-0.5c0.4-0.3,0.6-0.7,0.6-1.3c0-0.5-0.2-0.9-0.6-1.2c-0.4-0.3-1-0.4-1.7-0.4h-2.5V24.8z"
		/>
	<path class="st5" d="M162,28.9v-3.6c-0.7,0.6-1.5,1-2.3,1c-1.1,0-2-0.4-2.7-1.3c-0.7-0.9-1-2.1-1-3.6c0-1.5,0.3-2.7,1-3.5
		s1.6-1.3,2.7-1.3c0.8,0,1.6,0.3,2.3,1v-4.1h1.4v4.1c0.7-0.7,1.5-1,2.3-1c1.1,0,2.1,0.4,2.8,1.3c0.7,0.9,1,2.1,1,3.6
		c0,1.5-0.4,2.7-1.1,3.5c-0.7,0.9-1.6,1.3-2.7,1.3c-0.5,0-0.9-0.1-1.3-0.2s-0.7-0.4-1.1-0.7v3.6H162z M160,25c0.8,0,1.5-0.3,2-0.9
		v-5.4c-0.6-0.6-1.3-0.9-2-0.9c-0.9,0-1.5,0.3-2,1s-0.7,1.5-0.7,2.7C157.4,23.8,158.2,25,160,25z M165.5,25c1.8,0,2.6-1.2,2.6-3.6
		c0-1.1-0.2-2-0.7-2.7s-1.1-1-2-1c-0.8,0-1.5,0.3-2.1,0.9v5.4C164,24.7,164.7,25,165.5,25z"/>
	<path class="st5" d="M174.9,26.2c-0.9,0-1.8-0.3-2.4-0.8c-0.7-0.5-1-1.2-1-2.2c0-1,0.4-1.7,1.1-2.3c0.7-0.5,1.7-0.8,2.9-0.8
		c1,0,1.9,0.1,2.8,0.4v-0.3c0-0.8-0.2-1.4-0.7-1.9c-0.5-0.4-1.2-0.6-2-0.6c-0.9,0-1.9,0.2-2.8,0.7l-0.4-1.1c1.2-0.5,2.3-0.8,3.4-0.8
		c1.3,0,2.3,0.3,3,1c0.6,0.6,1,1.6,1,2.7V26h-1.4v-1.4C177.4,25.7,176.3,26.2,174.9,26.2z M175.2,25.1c0.9,0,1.6-0.2,2.2-0.7
		c0.6-0.5,0.9-1.1,0.9-1.8v-0.9c-0.9-0.3-1.8-0.4-2.7-0.4c-0.9,0-1.5,0.2-2,0.5c-0.5,0.3-0.7,0.8-0.7,1.4c0,0.6,0.2,1,0.7,1.4
		C174,24.9,174.5,25.1,175.2,25.1z"/>
	<path class="st5" d="M182.6,26v-9.3h1.4v7.4l5.5-7.4h1.4V26h-1.4v-7.4l-5.5,7.4H182.6z M188.3,14.8c-0.5,0.4-1,0.6-1.7,0.6
		c-0.7,0-1.2-0.2-1.7-0.6c-0.5-0.4-0.7-0.9-0.9-1.6l1-0.2c0.2,0.8,0.8,1.3,1.6,1.3s1.3-0.4,1.6-1.3l1,0.2
		C189.1,13.8,188.8,14.3,188.3,14.8z"/>
	<path class="st5" d="M193.5,26.1c-0.4,0-0.7,0-1.1-0.1l0.2-1.2c0.3,0.1,0.5,0.1,0.7,0.1c0.3,0,0.5,0,0.6-0.1
		c0.2-0.1,0.4-0.2,0.5-0.5c0.2-0.3,0.4-0.7,0.5-1.2c0.1-0.5,0.2-1.2,0.3-2.2c0.1-0.9,0.1-2.1,0.1-3.5v-0.8h6.6V26h-1.4v-8.1h-3.9
		v0.2c0,1.4-0.1,2.6-0.2,3.6c-0.1,1-0.2,1.8-0.4,2.3c-0.2,0.6-0.4,1-0.7,1.3c-0.3,0.3-0.6,0.5-0.8,0.6S193.9,26.1,193.5,26.1z"/>
	<path class="st5" d="M212.5,25.3l-2.9-3.9v-0.1l2.9-3.8l1.1,0.6l-2.4,3.3l2.4,3.3L212.5,25.3z M216.6,25.3l-2.9-3.9v-0.1l2.9-3.8
		l1,0.6l-2.4,3.3l2.4,3.3L216.6,25.3z"/>
	<path class="st5" d="M226.2,26.2c-1.8,0-3.3-0.6-4.5-1.9c-1.2-1.3-1.8-2.8-1.8-4.6c0-1.8,0.6-3.4,1.8-4.6c1.2-1.3,2.7-1.9,4.6-1.9
		c1.1,0,2,0.2,2.7,0.5s1.5,0.8,2.2,1.5l-0.9,1c-1.2-1.2-2.5-1.7-4-1.7c-1.4,0-2.6,0.5-3.5,1.5c-0.9,1-1.4,2.2-1.4,3.7
		c0,1.5,0.5,2.7,1.4,3.7s2.1,1.5,3.5,1.5c0.8,0,1.5-0.2,2.2-0.5s1.3-0.8,1.9-1.4l0.9,1c-0.7,0.7-1.5,1.2-2.2,1.6
		C228.2,26,227.3,26.2,226.2,26.2z"/>
	<path class="st5" d="M241.2,24.8c-0.9,1-2.1,1.4-3.5,1.4s-2.5-0.5-3.4-1.4s-1.4-2.1-1.4-3.4c0-1.3,0.5-2.5,1.4-3.4
		c0.9-1,2.1-1.4,3.5-1.4s2.5,0.5,3.5,1.4c0.9,0.9,1.4,2.1,1.4,3.4C242.6,22.7,242.1,23.8,241.2,24.8z M237.8,25c1,0,1.8-0.3,2.5-1
		c0.6-0.7,1-1.6,1-2.6c0-1-0.3-1.9-1-2.6s-1.5-1.1-2.5-1.1c-1,0-1.8,0.4-2.4,1.1c-0.6,0.7-1,1.6-1,2.6c0,1,0.3,1.9,1,2.6
		C236,24.6,236.8,25,237.8,25z"/>
	<path class="st5" d="M245.1,26v-9.3h1.4v1.6c0.8-1.2,1.8-1.8,3-1.8c1.4,0,2.4,0.6,3,1.9c0.8-1.2,1.9-1.9,3.3-1.9
		c1.1,0,1.9,0.3,2.5,1s0.9,1.6,0.9,2.7V26h-1.4v-5.4c0-0.9-0.2-1.6-0.6-2.1c-0.4-0.5-1-0.7-1.8-0.7c-0.7,0-1.3,0.3-1.8,0.8
		s-0.7,1.2-0.7,2.1V26h-1.4v-5.5c0-0.9-0.2-1.5-0.6-2c-0.4-0.5-1-0.7-1.8-0.7s-1.4,0.3-1.9,0.8s-0.7,1.3-0.7,2.1V26H245.1z"/>
	<path class="st5" d="M262.2,28.9V16.7h1.4v1.9c0.9-1.4,2.1-2.1,3.6-2.1c1.2,0,2.2,0.4,3.1,1.3c0.9,0.9,1.3,2.1,1.3,3.5
		c0,1.5-0.4,2.6-1.3,3.5s-1.9,1.3-3.1,1.3c-1.5,0-2.7-0.7-3.6-2v4.7H262.2z M266.9,25c0.9,0,1.7-0.3,2.3-1c0.6-0.7,0.9-1.5,0.9-2.6
		c0-1.1-0.3-1.9-1-2.6s-1.4-1-2.3-1c-0.9,0-1.7,0.3-2.4,1c-0.7,0.7-1,1.5-1,2.6c0,1,0.3,1.9,1,2.6C265.2,24.6,266,25,266.9,25z"/>
	<path class="st5" d="M274.3,26V12.9h1.4V26H274.3z"/>
	<path class="st5" d="M279.7,21.9c0.1,0.9,0.5,1.7,1.1,2.3c0.6,0.6,1.4,0.8,2.2,0.8c1.1,0,2.1-0.4,2.9-1.3l0.9,0.8
		c-1,1.2-2.3,1.7-3.8,1.7c-1.3,0-2.4-0.5-3.3-1.4s-1.3-2.1-1.3-3.5c0-1.4,0.4-2.5,1.3-3.4s1.9-1.4,3.2-1.4c1.3,0,2.4,0.5,3.2,1.4
		c0.8,0.9,1.2,2.1,1.2,3.5c0,0.2,0,0.3,0,0.5H279.7z M279.7,20.8h6c-0.1-0.9-0.4-1.6-0.9-2.2c-0.5-0.6-1.2-0.9-2.1-0.9
		c-0.8,0-1.5,0.3-2,0.9C280.2,19.1,279.8,19.9,279.7,20.8z"/>
	<path class="st5" d="M292.7,26.2c-0.8,0-1.4-0.2-1.9-0.6c-0.5-0.4-0.7-1.1-0.7-2v-5.6h-1.3v-1.2h1.3v-2.8h1.4v2.8h3v1.2h-3v5.4
		c0,1,0.5,1.5,1.6,1.5c0.5,0,0.9-0.1,1.4-0.3v1.2C293.9,26,293.3,26.2,292.7,26.2z"/>
	<path class="st5" d="M297.7,21.9c0.1,0.9,0.5,1.7,1.1,2.3c0.6,0.6,1.4,0.8,2.2,0.8c1.1,0,2.1-0.4,2.9-1.3l0.9,0.8
		c-1,1.2-2.3,1.7-3.8,1.7c-1.3,0-2.4-0.5-3.3-1.4s-1.3-2.1-1.3-3.5c0-1.4,0.4-2.5,1.3-3.4s1.9-1.4,3.2-1.4c1.3,0,2.4,0.5,3.2,1.4
		c0.8,0.9,1.2,2.1,1.2,3.5c0,0.2,0,0.3,0,0.5H297.7z M297.7,20.8h6c-0.1-0.9-0.4-1.6-0.9-2.2c-0.5-0.6-1.2-0.9-2.1-0.9
		c-0.8,0-1.5,0.3-2,0.9C298.1,19.1,297.8,19.9,297.7,20.8z"/>
	<path class="st5" d="M311.4,26.2c-1.2,0-2.2-0.4-3.1-1.3s-1.3-2.1-1.3-3.5c0-1.5,0.4-2.6,1.3-3.5s1.9-1.3,3.1-1.3
		c1.5,0,2.7,0.7,3.6,2v-5.6h1.4V26H315v-1.9C314,25.5,312.9,26.2,311.4,26.2z M311.7,25c0.9,0,1.7-0.3,2.4-1c0.7-0.7,1-1.6,1-2.6
		c0-1-0.3-1.9-1-2.6c-0.7-0.7-1.5-1-2.4-1c-0.9,0-1.7,0.3-2.3,1c-0.6,0.7-0.9,1.5-0.9,2.6c0,1.1,0.3,1.9,1,2.6
		C310,24.6,310.8,25,311.7,25z"/>
</g>
<g class="st4">
	<path class="st5" d="M81.2,47.6V36.3h-4.2V35h9.9v1.3h-4.2v11.3H81.2z"/>
	<path class="st5" d="M89.3,47.6v-9.3h1.4v2.4c0.4-0.8,0.9-1.4,1.5-1.9c0.7-0.5,1.4-0.7,2.3-0.7v1.5h-0.1c-1.1,0-2,0.4-2.6,1.1
		c-0.7,0.7-1,1.8-1,3.2v3.7H89.3z"/>
	<path class="st5" d="M99.3,47.8c-0.9,0-1.8-0.3-2.4-0.8c-0.7-0.5-1-1.2-1-2.2c0-1,0.4-1.7,1.1-2.3c0.7-0.5,1.7-0.8,2.9-0.8
		c1,0,1.9,0.1,2.8,0.4v-0.3c0-0.8-0.2-1.4-0.7-1.9c-0.5-0.4-1.2-0.6-2-0.6c-0.9,0-1.9,0.2-2.8,0.7l-0.4-1.1c1.2-0.5,2.3-0.8,3.4-0.8
		c1.3,0,2.3,0.3,3,1c0.6,0.6,1,1.6,1,2.7v5.7h-1.4v-1.4C101.9,47.3,100.7,47.8,99.3,47.8z M99.6,46.7c0.9,0,1.6-0.2,2.2-0.7
		c0.6-0.5,0.9-1.1,0.9-1.8v-0.9c-0.9-0.3-1.8-0.4-2.7-0.4c-0.9,0-1.5,0.2-2,0.5c-0.5,0.3-0.7,0.8-0.7,1.4c0,0.6,0.2,1,0.7,1.4
		C98.4,46.5,98.9,46.7,99.6,46.7z"/>
	<path class="st5" d="M107,47.6v-9.3h1.4v1.6c0.7-1.2,1.8-1.8,3.2-1.8c1.1,0,2,0.3,2.6,1c0.6,0.7,1,1.6,1,2.7v5.8h-1.4v-5.4
		c0-0.9-0.2-1.6-0.7-2.1s-1.1-0.7-1.9-0.7c-0.8,0-1.5,0.3-2,0.8c-0.5,0.5-0.8,1.2-0.8,2.1v5.3H107z"/>
	<path class="st5" d="M121.2,47.8c-0.7,0-1.4-0.1-2-0.4c-0.7-0.2-1.3-0.6-1.8-1l0.7-1c1.1,0.8,2.1,1.2,3.2,1.2c0.6,0,1-0.1,1.4-0.4
		c0.4-0.3,0.5-0.6,0.5-1.1c0-0.4-0.2-0.7-0.6-1c-0.4-0.2-1-0.5-1.7-0.7c-0.5-0.1-0.8-0.3-1.1-0.4c-0.3-0.1-0.6-0.3-0.9-0.5
		s-0.6-0.5-0.8-0.8c-0.2-0.3-0.3-0.7-0.3-1.1c0-0.8,0.3-1.4,0.9-1.9c0.6-0.5,1.4-0.7,2.3-0.7c1.2,0,2.3,0.3,3.3,1l-0.6,1
		c-0.9-0.6-1.8-0.9-2.8-0.9c-0.5,0-1,0.1-1.3,0.4c-0.3,0.3-0.5,0.6-0.5,1c0,0.2,0,0.3,0.1,0.5c0.1,0.1,0.2,0.3,0.3,0.4
		s0.3,0.2,0.6,0.3c0.3,0.1,0.5,0.2,0.6,0.2c0.2,0,0.4,0.1,0.7,0.2c0.4,0.1,0.8,0.3,1.1,0.4s0.6,0.3,0.9,0.5c0.3,0.2,0.6,0.5,0.7,0.8
		c0.2,0.3,0.2,0.7,0.2,1.1c0,0.9-0.3,1.5-0.9,2C122.9,47.5,122.1,47.8,121.2,47.8z"/>
	<path class="st5" d="M129.8,47.8c-0.9,0-1.8-0.3-2.4-0.8c-0.7-0.5-1-1.2-1-2.2c0-1,0.4-1.7,1.1-2.3c0.7-0.5,1.7-0.8,2.9-0.8
		c1,0,1.9,0.1,2.8,0.4v-0.3c0-0.8-0.2-1.4-0.7-1.9c-0.5-0.4-1.2-0.6-2-0.6c-0.9,0-1.9,0.2-2.8,0.7l-0.4-1.1c1.2-0.5,2.3-0.8,3.4-0.8
		c1.3,0,2.3,0.3,3,1c0.6,0.6,1,1.6,1,2.7v5.7h-1.4v-1.4C132.3,47.3,131.2,47.8,129.8,47.8z M130.1,46.7c0.9,0,1.6-0.2,2.2-0.7
		c0.6-0.5,0.9-1.1,0.9-1.8v-0.9c-0.9-0.3-1.8-0.4-2.7-0.4c-0.9,0-1.5,0.2-2,0.5c-0.5,0.3-0.7,0.8-0.7,1.4c0,0.6,0.2,1,0.7,1.4
		C128.9,46.5,129.4,46.7,130.1,46.7z"/>
	<path class="st5" d="M141.7,47.8c-1.3,0-2.5-0.5-3.4-1.4s-1.4-2.1-1.4-3.4s0.5-2.5,1.4-3.4s2-1.4,3.4-1.4c1.4,0,2.7,0.6,3.7,1.7
		l-0.9,0.9c-0.9-0.9-1.8-1.4-2.9-1.4c-0.9,0-1.7,0.4-2.4,1.1c-0.6,0.7-1,1.6-1,2.6c0,1,0.3,1.9,1,2.6c0.7,0.7,1.5,1.1,2.4,1.1
		c1,0,1.9-0.5,2.8-1.4l0.9,0.8C144.4,47.2,143.1,47.8,141.7,47.8z"/>
	<path class="st5" d="M150.9,47.8c-0.8,0-1.4-0.2-1.9-0.6c-0.5-0.4-0.7-1.1-0.7-2v-5.6h-1.3v-1.2h1.3v-2.8h1.4v2.8h3v1.2h-3V45
		c0,1,0.5,1.5,1.6,1.5c0.5,0,0.9-0.1,1.4-0.3v1.2C152,47.6,151.5,47.8,150.9,47.8z"/>
	<path class="st5" d="M155,36.3v-1.5h1.6v1.5H155z M155.1,47.6v-9.3h1.4v9.3H155.1z"/>
	<path class="st5" d="M167.5,46.4c-0.9,1-2.1,1.4-3.5,1.4s-2.5-0.5-3.4-1.4s-1.4-2.1-1.4-3.4c0-1.3,0.5-2.5,1.4-3.4
		c0.9-1,2.1-1.4,3.5-1.4s2.5,0.5,3.5,1.4c0.9,0.9,1.4,2.1,1.4,3.4C168.9,44.3,168.4,45.4,167.5,46.4z M164,46.6c1,0,1.8-0.3,2.5-1
		c0.6-0.7,1-1.6,1-2.6c0-1-0.3-1.9-1-2.6s-1.5-1.1-2.5-1.1c-1,0-1.8,0.4-2.4,1.1c-0.6,0.7-1,1.6-1,2.6c0,1,0.3,1.9,1,2.6
		C162.2,46.2,163.1,46.6,164,46.6z"/>
	<path class="st5" d="M171.4,47.6v-9.3h1.4v1.6c0.7-1.2,1.8-1.8,3.2-1.8c1.1,0,2,0.3,2.6,1c0.6,0.7,1,1.6,1,2.7v5.8h-1.4v-5.4
		c0-0.9-0.2-1.6-0.7-2.1s-1.1-0.7-1.9-0.7c-0.8,0-1.5,0.3-2,0.8c-0.5,0.5-0.8,1.2-0.8,2.1v5.3H171.4z"/>
	<path class="st5" d="M185.5,47.8c-0.7,0-1.4-0.1-2-0.4c-0.7-0.2-1.3-0.6-1.8-1l0.7-1c1.1,0.8,2.1,1.2,3.2,1.2c0.6,0,1-0.1,1.4-0.4
		c0.4-0.3,0.5-0.6,0.5-1.1c0-0.4-0.2-0.7-0.6-1c-0.4-0.2-1-0.5-1.7-0.7c-0.5-0.1-0.8-0.3-1.1-0.4c-0.3-0.1-0.6-0.3-0.9-0.5
		s-0.6-0.5-0.8-0.8c-0.2-0.3-0.3-0.7-0.3-1.1c0-0.8,0.3-1.4,0.9-1.9c0.6-0.5,1.4-0.7,2.3-0.7c1.2,0,2.3,0.3,3.3,1l-0.6,1
		c-0.9-0.6-1.8-0.9-2.8-0.9c-0.5,0-1,0.1-1.3,0.4c-0.3,0.3-0.5,0.6-0.5,1c0,0.2,0,0.3,0.1,0.5c0.1,0.1,0.2,0.3,0.3,0.4
		s0.3,0.2,0.6,0.3c0.3,0.1,0.5,0.2,0.6,0.2c0.2,0,0.4,0.1,0.7,0.2c0.4,0.1,0.8,0.3,1.1,0.4s0.6,0.3,0.9,0.5c0.3,0.2,0.6,0.5,0.7,0.8
		c0.2,0.3,0.2,0.7,0.2,1.1c0,0.9-0.3,1.5-0.9,2C187.3,47.5,186.5,47.8,185.5,47.8z"/>
	<path class="st5" d="M192,46.9l-1-0.6l2.4-3.3l-2.4-3.3l1-0.6l2.9,3.8V43L192,46.9z M196,46.9l-1.1-0.6l2.4-3.3l-2.4-3.3L196,39
		l2.9,3.8V43L196,46.9z"/>
	<path class="st5" d="M206.7,47.6v-9.3h1.4v7.4l5.5-7.4h1.4v9.3h-1.4v-7.4l-5.5,7.4H206.7z"/>
	<path class="st5" d="M221,47.8c-1.4,0-2.7-0.5-3.9-1.4l0.7-1c0.9,0.8,2,1.2,3.1,1.2c0.6,0,1.2-0.1,1.6-0.4c0.5-0.3,0.7-0.7,0.7-1.2
		c0-0.5-0.2-0.9-0.6-1.1c-0.4-0.3-1-0.4-1.7-0.4h-1.2v-1.1h1.3c0.6,0,1.1-0.1,1.5-0.4c0.4-0.3,0.6-0.7,0.6-1.2c0-0.4-0.2-0.8-0.6-1
		c-0.4-0.3-0.9-0.4-1.4-0.4c-1.1,0-2,0.3-2.8,0.9l-0.7-1c1-0.8,2.2-1.2,3.6-1.2c1,0,1.9,0.2,2.5,0.7s0.9,1.1,0.9,1.8
		c0,1-0.5,1.7-1.5,2.1c1.2,0.4,1.7,1.2,1.7,2.3c0,0.8-0.3,1.4-1,2C223,47.5,222.2,47.8,221,47.8z"/>
	<path class="st5" d="M232.9,47.6V35h9.1v1.3h-7.7v4.3h6.9v1.3h-6.9v4.4h7.8v1.3H232.9z"/>
	<path class="st5" d="M252.2,50.5v-4.8c-0.9,1.4-2.1,2.1-3.6,2.1c-1.2,0-2.2-0.4-3.1-1.3s-1.3-2.1-1.3-3.5c0-1.5,0.4-2.6,1.3-3.5
		s1.9-1.3,3.1-1.3c1.5,0,2.7,0.7,3.6,2v-1.8h1.4v12.2H252.2z M248.9,46.6c0.9,0,1.7-0.3,2.4-1c0.7-0.7,1-1.6,1-2.6
		c0-1-0.3-1.9-1-2.6c-0.7-0.7-1.5-1-2.4-1c-0.9,0-1.7,0.3-2.3,1c-0.6,0.7-0.9,1.5-0.9,2.6c0,1.1,0.3,1.9,1,2.6
		C247.2,46.2,248,46.6,248.9,46.6z"/>
	<path class="st5" d="M260.1,47.8c-1.1,0-2-0.3-2.6-1c-0.6-0.7-1-1.6-1-2.7v-5.8h1.4v5.4c0,0.9,0.2,1.6,0.7,2.1
		c0.5,0.5,1.1,0.7,1.9,0.7c0.8,0,1.5-0.3,2-0.8c0.5-0.5,0.8-1.2,0.8-2.1v-5.3h1.4v9.3h-1.4V46C262.6,47.2,261.5,47.8,260.1,47.8z"/>
	<path class="st5" d="M270.6,47.8c-0.9,0-1.8-0.3-2.4-0.8c-0.7-0.5-1-1.2-1-2.2c0-1,0.4-1.7,1.1-2.3c0.7-0.5,1.7-0.8,2.9-0.8
		c1,0,1.9,0.1,2.8,0.4v-0.3c0-0.8-0.2-1.4-0.7-1.9c-0.5-0.4-1.2-0.6-2-0.6c-0.9,0-1.9,0.2-2.8,0.7l-0.4-1.1c1.2-0.5,2.3-0.8,3.4-0.8
		c1.3,0,2.3,0.3,3,1c0.6,0.6,1,1.6,1,2.7v5.7h-1.4v-1.4C273.1,47.3,272,47.8,270.6,47.8z M270.8,46.7c0.9,0,1.6-0.2,2.2-0.7
		c0.6-0.5,0.9-1.1,0.9-1.8v-0.9c-0.9-0.3-1.8-0.4-2.7-0.4c-0.9,0-1.5,0.2-2,0.5c-0.5,0.3-0.7,0.8-0.7,1.4c0,0.6,0.2,1,0.7,1.4
		C269.6,46.5,270.2,46.7,270.8,46.7z"/>
	<path class="st5" d="M281.3,47.8c-0.8,0-1.4-0.2-1.9-0.6c-0.5-0.4-0.7-1.1-0.7-2v-5.6h-1.3v-1.2h1.3v-2.8h1.4v2.8h3v1.2h-3V45
		c0,1,0.5,1.5,1.6,1.5c0.5,0,0.9-0.1,1.4-0.3v1.2C282.5,47.6,281.9,47.8,281.3,47.8z"/>
	<path class="st5" d="M286.3,43.5c0.1,0.9,0.5,1.7,1.1,2.3c0.6,0.6,1.4,0.8,2.2,0.8c1.1,0,2.1-0.4,2.9-1.3l0.9,0.8
		c-1,1.2-2.3,1.7-3.8,1.7c-1.3,0-2.4-0.5-3.3-1.4s-1.3-2.1-1.3-3.5c0-1.4,0.4-2.5,1.3-3.4s1.9-1.4,3.2-1.4c1.3,0,2.4,0.5,3.2,1.4
		c0.8,0.9,1.2,2.1,1.2,3.5c0,0.2,0,0.3,0,0.5H286.3z M286.3,42.4h6c-0.1-0.9-0.4-1.6-0.9-2.2c-0.5-0.6-1.2-0.9-2.1-0.9
		c-0.8,0-1.5,0.3-2,0.9C286.7,40.7,286.4,41.5,286.3,42.4z"/>
	<path class="st5" d="M296.1,50.5V38.3h1.4v1.9c0.9-1.4,2.1-2.1,3.6-2.1c1.2,0,2.2,0.4,3.1,1.3c0.9,0.9,1.3,2.1,1.3,3.5
		c0,1.5-0.4,2.6-1.3,3.5s-1.9,1.3-3.1,1.3c-1.5,0-2.7-0.7-3.6-2v4.7H296.1z M300.8,46.6c0.9,0,1.7-0.3,2.3-1
		c0.6-0.7,0.9-1.5,0.9-2.6c0-1.1-0.3-1.9-1-2.6s-1.4-1-2.3-1c-0.9,0-1.7,0.3-2.4,1c-0.7,0.7-1,1.5-1,2.6c0,1,0.3,1.9,1,2.6
		C299.2,46.2,299.9,46.6,300.8,46.6z"/>
	<path class="st5" d="M308.2,47.6V34.5h1.4v13.1H308.2z"/>
	<path class="st5" d="M316.3,47.8c-1.1,0-2-0.3-2.6-1c-0.6-0.7-1-1.6-1-2.7v-5.8h1.4v5.4c0,0.9,0.2,1.6,0.7,2.1
		c0.5,0.5,1.1,0.7,1.9,0.7c0.8,0,1.5-0.3,2-0.8c0.5-0.5,0.8-1.2,0.8-2.1v-5.3h1.4v9.3h-1.4V46C318.7,47.2,317.6,47.8,316.3,47.8z"/>
	<path class="st5" d="M327,47.8c-0.7,0-1.4-0.1-2-0.4c-0.7-0.2-1.3-0.6-1.8-1l0.7-1c1.1,0.8,2.1,1.2,3.2,1.2c0.6,0,1-0.1,1.4-0.4
		c0.4-0.3,0.5-0.6,0.5-1.1c0-0.4-0.2-0.7-0.6-1c-0.4-0.2-1-0.5-1.7-0.7c-0.5-0.1-0.8-0.3-1.1-0.4c-0.3-0.1-0.6-0.3-0.9-0.5
		s-0.6-0.5-0.8-0.8c-0.2-0.3-0.3-0.7-0.3-1.1c0-0.8,0.3-1.4,0.9-1.9c0.6-0.5,1.4-0.7,2.3-0.7c1.2,0,2.3,0.3,3.3,1l-0.6,1
		c-0.9-0.6-1.8-0.9-2.8-0.9c-0.5,0-1,0.1-1.3,0.4c-0.3,0.3-0.5,0.6-0.5,1c0,0.2,0,0.3,0.1,0.5c0.1,0.1,0.2,0.3,0.3,0.4
		s0.3,0.2,0.6,0.3c0.3,0.1,0.5,0.2,0.6,0.2c0.2,0,0.4,0.1,0.7,0.2c0.4,0.1,0.8,0.3,1.1,0.4s0.6,0.3,0.9,0.5c0.3,0.2,0.6,0.5,0.7,0.8
		c0.2,0.3,0.2,0.7,0.2,1.1c0,0.9-0.3,1.5-0.9,2C328.8,47.5,328,47.8,327,47.8z"/>
</g>
<g class="st4">
	<path class="st5" d="M84,146.8c-1.8,0-3.3-0.6-4.5-1.9c-1.2-1.3-1.8-2.8-1.8-4.6c0-1.8,0.6-3.4,1.8-4.6c1.2-1.3,2.7-1.9,4.6-1.9
		c1.1,0,2,0.2,2.7,0.5s1.5,0.8,2.2,1.5l-0.9,1c-1.2-1.2-2.5-1.7-4-1.7c-1.4,0-2.6,0.5-3.5,1.5c-0.9,1-1.4,2.2-1.4,3.7
		c0,1.5,0.5,2.7,1.4,3.7s2.1,1.5,3.5,1.5c0.8,0,1.5-0.2,2.2-0.4c0.6-0.3,1.3-0.8,1.9-1.4l0.9,1c-0.7,0.7-1.5,1.2-2.2,1.6
		C86,146.6,85.1,146.8,84,146.8z"/>
	<path class="st5" d="M91.3,146.6v-9.3h1.4v5.4l5.1-5.4h1.7l-3.9,4l4,5.3H98l-3.3-4.3l-2,2v2.3H91.3z"/>
	<path class="st5" d="M104.3,146.8c-0.9,0-1.8-0.3-2.4-0.8c-0.7-0.5-1-1.2-1-2.2c0-1,0.4-1.7,1.1-2.3c0.7-0.5,1.7-0.8,2.9-0.8
		c1,0,1.9,0.1,2.8,0.4v-0.3c0-0.8-0.2-1.4-0.7-1.9c-0.5-0.4-1.2-0.6-2-0.6c-0.9,0-1.9,0.2-2.8,0.7l-0.4-1.1c1.2-0.5,2.3-0.8,3.4-0.8
		c1.3,0,2.3,0.3,3,1c0.6,0.6,1,1.6,1,2.7v5.7h-1.4v-1.4C106.8,146.3,105.7,146.8,104.3,146.8z M104.6,145.7c0.9,0,1.6-0.2,2.2-0.7
		c0.6-0.5,0.9-1.1,0.9-1.8v-0.9c-0.9-0.3-1.8-0.4-2.7-0.4c-0.9,0-1.5,0.2-2,0.5c-0.5,0.3-0.7,0.8-0.7,1.4c0,0.6,0.2,1,0.7,1.3
		C103.3,145.5,103.9,145.7,104.6,145.7z"/>
	<path class="st5" d="M117.8,146.6v-3.8c-0.4,0.2-0.9,0.4-1.5,0.6c-0.6,0.2-1.2,0.3-1.7,0.3c-0.9,0-1.7-0.2-2.2-0.7
		c-0.6-0.5-0.8-1.2-0.8-2.1v-3.5h1.4v3.3c0,0.6,0.2,1,0.5,1.3c0.3,0.3,0.8,0.5,1.4,0.5c1.1,0,2.1-0.3,2.9-0.9v-4.2h1.4v9.3H117.8z"
		/>
	<path class="st5" d="M125.1,146.8c-0.9,0-1.8-0.3-2.4-0.8c-0.7-0.5-1-1.2-1-2.2c0-1,0.4-1.7,1.1-2.3c0.7-0.5,1.7-0.8,2.9-0.8
		c1,0,1.9,0.1,2.8,0.4v-0.3c0-0.8-0.2-1.4-0.7-1.9c-0.5-0.4-1.2-0.6-2-0.6c-0.9,0-1.9,0.2-2.8,0.7l-0.4-1.1c1.2-0.5,2.3-0.8,3.4-0.8
		c1.3,0,2.3,0.3,3,1c0.6,0.6,1,1.6,1,2.7v5.7h-1.4v-1.4C127.6,146.3,126.5,146.8,125.1,146.8z M125.4,145.7c0.9,0,1.6-0.2,2.2-0.7
		c0.6-0.5,0.9-1.1,0.9-1.8v-0.9c-0.9-0.3-1.8-0.4-2.7-0.4c-0.9,0-1.5,0.2-2,0.5c-0.5,0.3-0.7,0.8-0.7,1.4c0,0.6,0.2,1,0.7,1.3
		C124.1,145.5,124.7,145.7,125.4,145.7z"/>
	<path class="st5" d="M135,146.6v-8.1h-3.3v-1.2h8.1v1.2h-3.3v8.1H135z"/>
	<path class="st5" d="M141.7,146.6v-9.3h1.4v3.5h2.5c1.1,0,2,0.2,2.6,0.7c0.7,0.5,1,1.2,1,2.1c0,0.9-0.3,1.7-1,2.2
		c-0.6,0.5-1.5,0.8-2.6,0.8H141.7z M143.1,145.4h2.5c0.7,0,1.3-0.2,1.6-0.5c0.4-0.3,0.6-0.7,0.6-1.3c0-0.5-0.2-0.9-0.6-1.2
		c-0.4-0.3-1-0.4-1.7-0.4h-2.5V145.4z"/>
	<path class="st5" d="M156.8,146.6v-9.3h6.3v1.2h-4.9v8.1H156.8z"/>
	<path class="st5" d="M172.9,145.4c-0.9,1-2.1,1.4-3.5,1.4s-2.5-0.5-3.4-1.4c-0.9-0.9-1.4-2.1-1.4-3.4c0-1.3,0.5-2.5,1.4-3.4
		c0.9-1,2.1-1.4,3.5-1.4s2.5,0.5,3.5,1.4c0.9,0.9,1.4,2.1,1.4,3.4C174.3,143.3,173.8,144.4,172.9,145.4z M169.4,145.6
		c1,0,1.8-0.3,2.5-1c0.6-0.7,1-1.6,1-2.6c0-1-0.3-1.9-1-2.6c-0.7-0.7-1.5-1.1-2.5-1.1c-1,0-1.8,0.4-2.4,1.1c-0.6,0.7-1,1.6-1,2.6
		c0,1,0.3,1.9,1,2.6C167.7,145.2,168.5,145.6,169.4,145.6z"/>
	<path class="st5" d="M179,146.6v-8.1h-3.3v-1.2h8.1v1.2h-3.3v8.1H179z"/>
	<path class="st5" d="M193.5,145.4c-0.9,1-2.1,1.4-3.5,1.4s-2.5-0.5-3.4-1.4c-0.9-0.9-1.4-2.1-1.4-3.4c0-1.3,0.5-2.5,1.4-3.4
		c0.9-1,2.1-1.4,3.5-1.4s2.5,0.5,3.5,1.4c0.9,0.9,1.4,2.1,1.4,3.4C194.9,143.3,194.4,144.4,193.5,145.4z M190.1,145.6
		c1,0,1.8-0.3,2.5-1c0.6-0.7,1-1.6,1-2.6c0-1-0.3-1.9-1-2.6c-0.7-0.7-1.5-1.1-2.5-1.1c-1,0-1.8,0.4-2.4,1.1c-0.6,0.7-1,1.6-1,2.6
		c0,1,0.3,1.9,1,2.6C188.3,145.2,189.1,145.6,190.1,145.6z"/>
	<path class="st5" d="M197.4,146.6v-9.3h4.5c0.9,0,1.7,0.2,2.2,0.6c0.6,0.4,0.8,1,0.8,1.7c0,1-0.5,1.7-1.5,2.1
		c1.4,0.4,2.1,1.1,2.1,2.3c0,0.8-0.3,1.4-0.9,1.9c-0.6,0.5-1.4,0.7-2.5,0.7H197.4z M198.8,141.3h2.9c0.6,0,1-0.1,1.4-0.4
		c0.3-0.3,0.5-0.6,0.5-1.1c0-0.4-0.2-0.7-0.5-1c-0.3-0.2-0.8-0.4-1.4-0.4h-2.9V141.3z M198.8,145.4h3.1c0.7,0,1.2-0.1,1.6-0.4
		c0.4-0.3,0.6-0.7,0.6-1.2c0-0.5-0.2-0.8-0.6-1.1s-1-0.4-1.7-0.4h-2.9V145.4z"/>
	<path class="st5" d="M208,146.6v-9.3h1.4v3.5h2.5c1.1,0,2,0.2,2.6,0.7c0.7,0.5,1,1.2,1,2.1c0,0.9-0.3,1.7-1,2.2
		c-0.6,0.5-1.5,0.8-2.6,0.8H208z M209.3,145.4h2.5c0.7,0,1.3-0.2,1.6-0.5c0.4-0.3,0.6-0.7,0.6-1.3c0-0.5-0.2-0.9-0.6-1.2
		c-0.4-0.3-1-0.4-1.7-0.4h-2.5V145.4z M217.2,146.6v-9.3h1.4v9.3H217.2z"/>
	<path class="st5" d="M221.7,146.6v-9.3h1.4v7.4l5.5-7.4h1.4v9.3h-1.4v-7.4l-5.5,7.4H221.7z M227.4,135.3c-0.5,0.4-1,0.6-1.7,0.6
		c-0.7,0-1.2-0.2-1.7-0.6c-0.5-0.4-0.7-0.9-0.9-1.6l1-0.2c0.2,0.8,0.8,1.3,1.6,1.3s1.3-0.4,1.6-1.3l1,0.2
		C228.2,134.4,227.9,134.9,227.4,135.3z"/>
	<path class="st5" d="M238.4,146.6v-9.3h8.1v9.3h-1.4v-8.1h-5.3v8.1H238.4z"/>
	<path class="st5" d="M252.3,146.8c-0.9,0-1.8-0.3-2.4-0.8c-0.7-0.5-1-1.2-1-2.2c0-1,0.4-1.7,1.1-2.3c0.7-0.5,1.7-0.8,2.9-0.8
		c1,0,1.9,0.1,2.8,0.4v-0.3c0-0.8-0.2-1.4-0.7-1.9c-0.5-0.4-1.2-0.6-2-0.6c-0.9,0-1.9,0.2-2.8,0.7l-0.4-1.1c1.2-0.5,2.3-0.8,3.4-0.8
		c1.3,0,2.3,0.3,3,1c0.6,0.6,1,1.6,1,2.7v5.7h-1.4v-1.4C254.9,146.3,253.8,146.8,252.3,146.8z M252.6,145.7c0.9,0,1.6-0.2,2.2-0.7
		c0.6-0.5,0.9-1.1,0.9-1.8v-0.9c-0.9-0.3-1.8-0.4-2.7-0.4c-0.9,0-1.5,0.2-2,0.5c-0.5,0.3-0.7,0.8-0.7,1.4c0,0.6,0.2,1,0.7,1.3
		C251.4,145.5,252,145.7,252.6,145.7z"/>
	<path class="st5" d="M260,146.6v-9.3h1.4v5.4l5.1-5.4h1.7l-3.9,4l4,5.3h-1.6l-3.3-4.3l-2,2v2.3H260z"/>
	<path class="st5" d="M274.3,146.8c-1.3,0-2.4-0.5-3.3-1.4s-1.3-2.1-1.3-3.5c0-1.4,0.4-2.5,1.3-3.4c0.9-0.9,1.9-1.4,3.2-1.4
		c1.3,0,2.4,0.5,3.2,1.4c0.8,0.9,1.2,2.1,1.2,3.5c0,0.2,0,0.3,0,0.5H271c0.1,0.9,0.5,1.7,1.1,2.3s1.4,0.8,2.2,0.8
		c1.1,0,2.1-0.4,2.9-1.3l0.9,0.8C277.1,146.2,275.8,146.8,274.3,146.8z M271,141.4h6c-0.1-0.9-0.4-1.6-0.9-2.2
		c-0.5-0.6-1.2-0.9-2.1-0.9c-0.8,0-1.5,0.3-2,0.9C271.5,139.7,271.1,140.5,271,141.4z"/>
	<path class="st5" d="M283.1,146.6v-8.1h-3.3v-1.2h8.1v1.2h-3.3v8.1H283.1z"/>
</g>
<g class="st4">
	<path class="st5" d="M76.7,170.5V167h1c0.8-1.5,1.2-3.7,1.2-6.5v-1.6h6.6v8.1h1.4l-0.2,3.5h-1.2v-2.3H78l-0.3,2.3H76.7z M79.1,167
		h5v-6.9h-3.9v1.3C80.2,163.8,79.9,165.6,79.1,167z"/>
	<path class="st5" d="M88.4,168.3c-0.4,0-0.7,0-1.1-0.1l0.2-1.2c0.3,0.1,0.5,0.1,0.7,0.1c0.3,0,0.5,0,0.6-0.1
		c0.2-0.1,0.4-0.2,0.5-0.5c0.2-0.3,0.4-0.7,0.5-1.2c0.1-0.5,0.2-1.2,0.3-2.2c0.1-0.9,0.1-2.1,0.1-3.5v-0.8h6.6v9.3h-1.4v-8.1h-3.9
		v0.2c0,1.4-0.1,2.6-0.2,3.6c-0.1,1-0.2,1.8-0.4,2.3c-0.2,0.6-0.4,1-0.7,1.3c-0.3,0.3-0.6,0.5-0.8,0.6S88.8,168.3,88.4,168.3z"/>
	<path class="st5" d="M99,168.2l2.8-3.6c-0.7-0.2-1.3-0.5-1.8-1s-0.7-1.1-0.7-1.8c0-0.9,0.3-1.6,0.9-2.1c0.6-0.5,1.5-0.8,2.6-0.8
		h4.4v9.3h-1.4v-3.4h-2.6c-0.1,0.1-0.5,0.6-1.1,1.5c-0.6,0.8-1.1,1.5-1.5,1.9H99z M103,163.6h2.9v-3.5h-2.9c-0.7,0-1.2,0.2-1.6,0.5
		c-0.4,0.3-0.6,0.7-0.6,1.3c0,0.6,0.2,1,0.6,1.3S102.3,163.6,103,163.6z"/>
	<path class="st5" d="M115.7,168.2v-9.3h8.1v9.3h-1.4v-8.1h-5.3v8.1H115.7z"/>
	<path class="st5" d="M134.6,167c-0.9,1-2.1,1.4-3.5,1.4s-2.5-0.5-3.4-1.4s-1.4-2.1-1.4-3.4c0-1.3,0.5-2.5,1.4-3.4
		c0.9-1,2.1-1.4,3.5-1.4s2.5,0.5,3.5,1.4c0.9,0.9,1.4,2.1,1.4,3.4C136,164.9,135.6,166,134.6,167z M131.2,167.2c1,0,1.8-0.3,2.5-1
		c0.6-0.7,1-1.6,1-2.6c0-1-0.3-1.9-1-2.6s-1.5-1.1-2.5-1.1c-1,0-1.8,0.4-2.4,1.1c-0.6,0.7-1,1.6-1,2.6c0,1,0.3,1.9,1,2.6
		C129.4,166.8,130.2,167.2,131.2,167.2z"/>
	<path class="st5" d="M137.2,170.5V167h1c0.8-1.5,1.2-3.7,1.2-6.5v-1.6h6.6v8.1h1.4l-0.2,3.5h-1.2v-2.3h-7.5l-0.3,2.3H137.2z
		 M139.7,167h5v-6.9h-3.9v1.3C140.7,163.8,140.4,165.6,139.7,167z"/>
	<path class="st5" d="M152.1,168.4c-0.9,0-1.8-0.3-2.4-0.8c-0.7-0.5-1-1.2-1-2.2c0-1,0.4-1.7,1.1-2.3c0.7-0.5,1.7-0.8,2.9-0.8
		c1,0,1.9,0.1,2.8,0.4v-0.3c0-0.8-0.2-1.4-0.7-1.9c-0.5-0.4-1.2-0.6-2-0.6c-0.9,0-1.9,0.2-2.8,0.7l-0.4-1.1c1.2-0.5,2.3-0.8,3.4-0.8
		c1.3,0,2.3,0.3,3,1c0.6,0.6,1,1.6,1,2.7v5.7h-1.4v-1.4C154.6,167.9,153.5,168.4,152.1,168.4z M152.4,167.3c0.9,0,1.6-0.2,2.2-0.7
		c0.6-0.5,0.9-1.1,0.9-1.8v-0.9c-0.9-0.3-1.8-0.4-2.7-0.4c-0.9,0-1.5,0.2-2,0.5c-0.5,0.3-0.7,0.8-0.7,1.4c0,0.6,0.2,1,0.7,1.4
		C151.2,167.1,151.7,167.3,152.4,167.3z"/>
	<path class="st5" d="M165.7,168.2v-3.8c-0.4,0.2-0.9,0.4-1.5,0.6c-0.6,0.2-1.2,0.3-1.7,0.3c-0.9,0-1.7-0.2-2.2-0.7
		c-0.6-0.5-0.8-1.2-0.8-2.1v-3.5h1.4v3.3c0,0.6,0.2,1,0.5,1.3c0.3,0.3,0.8,0.5,1.4,0.5c1.1,0,2.1-0.3,2.9-0.9v-4.2h1.4v9.3H165.7z"
		/>
	<path class="st5" d="M170.2,168.2v-9.3h1.4v7.4l5.5-7.4h1.4v9.3H177v-7.4l-5.5,7.4H170.2z"/>
	<path class="st5" d="M186.9,168.2v-9.3h4.5c0.9,0,1.7,0.2,2.2,0.6c0.6,0.4,0.8,1,0.8,1.7c0,1-0.5,1.7-1.5,2.1
		c1.4,0.4,2.1,1.1,2.1,2.3c0,0.8-0.3,1.4-0.9,1.9c-0.6,0.5-1.4,0.7-2.5,0.7H186.9z M188.3,162.9h2.9c0.6,0,1-0.1,1.4-0.4
		c0.3-0.3,0.5-0.6,0.5-1.1c0-0.4-0.2-0.7-0.5-1c-0.3-0.2-0.8-0.4-1.4-0.4h-2.9V162.9z M188.3,167h3.1c0.7,0,1.2-0.1,1.6-0.4
		c0.4-0.3,0.6-0.7,0.6-1.2c0-0.5-0.2-0.8-0.6-1.1s-1-0.4-1.7-0.4h-2.9V167z"/>
	<path class="st5" d="M203.1,168.2v-12.6h1.4v10.5l7.5-10.5h1.4v12.6H212v-10.5l-7.5,10.5H203.1z"/>
	<path class="st5" d="M222.5,168.7v-1.4c-2,0-3.6-0.5-4.7-1.5c-1.1-1-1.7-2.3-1.7-4c0-1.7,0.6-3,1.7-4c1.1-1,2.7-1.5,4.7-1.5v-1.2
		h1.4v1.2c2,0,3.6,0.5,4.7,1.5c1.1,1,1.7,2.3,1.7,4c0,1.7-0.6,3-1.7,4c-1.1,1-2.7,1.5-4.7,1.5v1.4H222.5z M222.5,166v-8.3
		c-1.6,0-2.8,0.4-3.6,1.1c-0.9,0.7-1.3,1.7-1.3,3.1s0.4,2.4,1.3,3.1C219.8,165.6,221,166,222.5,166z M224,166c1.6,0,2.8-0.4,3.6-1.1
		c0.9-0.7,1.3-1.7,1.3-3.1s-0.4-2.4-1.3-3.1c-0.9-0.7-2.1-1.1-3.6-1.1V166z"/>
	<path class="st5" d="M233.1,168.2v-12.6h1.4v5.6h7.3v-5.6h1.4v12.6h-1.4v-5.7h-7.3v5.7H233.1z"/>
	<path class="st5" d="M252.5,168.4c-1.8,0-3.3-0.6-4.5-1.9c-1.2-1.3-1.8-2.8-1.8-4.6c0-1.8,0.6-3.4,1.8-4.6c1.2-1.3,2.7-1.9,4.6-1.9
		c1.1,0,2,0.2,2.7,0.5s1.5,0.8,2.2,1.5l-0.9,1c-1.2-1.2-2.5-1.7-4-1.7c-1.4,0-2.6,0.5-3.5,1.5c-0.9,1-1.4,2.2-1.4,3.7
		c0,1.5,0.5,2.7,1.4,3.7s2.1,1.5,3.5,1.5c0.8,0,1.5-0.2,2.2-0.5s1.3-0.8,1.9-1.4l0.9,1c-0.7,0.7-1.5,1.2-2.2,1.6
		C254.6,168.2,253.6,168.4,252.5,168.4z"/>
</g>
<g class="st4">
	<path class="st5" d="M594.9,28.3c-2,0-3.8-0.7-5.3-2l0.8-1c1.3,1.2,2.7,1.8,4.4,1.8c0.8,0,1.5-0.2,2.1-0.7c0.6-0.5,0.9-1,0.9-1.8
		c0-0.8-0.3-1.4-0.9-1.7c-0.6-0.4-1.4-0.6-2.5-0.6H593v-1.2h1.4c0.9,0,1.7-0.2,2.2-0.6c0.6-0.4,0.9-1,0.9-1.7c0-0.6-0.3-1.2-0.8-1.6
		c-0.5-0.4-1.2-0.6-2-0.6c-1.4,0-2.7,0.5-3.7,1.4l-0.8-1c0.7-0.6,1.3-1,2.1-1.3s1.6-0.4,2.5-0.4c1.2,0,2.3,0.3,3.1,1
		s1.2,1.4,1.2,2.4c0,1.4-0.8,2.4-2.3,3c0.8,0.2,1.4,0.6,1.9,1.1c0.5,0.5,0.7,1.2,0.7,2c0,1-0.4,1.9-1.2,2.6
		C597.2,28,596.2,28.3,594.9,28.3z"/>
	<path class="st5" d="M604.7,28.3c-0.9,0-1.8-0.3-2.4-0.8c-0.7-0.5-1-1.2-1-2.2c0-1,0.4-1.7,1.1-2.3c0.7-0.5,1.7-0.8,2.9-0.8
		c1,0,1.9,0.1,2.8,0.4v-0.3c0-0.8-0.2-1.4-0.7-1.9c-0.5-0.4-1.2-0.6-2-0.6c-0.9,0-1.9,0.2-2.8,0.7l-0.4-1.1c1.2-0.5,2.3-0.8,3.4-0.8
		c1.3,0,2.3,0.3,3,1c0.6,0.6,1,1.6,1,2.7v5.7H608v-1.4C607.2,27.8,606.1,28.3,604.7,28.3z M605,27.2c0.9,0,1.6-0.2,2.2-0.7
		s0.9-1.1,0.9-1.8v-0.9c-0.9-0.3-1.8-0.4-2.7-0.4c-0.9,0-1.5,0.2-2,0.5c-0.5,0.3-0.7,0.8-0.7,1.4c0,0.6,0.2,1,0.7,1.4
		C603.7,27,604.3,27.2,605,27.2z"/>
	<path class="st5" d="M612.3,28.1v-9.3h6.3V20h-4.9v8.1H612.3z"/>
	<path class="st5" d="M620.7,31V18.8h1.4v1.9c0.9-1.4,2.1-2.1,3.6-2.1c1.2,0,2.2,0.4,3.1,1.3c0.9,0.9,1.3,2.1,1.3,3.5
		c0,1.5-0.4,2.6-1.3,3.5c-0.9,0.9-1.9,1.3-3.1,1.3c-1.5,0-2.7-0.7-3.6-2V31H620.7z M625.4,27.1c0.9,0,1.7-0.3,2.3-1
		c0.6-0.7,0.9-1.5,0.9-2.6c0-1.1-0.3-1.9-1-2.6c-0.6-0.7-1.4-1-2.3-1c-0.9,0-1.7,0.3-2.4,1c-0.7,0.7-1,1.5-1,2.6c0,1,0.3,1.9,1,2.6
		C623.7,26.7,624.5,27.1,625.4,27.1z"/>
	<path class="st5" d="M634.1,31c-0.7,0-1.3-0.2-2-0.5l0.5-1.1c0.4,0.2,0.9,0.3,1.5,0.3c0.4,0,0.8-0.1,1.1-0.4
		c0.3-0.3,0.6-0.7,0.8-1.4l-4.2-9.3h1.5l3.4,7.8l3-7.8h1.5l-3.9,9.6c-0.4,0.9-0.8,1.6-1.3,2C635.4,30.8,634.8,31,634.1,31z"/>
	<path class="st5" d="M646.2,28.3c-1.4,0-2.7-0.5-3.9-1.4l0.7-1c0.9,0.8,2,1.2,3.1,1.2c0.6,0,1.2-0.1,1.6-0.4s0.7-0.7,0.7-1.2
		c0-0.5-0.2-0.9-0.6-1.1c-0.4-0.3-1-0.4-1.7-0.4h-1.2v-1.1h1.3c0.6,0,1.1-0.1,1.5-0.4s0.6-0.7,0.6-1.2c0-0.4-0.2-0.8-0.6-1
		c-0.4-0.3-0.9-0.4-1.4-0.4c-1.1,0-2,0.3-2.8,0.9l-0.7-1c1-0.8,2.2-1.2,3.6-1.2c1,0,1.9,0.2,2.5,0.7c0.6,0.5,0.9,1.1,0.9,1.8
		c0,1-0.5,1.7-1.5,2.1c1.2,0.4,1.7,1.2,1.7,2.3c0,0.8-0.3,1.4-1,2S647.3,28.3,646.2,28.3z"/>
	<path class="st5" d="M652.5,28.1v-9.3h1.4v7.4l5.5-7.4h1.3v9.3h-1.4v-7.4l-5.5,7.4H652.5z"/>
	<path class="st5" d="M666.1,28.1V20h-3.3v-1.2h8.1V20h-3.3v8.1H666.1z"/>
	<path class="st5" d="M672.8,28.1v-9.3h1.4v3.5h2.5c1.1,0,2,0.2,2.6,0.7c0.7,0.5,1,1.2,1,2.1c0,0.9-0.3,1.7-1,2.2
		c-0.6,0.5-1.5,0.8-2.6,0.8H672.8z M674.2,26.9h2.5c0.7,0,1.3-0.2,1.6-0.5s0.6-0.7,0.6-1.3c0-0.5-0.2-0.9-0.6-1.2
		c-0.4-0.3-1-0.4-1.7-0.4h-2.5V26.9z"/>
	<path class="st5" d="M692,28.3c-1.3,0-2.4-0.5-3.3-1.4c-0.9-0.9-1.3-2.1-1.3-3.5c0-1.4,0.4-2.5,1.3-3.4c0.9-0.9,1.9-1.4,3.2-1.4
		c1.3,0,2.4,0.5,3.2,1.4c0.8,0.9,1.2,2.1,1.2,3.5c0,0.2,0,0.3,0,0.5h-7.4c0.1,0.9,0.5,1.7,1.1,2.3c0.6,0.6,1.4,0.8,2.2,0.8
		c1.1,0,2.1-0.4,2.9-1.3l0.9,0.8C694.8,27.7,693.5,28.3,692,28.3z M688.7,22.9h6c-0.1-0.9-0.4-1.6-0.9-2.2c-0.5-0.6-1.2-0.9-2.1-0.9
		c-0.8,0-1.5,0.3-2,0.9C689.2,21.2,688.8,22,688.7,22.9z"/>
	<path class="st5" d="M698.6,28.1v-9.3h6.3V20H700v8.1H698.6z"/>
	<path class="st5" d="M714.6,26.9c-0.9,1-2.1,1.4-3.5,1.4s-2.5-0.5-3.4-1.4s-1.4-2.1-1.4-3.4c0-1.3,0.5-2.5,1.4-3.4
		c0.9-1,2.1-1.4,3.5-1.4s2.5,0.5,3.5,1.4c0.9,0.9,1.4,2.1,1.4,3.4C716,24.8,715.6,25.9,714.6,26.9z M711.2,27.1c1,0,1.8-0.3,2.5-1
		c0.6-0.7,1-1.6,1-2.6c0-1-0.3-1.9-1-2.6s-1.5-1.1-2.5-1.1c-1,0-1.8,0.4-2.4,1.1c-0.6,0.7-1,1.6-1,2.6c0,1,0.3,1.9,1,2.6
		S710.2,27.1,711.2,27.1z"/>
	<path class="st5" d="M723.9,28.1v-9.3h4.5c0.9,0,1.7,0.2,2.2,0.6c0.6,0.4,0.8,1,0.8,1.7c0,1-0.5,1.7-1.5,2.1
		c1.4,0.4,2.1,1.1,2.1,2.3c0,0.8-0.3,1.4-0.9,1.9c-0.6,0.5-1.4,0.7-2.5,0.7H723.9z M725.3,22.8h2.9c0.6,0,1-0.1,1.4-0.4
		c0.3-0.3,0.5-0.6,0.5-1.1c0-0.4-0.2-0.7-0.5-1s-0.8-0.4-1.4-0.4h-2.9V22.8z M725.3,26.9h3.1c0.7,0,1.2-0.1,1.6-0.4
		c0.4-0.3,0.6-0.7,0.6-1.2c0-0.5-0.2-0.8-0.6-1.1c-0.4-0.3-1-0.4-1.7-0.4h-2.9V26.9z"/>
	<path class="st5" d="M739.9,28.1v-9.3h1.4v5.4l5.1-5.4h1.7l-3.9,4l4,5.3h-1.6l-3.3-4.3l-2,2v2.3H739.9z"/>
	<path class="st5" d="M757.8,26.9c-0.9,1-2.1,1.4-3.5,1.4s-2.5-0.5-3.4-1.4s-1.4-2.1-1.4-3.4c0-1.3,0.5-2.5,1.4-3.4s2.1-1.4,3.5-1.4
		s2.5,0.5,3.5,1.4s1.4,2.1,1.4,3.4C759.2,24.8,758.7,25.9,757.8,26.9z M754.4,27.1c1,0,1.8-0.3,2.5-1c0.6-0.7,1-1.6,1-2.6
		c0-1-0.3-1.9-1-2.6s-1.5-1.1-2.5-1.1c-1,0-1.8,0.4-2.4,1.1c-0.6,0.7-1,1.6-1,2.6c0,1,0.3,1.9,1,2.6
		C752.6,26.7,753.4,27.1,754.4,27.1z"/>
	<path class="st5" d="M761.7,28.1v-9.3h1.4v4h5.4v-4h1.4v9.3h-1.4V24h-5.4v4.1H761.7z"/>
	<path class="st5" d="M777.1,28.3c-1.3,0-2.5-0.5-3.4-1.4s-1.4-2.1-1.4-3.4s0.5-2.5,1.4-3.4s2-1.4,3.4-1.4c1.4,0,2.7,0.6,3.7,1.7
		l-0.9,0.9c-0.9-0.9-1.8-1.4-2.9-1.4c-0.9,0-1.7,0.4-2.4,1.1c-0.6,0.7-1,1.6-1,2.6c0,1,0.3,1.9,1,2.6c0.7,0.7,1.5,1.1,2.4,1.1
		c1,0,1.9-0.5,2.8-1.4l0.9,0.8C779.9,27.7,778.6,28.3,777.1,28.3z"/>
	<path class="st5" d="M785.5,28.1V20h-3.3v-1.2h8.1V20h-3.3v8.1H785.5z"/>
	<path class="st5" d="M792.2,31V18.8h1.4v1.9c0.9-1.4,2.1-2.1,3.6-2.1c1.2,0,2.2,0.4,3.1,1.3c0.9,0.9,1.3,2.1,1.3,3.5
		c0,1.5-0.4,2.6-1.3,3.5c-0.9,0.9-1.9,1.3-3.1,1.3c-1.5,0-2.7-0.7-3.6-2V31H792.2z M796.9,27.1c0.9,0,1.7-0.3,2.3-1
		c0.6-0.7,0.9-1.5,0.9-2.6c0-1.1-0.3-1.9-1-2.6c-0.6-0.7-1.4-1-2.3-1c-0.9,0-1.7,0.3-2.4,1c-0.7,0.7-1,1.5-1,2.6c0,1,0.3,1.9,1,2.6
		C795.2,26.7,796,27.1,796.9,27.1z"/>
	<path class="st5" d="M805.6,31c-0.7,0-1.3-0.2-2-0.5l0.5-1.1c0.4,0.2,0.9,0.3,1.5,0.3c0.4,0,0.8-0.1,1.1-0.4
		c0.3-0.3,0.6-0.7,0.8-1.4l-4.2-9.3h1.5l3.4,7.8l3-7.8h1.5l-3.9,9.6c-0.4,0.9-0.8,1.6-1.3,2C806.9,30.8,806.3,31,805.6,31z"/>
	<path class="st5" d="M814.8,28.1v-9.3h1.4v5.4l5.1-5.4h1.7l-3.9,4l4,5.3h-1.6l-3.3-4.3l-2,2v2.3H814.8z"/>
	<path class="st5" d="M827.3,28.1V20h-3.3v-1.2h8.1V20h-3.3v8.1H827.3z"/>
	<path class="st5" d="M841.7,26.9c-0.9,1-2.1,1.4-3.5,1.4s-2.5-0.5-3.4-1.4s-1.4-2.1-1.4-3.4c0-1.3,0.5-2.5,1.4-3.4
		c0.9-1,2.1-1.4,3.5-1.4s2.5,0.5,3.5,1.4c0.9,0.9,1.4,2.1,1.4,3.4C843.1,24.8,842.7,25.9,841.7,26.9z M838.3,27.1c1,0,1.8-0.3,2.5-1
		c0.6-0.7,1-1.6,1-2.6c0-1-0.3-1.9-1-2.6s-1.5-1.1-2.5-1.1c-1,0-1.8,0.4-2.4,1.1c-0.6,0.7-1,1.6-1,2.6c0,1,0.3,1.9,1,2.6
		S837.3,27.1,838.3,27.1z"/>
	<path class="st5" d="M845.6,31V18.8h1.4v1.9c0.9-1.4,2.1-2.1,3.6-2.1c1.2,0,2.2,0.4,3.1,1.3c0.9,0.9,1.3,2.1,1.3,3.5
		c0,1.5-0.4,2.6-1.3,3.5c-0.9,0.9-1.9,1.3-3.1,1.3c-1.5,0-2.7-0.7-3.6-2V31H845.6z M850.3,27.1c0.9,0,1.7-0.3,2.3-1
		c0.6-0.7,0.9-1.5,0.9-2.6c0-1.1-0.3-1.9-1-2.6c-0.6-0.7-1.4-1-2.3-1c-0.9,0-1.7,0.3-2.4,1c-0.7,0.7-1,1.5-1,2.6c0,1,0.3,1.9,1,2.6
		C848.7,26.7,849.4,27.1,850.3,27.1z"/>
</g>
<g class="st4">
	<path class="st5" d="M589.1,52v-3.5h1c0.8-1.5,1.2-3.7,1.2-6.5v-1.6h6.6v8.1h1.4l-0.2,3.5H598v-2.3h-7.5l-0.3,2.3H589.1z
		 M591.6,48.5h5v-6.9h-3.9v1.3C592.7,45.3,592.3,47.1,591.6,48.5z"/>
	<path class="st5" d="M605.4,49.9c-1.3,0-2.4-0.5-3.3-1.4c-0.9-0.9-1.3-2.1-1.3-3.5c0-1.4,0.4-2.5,1.3-3.4c0.9-0.9,1.9-1.4,3.2-1.4
		c1.3,0,2.4,0.5,3.2,1.4c0.8,0.9,1.2,2.1,1.2,3.5c0,0.2,0,0.3,0,0.5h-7.4c0.1,0.9,0.5,1.7,1.1,2.3c0.6,0.6,1.4,0.8,2.2,0.8
		c1.1,0,2.1-0.4,2.9-1.3l0.9,0.8C608.1,49.3,606.9,49.9,605.4,49.9z M602.1,44.5h6c-0.1-0.9-0.4-1.6-0.9-2.2
		c-0.5-0.6-1.2-0.9-2.1-0.9c-0.8,0-1.5,0.3-2,0.9C602.5,42.8,602.2,43.6,602.1,44.5z"/>
	<path class="st5" d="M611.9,49.7v-9.3h1.4v5.4l5.1-5.4h1.7l-3.9,4l4,5.3h-1.6l-3.3-4.3l-2,2v2.3H611.9z"/>
	<path class="st5" d="M621.7,49.8c-0.4,0-0.7,0-1.1-0.1l0.2-1.2c0.3,0.1,0.5,0.1,0.7,0.1c0.3,0,0.5,0,0.6-0.1
		c0.2-0.1,0.4-0.2,0.5-0.5c0.2-0.3,0.4-0.7,0.5-1.2s0.2-1.2,0.3-2.2c0.1-0.9,0.1-2.1,0.1-3.5v-0.8h6.6v9.3h-1.4v-8.1h-3.9v0.2
		c0,1.4-0.1,2.6-0.2,3.6s-0.2,1.8-0.4,2.3c-0.2,0.6-0.4,1-0.7,1.3c-0.3,0.3-0.6,0.5-0.8,0.6C622.4,49.8,622.1,49.8,621.7,49.8z"/>
	<path class="st5" d="M635.9,49.9c-0.9,0-1.8-0.3-2.4-0.8c-0.7-0.5-1-1.2-1-2.2c0-1,0.4-1.7,1.1-2.3c0.7-0.5,1.7-0.8,2.9-0.8
		c1,0,1.9,0.1,2.8,0.4V44c0-0.8-0.2-1.4-0.7-1.9c-0.5-0.4-1.2-0.6-2-0.6c-0.9,0-1.9,0.2-2.8,0.7l-0.4-1.1c1.2-0.5,2.3-0.8,3.4-0.8
		c1.3,0,2.3,0.3,3,1c0.6,0.6,1,1.6,1,2.7v5.7h-1.4v-1.4C638.4,49.4,637.3,49.9,635.9,49.9z M636.2,48.8c0.9,0,1.6-0.2,2.2-0.7
		c0.6-0.5,0.9-1.1,0.9-1.8v-0.9c-0.9-0.3-1.8-0.4-2.7-0.4c-0.9,0-1.5,0.2-2,0.5c-0.5,0.3-0.7,0.8-0.7,1.4c0,0.6,0.2,1,0.7,1.4
		S635.5,48.8,636.2,48.8z"/>
	<path class="st5" d="M643.6,52.6V40.4h1.4v1.9c0.9-1.4,2.1-2.1,3.6-2.1c1.2,0,2.2,0.4,3.1,1.3c0.9,0.9,1.3,2.1,1.3,3.5
		c0,1.5-0.4,2.6-1.3,3.5c-0.9,0.9-1.9,1.3-3.1,1.3c-1.5,0-2.7-0.7-3.6-2v4.7H643.6z M648.3,48.7c0.9,0,1.7-0.3,2.3-1
		c0.6-0.7,0.9-1.5,0.9-2.6c0-1.1-0.3-1.9-1-2.6c-0.6-0.7-1.4-1-2.3-1c-0.9,0-1.7,0.3-2.4,1c-0.7,0.7-1,1.5-1,2.6c0,1,0.3,1.9,1,2.6
		C646.6,48.3,647.4,48.7,648.3,48.7z"/>
	<path class="st5" d="M658.3,49.9c-0.9,0-1.8-0.3-2.4-0.8c-0.7-0.5-1-1.2-1-2.2c0-1,0.4-1.7,1.1-2.3c0.7-0.5,1.7-0.8,2.9-0.8
		c1,0,1.9,0.1,2.8,0.4V44c0-0.8-0.2-1.4-0.7-1.9c-0.5-0.4-1.2-0.6-2-0.6c-0.9,0-1.9,0.2-2.8,0.7l-0.4-1.1c1.2-0.5,2.3-0.8,3.4-0.8
		c1.3,0,2.3,0.3,3,1c0.6,0.6,1,1.6,1,2.7v5.7h-1.4v-1.4C660.8,49.4,659.7,49.9,658.3,49.9z M658.6,48.8c0.9,0,1.6-0.2,2.2-0.7
		s0.9-1.1,0.9-1.8v-0.9c-0.9-0.3-1.8-0.4-2.7-0.4c-0.9,0-1.5,0.2-2,0.5c-0.5,0.3-0.7,0.8-0.7,1.4c0,0.6,0.2,1,0.7,1.4
		C657.3,48.6,657.9,48.8,658.6,48.8z"/>
	<path class="st5" d="M674,52v-2.3h-8v-9.3h1.4v8.1h5.2v-8.1h1.4v8.1h1.4l-0.2,3.5H674z"/>
	<path class="st5" d="M677.2,49.7v-9.3h1.4v7.4l5.5-7.4h1.4v9.3h-1.4v-7.4l-5.5,7.4H677.2z"/>
	<path class="st5" d="M688.6,49.7v-9.3h1.4v7.4l5.5-7.4h1.3v9.3h-1.4v-7.4l-5.5,7.4H688.6z M694.4,38.5c-0.5,0.4-1,0.6-1.7,0.6
		s-1.2-0.2-1.7-0.6c-0.5-0.4-0.7-0.9-0.9-1.6l1-0.2c0.2,0.8,0.8,1.3,1.6,1.3c0.8,0,1.3-0.4,1.6-1.3l1,0.2
		C695.1,37.5,694.8,38,694.4,38.5z"/>
	<path class="st5" d="M709.4,49.9c-2,0-3.5-0.8-4.7-2.3l1-0.9c1,1.2,2.3,1.9,3.7,1.9c0.8,0,1.4-0.2,2-0.7c0.5-0.5,0.8-1.1,0.8-1.8
		c0-0.8-0.3-1.4-1-1.8c-0.6-0.4-1.5-0.6-2.6-0.6h-0.8l-0.3-0.8l4-4.5h-6.2v-1.3h8v1l-4,4.4c1.2,0.1,2.2,0.4,3,1s1.2,1.4,1.2,2.5
		c0,1.1-0.4,2-1.2,2.7C711.6,49.6,710.6,49.9,709.4,49.9z"/>
	<path class="st5" d="M716,45v-1.5h5V45H716z"/>
	<path class="st5" d="M724,49.7V37.1h1.4v5.6h7.3v-5.6h1.4v12.6h-1.4V44h-7.3v5.7H724z"/>
	<path class="st5" d="M736,52.5v-4.1h1.3c1.3-2,1.9-5.1,1.9-9.1v-2.2h8.2v11.3h1.6l-0.2,4.1h-1.2v-2.8h-10.2l-0.3,2.8H736z
		 M738.9,48.4h7.1v-10h-5.5V40c0,1.7-0.2,3.3-0.5,4.8S739.5,47.6,738.9,48.4z"/>
	<path class="st5" d="M756.8,50.2v-1.4c-2,0-3.6-0.5-4.7-1.5c-1.1-1-1.7-2.3-1.7-4c0-1.7,0.6-3,1.7-4c1.1-1,2.7-1.5,4.7-1.5v-1.2
		h1.4v1.2c2,0,3.6,0.5,4.7,1.5c1.1,1,1.7,2.3,1.7,4c0,1.7-0.6,3-1.7,4c-1.1,1-2.7,1.5-4.7,1.5v1.4H756.8z M756.8,47.5v-8.3
		c-1.6,0-2.8,0.4-3.6,1.1c-0.9,0.7-1.3,1.7-1.3,3.1s0.4,2.4,1.3,3.1C754,47.1,755.2,47.5,756.8,47.5z M758.2,47.5
		c1.6,0,2.8-0.4,3.6-1.1c0.9-0.7,1.3-1.7,1.3-3.1s-0.4-2.4-1.3-3.1c-0.9-0.7-2.1-1.1-3.6-1.1V47.5z"/>
	<path class="st5" d="M767.1,49.8c-0.6,0-1.1-0.1-1.6-0.3l0.3-1.2c0.3,0.1,0.6,0.2,1.1,0.2c0.2,0,0.5,0,0.6-0.1
		c0.2-0.1,0.4-0.3,0.7-0.6c0.3-0.4,0.5-0.8,0.6-1.5c0.2-0.6,0.3-1.5,0.4-2.7c0.1-1.2,0.2-2.6,0.2-4.2v-2.3h8.2v12.6h-1.4V38.4h-5.4
		v1.4c0,1.7-0.1,3.2-0.2,4.4c-0.1,1.2-0.3,2.2-0.5,2.9c-0.2,0.7-0.5,1.3-0.8,1.7c-0.3,0.4-0.7,0.7-1,0.8S767.6,49.8,767.1,49.8z"/>
</g>
<g class="st4">
	<path class="st5" d="M590.1,147.6V135h5.4c1.5,0,2.6,0.4,3.3,1.1c0.5,0.6,0.8,1.3,0.8,2.1c0,1.4-0.7,2.3-2,2.9
		c1.8,0.5,2.7,1.6,2.7,3.1c0,1.1-0.4,1.9-1.2,2.5c-0.8,0.6-1.9,0.9-3.3,0.9H590.1z M591.5,140.6h3.7c0.9,0,1.6-0.2,2.1-0.6
		c0.5-0.4,0.8-1,0.8-1.7c0-0.6-0.2-1.1-0.7-1.5c-0.5-0.4-1.2-0.5-2.1-0.5h-3.8V140.6z M591.5,146.3h4.2c1,0,1.7-0.2,2.3-0.6
		c0.6-0.4,0.8-1,0.8-1.7c0-0.7-0.3-1.2-0.9-1.6c-0.6-0.4-1.4-0.6-2.5-0.6h-4V146.3z"/>
	<path class="st5" d="M602.8,147.6v-9.3h1.4v4h5.4v-4h1.4v9.3h-1.4v-4.1h-5.4v4.1H602.8z"/>
	<path class="st5" d="M618.1,147.8c-1.3,0-2.4-0.5-3.3-1.4c-0.9-0.9-1.3-2.1-1.3-3.5c0-1.4,0.4-2.5,1.3-3.4c0.9-0.9,1.9-1.4,3.2-1.4
		c1.3,0,2.4,0.5,3.2,1.4c0.8,0.9,1.2,2.1,1.2,3.5c0,0.2,0,0.3,0,0.5h-7.4c0.1,0.9,0.5,1.7,1.1,2.3s1.4,0.8,2.2,0.8
		c1.1,0,2.1-0.4,2.9-1.3l0.9,0.8C620.9,147.2,619.6,147.8,618.1,147.8z M614.9,142.4h6c-0.1-0.9-0.4-1.6-0.9-2.2
		c-0.5-0.6-1.2-0.9-2.1-0.9c-0.8,0-1.5,0.3-2,0.9C615.3,140.7,615,141.5,614.9,142.4z"/>
	<path class="st5" d="M628.9,147.8c-1.3,0-2.5-0.5-3.4-1.4c-0.9-1-1.4-2.1-1.4-3.4s0.5-2.5,1.4-3.4c0.9-1,2-1.4,3.4-1.4
		c1.4,0,2.7,0.6,3.7,1.7l-0.9,0.9c-0.9-0.9-1.8-1.4-2.9-1.4c-0.9,0-1.7,0.4-2.4,1.1c-0.6,0.7-1,1.6-1,2.6c0,1,0.3,1.9,1,2.6
		c0.7,0.7,1.5,1.1,2.4,1.1c1,0,1.9-0.5,2.8-1.4l0.9,0.8C631.6,147.2,630.4,147.8,628.9,147.8z"/>
	<path class="st5" d="M637.2,147.6v-8.1h-3.3v-1.2h8.1v1.2h-3.3v8.1H637.2z"/>
	<path class="st5" d="M644,147.6v-9.3h1.4v7.4l5.5-7.4h1.3v9.3h-1.4v-7.4l-5.5,7.4H644z"/>
	<path class="st5" d="M660.7,147.6v-9.3h8.1v9.3h-1.4v-8.1h-5.3v8.1H660.7z"/>
	<path class="st5" d="M676,147.8c-1.3,0-2.4-0.5-3.3-1.4c-0.9-0.9-1.3-2.1-1.3-3.5c0-1.4,0.4-2.5,1.3-3.4c0.9-0.9,1.9-1.4,3.2-1.4
		c1.3,0,2.4,0.5,3.2,1.4c0.8,0.9,1.2,2.1,1.2,3.5c0,0.2,0,0.3,0,0.5h-7.4c0.1,0.9,0.5,1.7,1.1,2.3s1.4,0.8,2.2,0.8
		c1.1,0,2.1-0.4,2.9-1.3l0.9,0.8C678.8,147.2,677.5,147.8,676,147.8z M672.7,142.4h6c-0.1-0.9-0.4-1.6-0.9-2.2
		c-0.5-0.6-1.2-0.9-2.1-0.9c-0.8,0-1.5,0.3-2,0.9C673.2,140.7,672.8,141.5,672.7,142.4z"/>
	<path class="st5" d="M682.6,150.5v-12.2h1.4v1.9c0.9-1.4,2.1-2.1,3.6-2.1c1.2,0,2.2,0.4,3.1,1.3c0.9,0.9,1.3,2.1,1.3,3.5
		c0,1.5-0.4,2.6-1.3,3.5c-0.9,0.9-1.9,1.3-3.1,1.3c-1.5,0-2.7-0.7-3.6-2v4.7H682.6z M687.3,146.6c0.9,0,1.7-0.3,2.3-1
		c0.6-0.7,0.9-1.5,0.9-2.6c0-1.1-0.3-1.9-1-2.6c-0.6-0.7-1.4-1-2.3-1c-0.9,0-1.7,0.3-2.4,1c-0.7,0.7-1,1.5-1,2.6c0,1,0.3,1.9,1,2.6
		S686.4,146.6,687.3,146.6z"/>
	<path class="st5" d="M698.7,147.8c-1.3,0-2.5-0.5-3.4-1.4c-0.9-1-1.4-2.1-1.4-3.4s0.5-2.5,1.4-3.4c0.9-1,2-1.4,3.4-1.4
		c1.4,0,2.7,0.6,3.7,1.7l-0.9,0.9c-0.9-0.9-1.8-1.4-2.9-1.4c-0.9,0-1.7,0.4-2.4,1.1c-0.6,0.7-1,1.6-1,2.6c0,1,0.3,1.9,1,2.6
		c0.7,0.7,1.5,1.1,2.4,1.1c1,0,1.9-0.5,2.8-1.4l0.9,0.8C701.4,147.2,700.2,147.8,698.7,147.8z"/>
	<path class="st5" d="M712.5,146.4c-0.9,1-2.1,1.4-3.5,1.4s-2.5-0.5-3.4-1.4c-0.9-0.9-1.4-2.1-1.4-3.4c0-1.3,0.5-2.5,1.4-3.4
		c0.9-1,2.1-1.4,3.5-1.4s2.5,0.5,3.5,1.4c0.9,0.9,1.4,2.1,1.4,3.4C713.9,144.3,713.5,145.4,712.5,146.4z M709.1,146.6
		c1,0,1.8-0.3,2.5-1c0.6-0.7,1-1.6,1-2.6c0-1-0.3-1.9-1-2.6c-0.7-0.7-1.5-1.1-2.5-1.1c-1,0-1.8,0.4-2.4,1.1c-0.6,0.7-1,1.6-1,2.6
		c0,1,0.3,1.9,1,2.6C707.3,146.2,708.1,146.6,709.1,146.6z"/>
	<path class="st5" d="M716.4,147.6v-9.3h1.4v4h5.4v-4h1.4v9.3h-1.4v-4.1h-5.4v4.1H716.4z"/>
	<path class="st5" d="M730.4,147.8c-0.9,0-1.8-0.3-2.4-0.8c-0.7-0.5-1-1.2-1-2.2c0-1,0.4-1.7,1.1-2.3c0.7-0.5,1.7-0.8,2.9-0.8
		c1,0,1.9,0.1,2.8,0.4v-0.3c0-0.8-0.2-1.4-0.7-1.9c-0.5-0.4-1.2-0.6-2-0.6c-0.9,0-1.9,0.2-2.8,0.7l-0.4-1.1c1.2-0.5,2.3-0.8,3.4-0.8
		c1.3,0,2.3,0.3,3,1c0.6,0.6,1,1.6,1,2.7v5.7h-1.4v-1.4C732.9,147.3,731.8,147.8,730.4,147.8z M730.7,146.7c0.9,0,1.6-0.2,2.2-0.7
		c0.6-0.5,0.9-1.1,0.9-1.8v-0.9c-0.9-0.3-1.8-0.4-2.7-0.4c-0.9,0-1.5,0.2-2,0.5c-0.5,0.3-0.7,0.8-0.7,1.4c0,0.6,0.2,1,0.7,1.3
		S730,146.7,730.7,146.7z"/>
	<path class="st5" d="M737.6,147.7c-0.4,0-0.7,0-1.1-0.1l0.2-1.2c0.3,0.1,0.5,0.1,0.7,0.1c0.3,0,0.5,0,0.6-0.1s0.4-0.2,0.5-0.5
		c0.2-0.3,0.4-0.7,0.5-1.2s0.2-1.2,0.3-2.2c0.1-0.9,0.1-2.1,0.1-3.5v-0.8h6.6v9.3h-1.4v-8.1h-3.9v0.2c0,1.4-0.1,2.6-0.2,3.6
		s-0.2,1.8-0.4,2.3c-0.2,0.6-0.4,1-0.7,1.3s-0.6,0.5-0.8,0.6C738.4,147.7,738,147.7,737.6,147.7z"/>
	<path class="st5" d="M749.1,147.6v-9.3h1.4v3.5h2.5c1.1,0,2,0.2,2.6,0.7c0.7,0.5,1,1.2,1,2.1c0,0.9-0.3,1.7-1,2.2
		c-0.6,0.5-1.5,0.8-2.6,0.8H749.1z M750.5,146.4h2.5c0.7,0,1.3-0.2,1.6-0.5c0.4-0.3,0.6-0.7,0.6-1.3c0-0.5-0.2-0.9-0.6-1.2
		c-0.4-0.3-1-0.4-1.7-0.4h-2.5V146.4z"/>
	<path class="st5" d="M758.8,147.6v-9.3h1.4v4h5.4v-4h1.4v9.3h-1.4v-4.1h-5.4v4.1H758.8z"/>
	<path class="st5" d="M770,147.6v-9.3h1.4v3.5h2.5c1.1,0,2,0.2,2.6,0.7c0.7,0.5,1,1.2,1,2.1c0,0.9-0.3,1.7-1,2.2
		c-0.6,0.5-1.5,0.8-2.6,0.8H770z M771.4,146.4h2.5c0.7,0,1.3-0.2,1.6-0.5c0.4-0.3,0.6-0.7,0.6-1.3c0-0.5-0.2-0.9-0.6-1.2
		c-0.4-0.3-1-0.4-1.7-0.4h-2.5V146.4z M779.2,147.6v-9.3h1.4v9.3H779.2z"/>
	<path class="st5" d="M787.8,147.8c-1.3,0-2.4-0.5-3.3-1.4c-0.9-0.9-1.3-2.1-1.3-3.5c0-1.4,0.4-2.5,1.3-3.4c0.9-0.9,1.9-1.4,3.2-1.4
		c1.3,0,2.4,0.5,3.2,1.4s1.2,2.1,1.2,3.5c0,0.2,0,0.3,0,0.5h-7.4c0.1,0.9,0.5,1.7,1.1,2.3s1.4,0.8,2.2,0.8c1.1,0,2.1-0.4,2.9-1.3
		l0.9,0.8C790.5,147.2,789.3,147.8,787.8,147.8z M784.5,142.4h6c-0.1-0.9-0.4-1.6-0.9-2.2c-0.5-0.6-1.2-0.9-2.1-0.9
		c-0.8,0-1.5,0.3-2,0.9C784.9,140.7,784.6,141.5,784.5,142.4z"/>
	<path class="st5" d="M798.4,149.9v-3.5h1c0.8-1.5,1.2-3.7,1.2-6.5v-1.6h6.6v8.1h1.4l-0.2,3.5h-1.2v-2.3h-7.5l-0.3,2.3H798.4z
		 M800.9,146.4h5v-6.9H802v1.3C802,143.2,801.6,145,800.9,146.4z"/>
	<path class="st5" d="M813.3,147.8c-0.9,0-1.8-0.3-2.4-0.8c-0.7-0.5-1-1.2-1-2.2c0-1,0.4-1.7,1.1-2.3c0.7-0.5,1.7-0.8,2.9-0.8
		c1,0,1.9,0.1,2.8,0.4v-0.3c0-0.8-0.2-1.4-0.7-1.9c-0.5-0.4-1.2-0.6-2-0.6c-0.9,0-1.9,0.2-2.8,0.7l-0.4-1.1c1.2-0.5,2.3-0.8,3.4-0.8
		c1.3,0,2.3,0.3,3,1c0.6,0.6,1,1.6,1,2.7v5.7h-1.4v-1.4C815.9,147.3,814.7,147.8,813.3,147.8z M813.6,146.7c0.9,0,1.6-0.2,2.2-0.7
		c0.6-0.5,0.9-1.1,0.9-1.8v-0.9c-0.9-0.3-1.8-0.4-2.7-0.4c-0.9,0-1.5,0.2-2,0.5c-0.5,0.3-0.7,0.8-0.7,1.4c0,0.6,0.2,1,0.7,1.3
		C812.4,146.5,812.9,146.7,813.6,146.7z"/>
	<path class="st5" d="M821,147.6v-9.3h1.4v4h5.4v-4h1.4v9.3h-1.4v-4.1h-5.4v4.1H821z"/>
	<path class="st5" d="M832.2,147.6v-9.3h1.4v4h5.4v-4h1.4v9.3H839v-4.1h-5.4v4.1H832.2z"/>
	<path class="st5" d="M843.4,147.6v-9.3h1.4v3.5h2.5c1.1,0,2,0.2,2.6,0.7c0.7,0.5,1,1.2,1,2.1c0,0.9-0.3,1.7-1,2.2
		c-0.6,0.5-1.5,0.8-2.6,0.8H843.4z M844.8,146.4h2.5c0.7,0,1.3-0.2,1.6-0.5c0.4-0.3,0.6-0.7,0.6-1.3c0-0.5-0.2-0.9-0.6-1.2
		c-0.4-0.3-1-0.4-1.7-0.4h-2.5V146.4z M852.7,147.6v-9.3h1.4v9.3H852.7z"/>
	<path class="st5" d="M861.2,147.8c-1.3,0-2.4-0.5-3.3-1.4c-0.9-0.9-1.3-2.1-1.3-3.5c0-1.4,0.4-2.5,1.3-3.4c0.9-0.9,1.9-1.4,3.2-1.4
		c1.3,0,2.4,0.5,3.2,1.4s1.2,2.1,1.2,3.5c0,0.2,0,0.3,0,0.5H858c0.1,0.9,0.5,1.7,1.1,2.3s1.4,0.8,2.2,0.8c1.1,0,2.1-0.4,2.9-1.3
		l0.9,0.8C864,147.2,862.7,147.8,861.2,147.8z M858,142.4h6c-0.1-0.9-0.4-1.6-0.9-2.2c-0.5-0.6-1.2-0.9-2.1-0.9
		c-0.8,0-1.5,0.3-2,0.9C858.4,140.7,858.1,141.5,858,142.4z"/>
</g>
<g class="st4">
	<path class="st5" d="M589.8,169.2v-9.3h1.4v7.4l5.5-7.4h1.4v9.3h-1.4v-7.4l-5.5,7.4H589.8z"/>
	<path class="st5" d="M605.2,171.5V168h1c0.8-1.5,1.2-3.7,1.2-6.5v-1.6h6.6v8.1h1.4l-0.2,3.5h-1.2v-2.3h-7.5l-0.3,2.3H605.2z
		 M607.7,168h5v-6.9h-3.9v1.3C608.8,164.8,608.4,166.6,607.7,168z"/>
	<path class="st5" d="M620.2,169.4c-0.9,0-1.8-0.3-2.4-0.8c-0.7-0.5-1-1.2-1-2.2c0-1,0.4-1.7,1.1-2.3c0.7-0.5,1.7-0.8,2.9-0.8
		c1,0,1.9,0.1,2.8,0.4v-0.3c0-0.8-0.2-1.4-0.7-1.9c-0.5-0.4-1.2-0.6-2-0.6c-0.9,0-1.9,0.2-2.8,0.7l-0.4-1.1c1.2-0.5,2.3-0.8,3.4-0.8
		c1.3,0,2.3,0.3,3,1c0.6,0.6,1,1.6,1,2.7v5.7h-1.4v-1.4C622.7,168.9,621.6,169.4,620.2,169.4z M620.4,168.3c0.9,0,1.6-0.2,2.2-0.7
		c0.6-0.5,0.9-1.1,0.9-1.8v-0.9c-0.9-0.3-1.8-0.4-2.7-0.4c-0.9,0-1.5,0.2-2,0.5c-0.5,0.3-0.7,0.8-0.7,1.4c0,0.6,0.2,1,0.7,1.4
		S619.8,168.3,620.4,168.3z"/>
	<path class="st5" d="M630.1,169.2v-8.1h-3.3v-1.2h8.1v1.2h-3.3v8.1H630.1z"/>
	<path class="st5" d="M636.8,169.2v-9.3h1.4v3.5h2.5c1.1,0,2,0.2,2.6,0.7c0.7,0.5,1,1.2,1,2.1c0,0.9-0.3,1.7-1,2.2
		c-0.6,0.5-1.5,0.8-2.6,0.8H636.8z M638.2,168h2.5c0.7,0,1.3-0.2,1.6-0.5s0.6-0.7,0.6-1.3c0-0.5-0.2-0.9-0.6-1.2
		c-0.4-0.3-1-0.4-1.7-0.4h-2.5V168z M646,169.2v-9.3h1.4v9.3H646z"/>
	<path class="st5" d="M655.9,169.2v-9.3h8.1v9.3h-1.4v-8.1h-5.3v8.1H655.9z"/>
	<path class="st5" d="M674.8,168c-0.9,1-2.1,1.4-3.5,1.4s-2.5-0.5-3.4-1.4s-1.4-2.1-1.4-3.4c0-1.3,0.5-2.5,1.4-3.4s2.1-1.4,3.5-1.4
		s2.5,0.5,3.5,1.4s1.4,2.1,1.4,3.4C676.2,165.9,675.7,167,674.8,168z M671.4,168.2c1,0,1.8-0.3,2.5-1c0.6-0.7,1-1.6,1-2.6
		c0-1-0.3-1.9-1-2.6s-1.5-1.1-2.5-1.1c-1,0-1.8,0.4-2.4,1.1c-0.6,0.7-1,1.6-1,2.6c0,1,0.3,1.9,1,2.6
		C669.6,167.8,670.4,168.2,671.4,168.2z"/>
	<path class="st5" d="M682.9,169.4c-1.3,0-2.5-0.5-3.4-1.4s-1.4-2.1-1.4-3.4s0.5-2.5,1.4-3.4s2-1.4,3.4-1.4c1.4,0,2.7,0.6,3.7,1.7
		l-0.9,0.9c-0.9-0.9-1.8-1.4-2.9-1.4c-0.9,0-1.7,0.4-2.4,1.1c-0.6,0.7-1,1.6-1,2.6c0,1,0.3,1.9,1,2.6s1.5,1.1,2.4,1.1
		c1,0,1.9-0.5,2.8-1.4l0.9,0.8C685.6,168.8,684.4,169.4,682.9,169.4z"/>
	<path class="st5" d="M691.2,169.2v-8.1h-3.3v-1.2h8.1v1.2h-3.3v8.1H691.2z"/>
	<path class="st5" d="M699.4,172.1c-0.7,0-1.3-0.2-2-0.5l0.5-1.1c0.4,0.2,0.9,0.3,1.5,0.3c0.4,0,0.8-0.1,1.1-0.4
		c0.3-0.3,0.6-0.7,0.8-1.4l-4.2-9.3h1.5l3.4,7.8l3-7.8h1.5l-3.9,9.6c-0.4,0.9-0.8,1.6-1.3,2C700.7,171.9,700.1,172.1,699.4,172.1z"
		/>
	<path class="st5" d="M708.6,169.2v-9.3h8.1v9.3h-1.4v-8.1H710v8.1H708.6z"/>
	<path class="st5" d="M719.3,169.3c-0.4,0-0.7,0-1.1-0.1l0.2-1.2c0.3,0.1,0.5,0.1,0.7,0.1c0.3,0,0.5,0,0.6-0.1
		c0.2-0.1,0.4-0.2,0.5-0.5c0.2-0.3,0.4-0.7,0.5-1.2s0.2-1.2,0.3-2.2c0.1-0.9,0.1-2.1,0.1-3.5v-0.8h6.6v9.3h-1.4v-8.1h-3.9v0.2
		c0,1.4-0.1,2.6-0.2,3.6s-0.2,1.8-0.4,2.3c-0.2,0.6-0.4,1-0.7,1.3c-0.3,0.3-0.6,0.5-0.8,0.6C720.1,169.3,719.7,169.3,719.3,169.3z"
		/>
	<path class="st5" d="M734.9,169.4c-1.3,0-2.4-0.5-3.3-1.4c-0.9-0.9-1.3-2.1-1.3-3.5c0-1.4,0.4-2.5,1.3-3.4c0.9-0.9,1.9-1.4,3.2-1.4
		c1.3,0,2.4,0.5,3.2,1.4c0.8,0.9,1.2,2.1,1.2,3.5c0,0.2,0,0.3,0,0.5h-7.4c0.1,0.9,0.5,1.7,1.1,2.3c0.6,0.6,1.4,0.8,2.2,0.8
		c1.1,0,2.1-0.4,2.9-1.3l0.9,0.8C737.6,168.8,736.4,169.4,734.9,169.4z M731.6,164h6c-0.1-0.9-0.4-1.6-0.9-2.2
		c-0.5-0.6-1.2-0.9-2.1-0.9c-0.8,0-1.5,0.3-2,0.9C732,162.3,731.7,163.1,731.6,164z"/>
	<path class="st5" d="M741.4,169.2v-9.3h1.4v4h5.4v-4h1.4v9.3h-1.4v-4.1h-5.4v4.1H741.4z"/>
	<path class="st5" d="M752.7,169.2v-9.3h1.4v7.4l5.5-7.4h1.3v9.3h-1.4v-7.4l-5.5,7.4H752.7z"/>
	<path class="st5" d="M763.2,169.2l2.8-3.6c-0.7-0.2-1.3-0.5-1.8-1s-0.7-1.1-0.7-1.8c0-0.9,0.3-1.6,0.9-2.1c0.6-0.5,1.5-0.8,2.6-0.8
		h4.4v9.3h-1.4v-3.4h-2.6c-0.1,0.1-0.5,0.6-1.1,1.5c-0.6,0.8-1.1,1.5-1.5,1.9H763.2z M767.2,164.6h2.9v-3.5h-2.9
		c-0.7,0-1.2,0.2-1.6,0.5c-0.4,0.3-0.6,0.7-0.6,1.3c0,0.6,0.2,1,0.6,1.3S766.5,164.6,767.2,164.6z"/>
	<path class="st5" d="M778.6,171.5V168h1c0.8-1.5,1.2-3.7,1.2-6.5v-1.6h6.6v8.1h1.4l-0.2,3.5h-1.2v-2.3H780l-0.3,2.3H778.6z
		 M781.1,168h5v-6.9h-3.9v1.3C782.2,164.8,781.8,166.6,781.1,168z"/>
	<path class="st5" d="M794.8,169.4c-1.3,0-2.4-0.5-3.3-1.4c-0.9-0.9-1.3-2.1-1.3-3.5c0-1.4,0.4-2.5,1.3-3.4c0.9-0.9,1.9-1.4,3.2-1.4
		c1.3,0,2.4,0.5,3.2,1.4c0.8,0.9,1.2,2.1,1.2,3.5c0,0.2,0,0.3,0,0.5h-7.4c0.1,0.9,0.5,1.7,1.1,2.3c0.6,0.6,1.4,0.8,2.2,0.8
		c1.1,0,2.1-0.4,2.9-1.3l0.9,0.8C797.6,168.8,796.3,169.4,794.8,169.4z M791.6,164h6c-0.1-0.9-0.4-1.6-0.9-2.2
		c-0.5-0.6-1.2-0.9-2.1-0.9c-0.8,0-1.5,0.3-2,0.9C792,162.3,791.7,163.1,791.6,164z"/>
	<path class="st5" d="M801.4,169.2v-9.3h1.4v4h5.4v-4h1.4v9.3h-1.4v-4.1h-5.4v4.1H801.4z"/>
	<path class="st5" d="M816.7,169.4c-1.3,0-2.4-0.5-3.3-1.4c-0.9-0.9-1.3-2.1-1.3-3.5c0-1.4,0.4-2.5,1.3-3.4c0.9-0.9,1.9-1.4,3.2-1.4
		c1.3,0,2.4,0.5,3.2,1.4c0.8,0.9,1.2,2.1,1.2,3.5c0,0.2,0,0.3,0,0.5h-7.4c0.1,0.9,0.5,1.7,1.1,2.3c0.6,0.6,1.4,0.8,2.2,0.8
		c1.1,0,2.1-0.4,2.9-1.3l0.9,0.8C819.5,168.8,818.2,169.4,816.7,169.4z M813.5,164h6c-0.1-0.9-0.4-1.6-0.9-2.2
		c-0.5-0.6-1.2-0.9-2.1-0.9c-0.8,0-1.5,0.3-2,0.9C813.9,162.3,813.6,163.1,813.5,164z"/>
	<path class="st5" d="M823.3,169.2v-9.3h6.3v1.2h-4.9v8.1H823.3z"/>
</g>
</svg>
