<svg width="65" height="16" viewBox="0 0 65 16" fill="none" xmlns="http://www.w3.org/2000/svg">
<path d="M17.412 6.84347C17.412 10.623 14.5373 13.6869 10.9911 13.6869C7.44501 13.6869 4.57031 10.623 4.57031 6.84347C4.57031 3.06393 7.44501 0 10.9911 0C14.5373 0 17.412 3.06393 17.412 6.84347ZM7.78072 6.84347C7.78072 8.73325 9.21807 10.2652 10.9911 10.2652C12.7642 10.2652 14.2015 8.73325 14.2015 6.84347C14.2015 4.9537 12.7642 3.42174 10.9911 3.42174C9.21807 3.42174 7.78072 4.9537 7.78072 6.84347Z" fill="white"/>
<path d="M49.0883 6.84347C49.0883 10.623 45.1596 13.6869 40.3132 13.6869C35.4668 13.6869 31.5381 10.623 31.5381 6.84347C31.5381 3.06393 35.4668 0 40.3132 0C45.1596 0 49.0883 3.06393 49.0883 6.84347ZM35.9256 6.84347C35.9256 8.73325 37.89 10.2652 40.3132 10.2652C42.7364 10.2652 44.7008 8.73325 44.7008 6.84347C44.7008 4.9537 42.7364 3.42174 40.3132 3.42174C37.89 3.42174 35.9256 4.9537 35.9256 6.84347Z" fill="#CFB890"/>
<path d="M30.896 0.683838L24.1541 10.2647H29.3978C30.2252 10.2647 30.896 10.9796 30.896 11.8615C30.896 12.7434 30.2252 13.4583 29.3978 13.4583H18.4824L25.0638 3.87746L19.9806 3.87746C19.1532 3.87746 18.4824 3.16254 18.4824 2.28065C18.4824 1.39875 19.1532 0.683838 19.9806 0.683838H30.896Z" fill="white"/>
<path d="M51.0146 0.456604L60.0038 7.64225V2.05341C60.0038 1.17152 60.6746 0.456604 61.502 0.456604C62.3294 0.456604 63.0002 1.17152 63.0002 2.05341V13.6873L54.011 6.67276L54.011 12.0905C54.011 12.9724 53.3403 13.6873 52.5128 13.6873C51.6854 13.6873 51.0146 12.9724 51.0146 12.0905V0.456604Z" fill="white"/>
</svg>
