<svg width="58" height="56" viewBox="0 0 58 56" fill="none" xmlns="http://www.w3.org/2000/svg">
<g clip-path="url(#clip0_63_734)">
<path d="M56.0679 1.68286H14.9249C14.61 1.68283 14.3077 1.80718 14.0836 2.02896C13.8594 2.25075 13.7315 2.55214 13.7273 2.86786V26.6943H2.82306C2.50545 26.6943 2.20084 26.8208 1.97625 27.046C1.75166 27.2712 1.62549 27.5766 1.62549 27.8951V48.1981C1.62965 50.1244 2.39467 51.9706 3.75312 53.3327C5.11157 54.6948 6.95284 55.4619 8.87397 55.4661H50.017C51.9394 55.4661 53.7831 54.7003 55.1425 53.3373C56.5018 51.9743 57.2655 50.1257 57.2655 48.1981V2.86786C57.2613 2.55214 57.1333 2.25075 56.9092 2.02896C56.6851 1.80718 56.3828 1.68283 56.0679 1.68286ZM4.06791 48.1981V29.0801H13.7273V48.1981C13.7273 49.4887 13.216 50.7265 12.3058 51.6391C11.3956 52.5518 10.1612 53.0645 8.87397 53.0645C7.58679 53.0645 6.35233 52.5518 5.44215 51.6391C4.53197 50.7265 4.02064 49.4887 4.02064 48.1981H4.06791ZM54.9176 48.1981C54.9176 49.4902 54.4068 50.7296 53.4971 51.6447C52.5873 52.5599 51.3529 53.0761 50.0643 53.0803H14.2473C15.445 51.7388 16.1021 49.9985 16.0909 48.1981V4.06866H54.8703L54.9176 48.1981Z" fill="white"/>
<path d="M33.8182 15.5079H49.1818C49.3383 15.51 49.4937 15.4809 49.6389 15.4222C49.7841 15.3636 49.9163 15.2767 50.0277 15.1664C50.1391 15.0562 50.2276 14.9248 50.288 14.78C50.3483 14.6352 50.3794 14.4798 50.3794 14.3229C50.3794 14.0044 50.2532 13.699 50.0286 13.4738C49.804 13.2486 49.4994 13.1221 49.1818 13.1221H33.8182C33.5006 13.1221 33.196 13.2486 32.9714 13.4738C32.7468 13.699 32.6206 14.0044 32.6206 14.3229C32.6206 14.4798 32.6517 14.6352 32.712 14.78C32.7724 14.9248 32.8609 15.0562 32.9723 15.1664C33.0837 15.2767 33.2159 15.3636 33.3611 15.4222C33.5063 15.4809 33.6617 15.51 33.8182 15.5079Z" fill="white"/>
<path d="M33.8182 28.685H49.1818C49.4994 28.685 49.804 28.5585 50.0286 28.3333C50.2532 28.1081 50.3794 27.8027 50.3794 27.4842C50.3794 27.1658 50.2532 26.8603 50.0286 26.6352C49.804 26.41 49.4994 26.2834 49.1818 26.2834H33.8182C33.5006 26.2834 33.196 26.41 32.9714 26.6352C32.7468 26.8603 32.6206 27.1658 32.6206 27.4842C32.6206 27.8027 32.7468 28.1081 32.9714 28.3333C33.196 28.5585 33.5006 28.685 33.8182 28.685Z" fill="white"/>
<path d="M33.8182 41.8464H49.1818C49.4994 41.8464 49.804 41.7199 50.0286 41.4947C50.2532 41.2695 50.3794 40.9641 50.3794 40.6456C50.3794 40.3271 50.2532 40.0217 50.0286 39.7965C49.804 39.5713 49.4994 39.4448 49.1818 39.4448H33.8182C33.5006 39.4448 33.196 39.5713 32.9714 39.7965C32.7468 40.0217 32.6206 40.3271 32.6206 40.6456C32.6206 40.9641 32.7468 41.2695 32.9714 41.4947C33.196 41.7199 33.5006 41.8464 33.8182 41.8464Z" fill="white"/>
<path d="M21.7163 46.065L29.9733 37.7858C30.1141 37.5501 30.1724 37.2741 30.1388 37.0014C30.1053 36.7287 29.9818 36.4751 29.7881 36.2809C29.5944 36.0866 29.3414 35.9628 29.0695 35.9292C28.7976 35.8956 28.5223 35.954 28.2872 36.0952L20.0303 44.3744C19.8894 44.61 19.8312 44.8861 19.8647 45.1588C19.8983 45.4314 20.0217 45.685 20.2155 45.8793C20.4092 46.0736 20.6621 46.1973 20.934 46.231C21.206 46.2646 21.4813 46.2062 21.7163 46.065Z" fill="#D0B991"/>
<path d="M21.7163 36.0952C21.4813 35.954 21.206 35.8956 20.934 35.9292C20.6621 35.9628 20.4092 36.0866 20.2155 36.2809C20.0217 36.4751 19.8983 36.7287 19.8647 37.0014C19.8312 37.2741 19.8894 37.5501 20.0303 37.7858L28.2872 46.065C28.5223 46.2062 28.7976 46.2646 29.0695 46.231C29.3414 46.1973 29.5944 46.0736 29.7881 45.8793C29.9818 45.685 30.1053 45.4314 30.1388 45.1588C30.1724 44.8861 30.1141 44.61 29.9733 44.3744L21.7163 36.0952Z" fill="#D0B991"/>
<path d="M22.7877 16.8666C23.0156 17.1023 23.327 17.2386 23.6544 17.2458C23.9832 17.2311 24.2937 17.0896 24.521 16.8508L31.0919 9.64595C31.3041 9.41081 31.4148 9.10109 31.4001 8.78437C31.3853 8.46765 31.2462 8.16963 31.0131 7.95535C30.9031 7.84309 30.7719 7.75392 30.6272 7.69305C30.4825 7.63218 30.3271 7.60083 30.1701 7.60083C30.0132 7.60083 29.8578 7.63218 29.713 7.69305C29.5683 7.75392 29.4371 7.84309 29.3271 7.95535L23.6228 14.2754L21.858 12.3952C21.6337 12.1723 21.3307 12.0472 21.015 12.0472C20.6992 12.0472 20.3962 12.1723 20.1719 12.3952C20.06 12.5054 19.971 12.637 19.9103 12.7821C19.8496 12.9273 19.8184 13.0831 19.8184 13.2405C19.8184 13.3978 19.8496 13.5536 19.9103 13.6988C19.971 13.8439 20.06 13.9755 20.1719 14.0858L22.7877 16.8666Z" fill="#D0B991"/>
<path d="M29.3429 21.7647L23.6386 28.0847L21.8738 26.2045C21.7839 26.0499 21.6607 25.9174 21.5132 25.8167C21.3657 25.716 21.1976 25.6496 21.0212 25.6224C20.8448 25.5952 20.6646 25.6079 20.4937 25.6595C20.3229 25.7111 20.1656 25.8004 20.0336 25.9207C19.9016 26.0411 19.798 26.1895 19.7305 26.3552C19.663 26.5208 19.6333 26.6995 19.6436 26.8782C19.6538 27.0568 19.7037 27.2309 19.7897 27.3877C19.8757 27.5445 19.9955 27.6801 20.1404 27.7845L22.7877 30.6601C23.0156 30.8959 23.327 31.0321 23.6544 31.0393C23.8186 31.0393 23.9809 31.004 24.1304 30.9359C24.2799 30.8678 24.4131 30.7683 24.521 30.6443L31.092 23.4395C31.2465 23.199 31.3104 22.9112 31.2721 22.6277C31.2338 22.3442 31.0958 22.0837 30.883 21.8932C30.6701 21.7027 30.3965 21.5946 30.1112 21.5884C29.826 21.5822 29.5479 21.6784 29.3271 21.8595L29.3429 21.7647Z" fill="#D0B991"/>
</g>
<defs>
<clipPath id="clip0_63_734">
<rect width="57.1048" height="56" fill="white"/>
</clipPath>
</defs>
</svg>
