<svg width="72" height="54" viewBox="0 0 72 54" fill="none" xmlns="http://www.w3.org/2000/svg">
<g clip-path="url(#clip0_63_743)">
<path d="M58.9227 47.7984C58.6124 47.7984 58.3602 47.5465 58.3602 47.2353C58.3602 46.9246 58.6124 46.6722 58.9227 46.6722C59.9272 46.6712 60.7409 45.8567 60.7418 44.8513V13.3307C60.7408 12.3251 59.9271 11.5106 58.9227 11.5101H7.0789C6.07443 11.5106 5.26077 12.3251 5.25987 13.3307V44.85C5.26087 45.8555 6.07448 46.67 7.0789 46.6709C7.38928 46.6709 7.6414 46.9233 7.6414 47.234C7.6414 47.5452 7.38928 47.7971 7.0789 47.7971C6.29843 47.7961 5.55005 47.4854 4.9981 46.9329C4.44614 46.3803 4.13577 45.6313 4.13477 44.8499V13.3305C4.13577 12.5493 4.44615 11.8001 4.9981 11.2475C5.55005 10.6955 6.29834 10.3848 7.0789 10.3838H58.9227C59.7032 10.3848 60.4516 10.6955 61.0035 11.2475C61.5555 11.8001 61.8659 12.5492 61.8669 13.3305V44.8499C61.8664 45.6312 61.556 46.3809 61.004 46.9334C60.4521 47.4859 59.7033 47.7966 58.9227 47.7976L58.9227 47.7984Z" fill="white"/>
<path d="M60.6555 53.9776H5.3441C4.32507 53.9766 3.34778 53.5708 2.62701 52.8494C1.9063 52.1279 1.501 51.1495 1.5 50.1294V47.235C1.5 46.9243 1.75161 46.6719 2.0625 46.6719H63.9375C64.0867 46.6719 64.2298 46.7312 64.3353 46.8368C64.4407 46.9424 64.5 47.0856 64.5 47.235V50.1294C64.499 51.1495 64.0937 52.1278 63.373 52.8494C62.6523 53.5708 61.675 53.9766 60.6559 53.9776H60.6555ZM2.62482 47.798V50.1293C2.62532 50.8508 2.9121 51.5431 3.42186 52.0534C3.93162 52.5637 4.6232 52.8508 5.34387 52.8513H60.6553C61.376 52.8508 62.0675 52.5637 62.5773 52.0534C63.0871 51.5431 63.3739 50.8508 63.3744 50.1293V47.798H2.62482Z" fill="white"/>
<path d="M38.6017 50.3686H27.3989C27.088 50.3686 26.8364 50.1167 26.8364 49.8055V47.2379C26.8364 46.9267 27.088 46.6748 27.3989 46.6748C27.7098 46.6748 27.9614 46.9267 27.9614 47.2379V49.2424H38.0392V47.2379C38.0392 46.9267 38.2909 46.6748 38.6017 46.6748C38.9126 46.6748 39.1642 46.9267 39.1642 47.2379V49.8055C39.1642 49.9548 39.105 50.0981 38.9995 50.2037C38.894 50.3093 38.7509 50.3686 38.6017 50.3686Z" fill="white"/>
<path d="M57.1559 43.1893H8.84521C8.53433 43.1893 8.28271 42.9374 8.28271 42.6262V15.5563C8.28271 15.2455 8.53433 14.9932 8.84521 14.9932H57.1559C57.3051 14.9932 57.4482 15.0525 57.5537 15.1581C57.6592 15.2636 57.7184 15.4069 57.7184 15.5563V42.6262C57.7184 42.7755 57.6592 42.9188 57.5537 43.0244C57.4482 43.1299 57.3051 43.1893 57.1559 43.1893ZM9.40707 42.0631H56.5928V16.1194H9.40707V42.0631Z" fill="white"/>
<g clip-path="url(#clip1_63_743)">
<path d="M66.5667 19.9917C66.2541 19.9626 65.9583 19.8387 65.7139 19.6315L64.8977 18.9391C64.6824 18.7567 64.6556 18.4336 64.8382 18.2182C65.0208 18.0024 65.3432 17.9759 65.5584 18.1587L66.3746 18.851C66.4814 18.9414 66.6169 18.9852 66.7564 18.9734C66.8959 18.962 67.0223 18.8967 67.1129 18.7898L67.7284 18.0623C67.9151 17.8418 67.8879 17.5101 67.6672 17.3232L66.851 16.6309C66.6624 16.4707 66.615 16.1984 66.7391 15.9842C67.3962 14.8483 67.7768 13.6435 67.8707 12.4035C67.8896 12.1511 68.0906 11.9505 68.3429 11.9318L69.4138 11.8529C69.5541 11.8428 69.6821 11.7779 69.7736 11.6705C69.8652 11.5634 69.909 11.4271 69.8973 11.2866L69.8193 10.344C69.7958 10.0583 69.5445 9.8434 69.2587 9.86419L68.1693 9.94437C67.9241 9.96251 67.7 9.80278 67.6376 9.5642C67.3049 8.29818 66.7276 7.17905 65.9208 6.23827C65.7574 6.04748 65.7563 5.7663 65.9187 5.57436L66.61 4.75726C66.7006 4.65039 66.7441 4.51467 66.7326 4.37505C66.7212 4.23543 66.656 4.10854 66.5492 4.01815L65.8225 3.40205C65.6022 3.21513 65.2709 3.24268 65.0841 3.46325L64.3928 4.28034C64.2305 4.47228 63.9531 4.5174 63.7382 4.38727C62.6801 3.7464 61.4848 3.36003 60.1847 3.2389L60.1786 3.23834C59.9317 3.21534 59.7371 3.01827 59.7167 2.77107L59.629 1.70954C59.6175 1.56992 59.5523 1.44303 59.4456 1.35264C59.3388 1.26195 59.2032 1.21842 59.0637 1.2302L58.1222 1.30826C57.9827 1.31973 57.8559 1.385 57.7653 1.49186C57.6747 1.59873 57.6313 1.73446 57.643 1.8741L57.7307 2.93564C57.7511 3.18314 57.5913 3.40959 57.3514 3.47257C56.0864 3.80555 54.9684 4.3841 54.029 5.19116C53.8384 5.35508 53.5573 5.3558 53.3658 5.19329L52.5496 4.50095C52.3293 4.31403 51.998 4.34158 51.8113 4.56215L51.1958 5.28961C51.1052 5.39648 51.0617 5.5322 51.0735 5.67185C51.085 5.81147 51.1502 5.93836 51.2569 6.02875L52.0726 6.72043C52.2878 6.9029 52.3146 7.22594 52.132 7.44138C51.9498 7.65685 51.6271 7.68367 51.4119 7.50091L50.5957 6.80856C50.2805 6.54123 50.0882 6.1673 50.0541 5.75516C50.02 5.34305 50.1483 4.94241 50.4153 4.62715L51.0308 3.89969C51.582 3.24849 52.5596 3.16768 53.2099 3.71917L53.7018 4.13631C54.5769 3.45564 55.5747 2.94024 56.6773 2.59979L56.624 1.95711C56.5899 1.54499 56.7182 1.14436 56.9852 0.829103C57.2522 0.513558 57.6261 0.321137 58.0374 0.287278L58.979 0.209223C59.3903 0.175364 59.7909 0.303521 60.1058 0.570816C60.4207 0.838116 60.6133 1.21207 60.6474 1.62421L60.7003 2.26687C61.8437 2.4214 62.9122 2.76534 63.8873 3.29295L64.304 2.80049C64.8549 2.14926 65.8322 2.06842 66.4831 2.61997L67.2098 3.23608C67.525 3.5034 67.7172 3.87763 67.7513 4.28947C67.7854 4.70159 67.6572 5.10222 67.3901 5.41779L66.9734 5.91025C67.6545 6.78763 68.1695 7.78773 68.5092 8.89264L69.1839 8.84294C70.0265 8.78075 70.7685 9.41603 70.8384 10.2587L70.9164 11.2013C70.9508 11.6159 70.8209 12.0182 70.5507 12.3344C70.2806 12.6505 69.9035 12.8417 69.4891 12.8723L68.8461 12.9197C68.7084 14.0227 68.3682 15.0957 67.8312 16.1199L68.3282 16.5414C68.9787 17.0933 69.0595 18.0716 68.5085 18.7229L67.8931 19.4503C67.626 19.7659 67.2525 19.9583 66.8408 19.9924C66.7487 20.0004 66.6571 20.0001 66.5668 19.9917L66.5667 19.9917Z" fill="#D0B991"/>
<path d="M63.3476 15.2616C63.2534 15.2528 63.1604 15.2178 63.0804 15.155C62.8582 14.9808 62.8191 14.6594 62.9928 14.4367C64.4298 12.5996 64.209 9.92661 62.4902 8.35097C61.58 7.5165 60.4005 7.09986 59.1687 7.17779C57.936 7.25593 56.8184 7.81707 56.0224 8.75775C55.8398 8.9735 55.5174 9.00005 55.3022 8.81728C55.087 8.63482 55.0602 8.31178 55.2428 8.09634C56.2203 6.94135 57.5917 6.25245 59.1044 6.15668C60.6159 6.06108 62.0637 6.57217 63.1808 7.59626C65.2907 9.53037 65.5619 12.8121 63.7982 15.0675C63.6865 15.21 63.515 15.2773 63.3475 15.2616L63.3476 15.2616Z" fill="#D0B991"/>
</g>
<g clip-path="url(#clip2_63_743)">
<path d="M-21.0208 223.119L-36.3919 223.117C-49.2213 223.116 -59.6538 212.669 -59.655 199.83L-59.6561 187.945C-78.6347 183.867 -96.0364 176.588 -111.526 166.249L-119.791 174.671C-124.202 179.165 -130.094 181.638 -136.387 181.638C-142.602 181.637 -148.443 179.214 -152.836 174.816L-163.616 164.021C-172.605 155.023 -172.672 140.317 -163.768 131.238L-155.171 122.476C-165.761 106.205 -172.954 88.7735 -176.61 70.5218L-188.393 70.5207C-201.222 70.5195 -211.655 60.0722 -211.656 47.2336L-211.657 31.8467C-211.659 19.0081 -201.224 8.5627 -188.398 8.56386L-176.616 8.56494C-172.967 -9.67111 -165.784 -27.0854 -155.213 -43.3428L-163.53 -51.6681C-172.6 -60.7478 -172.602 -75.5212 -163.533 -84.6031L-152.751 -95.3966C-148.359 -99.793 -142.514 -102.216 -136.303 -102.215C-130.087 -102.214 -124.247 -99.7908 -119.854 -95.3936L-111.537 -87.0683C-95.3001 -97.6503 -77.8997 -104.836 -59.6824 -108.493L-59.6835 -120.288C-59.6847 -133.13 -49.25 -143.572 -36.4246 -143.571L-21.0535 -143.569C-8.22412 -143.568 2.20847 -133.121 2.20964 -120.282L2.21071 -108.487C20.4477 -104.823 37.8573 -97.6261 54.1119 -87.0262L62.8644 -95.6314C67.2407 -99.934 73.0306 -102.302 79.1645 -102.301C85.3801 -102.301 91.2205 -99.8771 95.6136 -95.4799L106.394 -84.6884C110.818 -80.2638 113.239 -74.3775 113.208 -68.1173C113.182 -61.8563 110.711 -55.9943 106.249 -51.6094L97.8358 -43.3364C108.164 -27.8315 115.435 -10.4119 119.509 8.58724L131.382 8.58832C144.212 8.58949 154.644 19.0368 154.645 31.8754L154.647 47.2623C154.648 60.1009 144.213 70.5463 131.388 70.5452L119.515 70.5441C115.441 89.5575 108.161 106.992 97.8199 122.507L106.519 131.215C110.916 135.616 113.333 141.463 113.334 147.681C113.334 153.903 110.914 159.749 106.522 164.146L95.7439 174.936C91.3481 179.336 85.5077 181.755 79.2959 181.754C73.0803 181.754 67.2399 179.33 62.8468 174.933L54.1474 166.224C38.6483 176.576 21.2319 183.863 2.23809 187.942L2.23917 199.827C2.24034 212.673 -8.19434 223.119 -21.0197 223.118L-21.0208 223.119ZM-112.328 151.124C-110.985 151.125 -109.638 151.535 -108.479 152.375C-92.041 164.305 -73.015 172.284 -51.9356 176.084C-48.8121 176.647 -46.5396 179.371 -46.5393 182.545L-46.5378 199.827C-46.5373 205.427 -41.9845 209.98 -36.3941 209.981L-21.023 209.982C-15.4282 209.983 -10.8806 205.426 -10.8811 199.83L-10.8827 182.548C-10.883 179.37 -8.61102 176.651 -5.48768 176.088C15.5911 172.291 34.6156 164.316 51.0511 152.39C53.659 150.495 57.2586 150.78 59.5389 153.063L72.1156 165.653C74.0328 167.572 76.5784 168.627 79.288 168.628C81.9975 168.628 84.5469 167.573 86.4637 165.654L97.2422 154.864C99.159 152.946 100.213 150.398 100.213 147.685C100.212 144.973 99.158 142.421 97.2409 140.505L84.6642 127.912C82.384 125.629 82.0986 122.03 83.9919 119.415C95.9063 102.963 103.873 83.9187 107.666 62.8182C108.227 59.6916 110.949 57.4174 114.119 57.4176L131.383 57.4192C136.978 57.4197 141.525 52.8631 141.525 47.2669L141.523 31.88C141.523 26.2833 136.97 21.7264 131.38 21.7258L114.116 21.7243C110.941 21.724 108.224 19.4492 107.661 16.3225C103.864 -4.78269 95.8937 -23.8242 83.9774 -40.2787C82.0719 -42.9092 82.376 -46.5399 84.6911 -48.8183L97.0546 -60.9714C98.9987 -62.8824 100.076 -65.4422 100.088 -68.1701C100.099 -70.8981 99.0446 -73.4659 97.1157 -75.3968L86.3353 -86.1883C84.4181 -88.1075 81.8725 -89.163 79.159 -89.1632C76.4846 -89.1635 73.9587 -88.132 72.0497 -86.2522L59.4713 -73.888C57.2187 -71.6722 53.7011 -71.3794 51.1123 -73.193C33.6082 -85.4589 14.5983 -93.3047 -5.3957 -96.5072C-8.5777 -97.0156 -10.9204 -99.7672 -10.9207 -102.992L-10.9223 -120.273C-10.9228 -125.874 -15.4756 -130.427 -21.066 -130.428L-36.4371 -130.429C-42.0319 -130.429 -46.5795 -125.873 -46.579 -120.277L-46.5774 -102.995C-46.5771 -99.7704 -48.9154 -97.0192 -52.1012 -96.5115C-72.0906 -93.3085 -91.1001 -85.4703 -108.601 -73.2076C-111.209 -71.3788 -114.75 -71.6918 -117.003 -73.9431L-129.146 -86.0985C-131.063 -88.0177 -133.609 -89.0731 -136.318 -89.0734C-139.028 -89.0736 -141.577 -88.0186 -143.49 -86.0998L-154.272 -75.3062C-158.227 -71.3476 -158.227 -64.9033 -154.271 -60.9439L-142.128 -48.7885C-139.875 -46.5332 -139.567 -42.9923 -141.394 -40.3818C-153.644 -22.8579 -161.478 -3.82985 -164.673 16.1801C-165.181 19.3653 -167.929 21.71 -171.15 21.7097L-188.399 21.6925C-193.994 21.692 -198.542 26.2486 -198.541 31.8448L-198.54 47.2317C-198.539 52.8284 -193.986 57.3853 -188.396 57.3858L-171.132 57.3874C-167.911 57.3877 -165.162 59.733 -164.654 62.9182C-161.455 82.9247 -153.621 101.959 -141.364 119.484C-139.552 122.076 -139.845 125.593 -142.058 127.852L-154.41 140.439C-158.294 144.398 -158.266 150.811 -154.342 154.736L-143.562 165.527C-141.644 167.446 -139.099 168.502 -136.389 168.502C-133.645 168.502 -131.072 167.424 -129.151 165.462L-117.01 153.086C-115.738 151.788 -114.039 151.124 -112.329 151.124L-112.328 151.124Z" fill="black"/>
<path d="M-28.7158 126.988C-76.875 126.984 -116.061 87.7572 -116.066 39.5484C-116.07 -9.80094 -75.021 -49.7317 -25.2925 -47.8082C19.9734 -46.0532 56.8018 -9.18687 58.551 36.1216C59.4785 60.114 50.8326 82.8519 34.2063 100.148C17.5685 117.461 -4.77913 126.991 -28.7158 126.988ZM-28.7344 -34.7348C-69.6624 -34.7385 -102.955 -1.41242 -102.951 39.5586C-102.948 80.5287 -69.6458 113.862 -28.7209 113.866C-8.37938 113.867 10.6101 105.767 24.7495 91.0537C38.8779 76.3525 46.2273 57.0262 45.4409 36.6366C43.9498 -1.86329 12.6584 -33.1872 -25.8019 -34.6795C-26.7819 -34.7187 -27.7618 -34.7344 -28.734 -34.7345L-28.7344 -34.7348Z" fill="black"/>
</g>
<path d="M37.7884 26.548C36.1645 26.3011 35.2388 27.3802 34.14 28.2284C33.5067 28.7169 32.8518 29.1839 32.2239 29.6779C31.8234 29.9892 31.4065 30.2738 31.0114 30.5852C30.2319 31.1811 29.5877 31.9756 28.4726 31.879C27.9869 31.8413 27.5282 31.6422 27.1706 31.3139C26.813 30.9857 26.5776 30.5473 26.5024 30.0697C26.3916 29.3907 26.6156 28.7001 27.1047 28.2125C27.5938 27.7248 28.2888 27.4989 28.974 27.6052C29.6593 27.7114 30.2517 28.1367 30.5676 28.7492C30.6385 28.8931 30.7705 28.9982 30.9276 29.0356C31.0847 29.0729 31.2505 29.0388 31.3795 28.9423C31.4822 28.8663 31.5542 28.7566 31.583 28.6327C31.6117 28.5089 31.5953 28.3789 31.5364 28.266C31.2432 27.6904 30.7826 27.2155 30.2143 26.9025C29.6458 26.5895 28.9957 26.4529 28.3482 26.5104C27.5548 26.5963 26.8201 26.9657 26.2812 27.5495C25.7423 28.1334 25.4361 28.8919 25.4198 29.6833C25.4068 30.5459 25.7431 31.3776 26.3536 31.9923C26.9642 32.6069 27.7978 32.9529 28.6676 32.9528C29.6302 32.8931 30.5381 32.4886 31.2226 31.8146C31.8396 31.3153 32.4621 30.8374 33.09 30.365C33.8208 29.8282 34.6165 29.2591 35.331 28.6579C36.0455 28.0565 36.5921 27.4768 37.5828 27.5842C38.0618 27.6426 38.5083 27.8556 38.8535 28.1902C39.1987 28.5247 39.4236 28.9626 39.4935 29.4363C39.5864 30.106 39.356 30.7799 38.8715 31.2553C38.3871 31.7308 37.7053 31.9524 37.0311 31.8533C36.3569 31.7542 35.7692 31.346 35.4447 30.7516C35.3722 30.6059 35.2371 30.5006 35.0772 30.4651C34.9174 30.4296 34.7499 30.4679 34.6218 30.5691C34.5174 30.6464 34.4446 30.7585 34.4168 30.8847C34.3889 31.0108 34.408 31.1428 34.4703 31.2563C34.9545 32.1525 35.8369 32.7693 36.8507 32.9203C37.8644 33.0713 38.8906 32.7386 39.6188 32.0231C40.347 31.3074 40.6918 30.2928 40.549 29.286C40.4438 28.5971 40.119 27.9598 39.6223 27.4672C39.1256 26.9745 38.4829 26.6524 37.7884 26.548L37.7884 26.548Z" fill="#D0B991"/>
</g>
<defs>
<clipPath id="clip0_63_743">
<rect width="72" height="54" fill="white"/>
</clipPath>
<clipPath id="clip1_63_743">
<rect width="21.3219" height="20.5284" fill="white" transform="matrix(0.995688 0.0927647 -0.0925694 0.995706 50.792 -0.98584)"/>
</clipPath>
<clipPath id="clip2_63_743">
<rect width="8.74281" height="8.74443" fill="white" transform="matrix(0.765934 0.642919 -0.642118 0.766606 22.3247 18.7476)"/>
</clipPath>
</defs>
</svg>
