<svg width="60" height="65" viewBox="0 0 60 65" fill="none" xmlns="http://www.w3.org/2000/svg">
<path d="M58.054 2.45389H2.27026V39.1399H6.91891C6.89586 39.4477 6.89586 39.7569 6.91891 40.0647C7.01632 41.6986 7.72114 43.233 8.88954 44.3547C10.0579 45.4765 11.6018 46.1011 13.2062 46.1011C14.8106 46.1011 16.3545 45.4765 17.5229 44.3547C18.6913 43.233 19.3961 41.6986 19.4935 40.0647C19.5166 39.7569 19.5166 39.4477 19.4935 39.1399H41.2259C41.2029 39.4477 41.2029 39.7569 41.2259 40.0647C41.3233 41.6986 42.0282 43.233 43.1966 44.3547C44.3649 45.4765 45.9089 46.1011 47.5132 46.1011C49.1176 46.1011 50.6615 45.4765 51.8299 44.3547C52.9983 43.233 53.7031 41.6986 53.8005 40.0647C53.8236 39.7569 53.8236 39.4477 53.8005 39.1399H58.4492L58.054 2.45389ZM56.2411 4.27989V9.7816H4.08324V4.27989H56.2411ZM13.1016 44.5942C12.2078 44.5989 11.3328 44.3324 10.5877 43.8287C9.84265 43.325 9.2611 42.6067 8.91693 41.7651C8.57276 40.9235 8.48151 39.9966 8.65476 39.1019C8.828 38.2073 9.25793 37.3854 9.88995 36.7406C10.522 36.0957 11.3276 35.6571 12.2044 35.4803C13.0813 35.3036 13.9898 35.3967 14.8147 35.7478C15.6396 36.099 16.3436 36.6923 16.8373 37.4525C17.331 38.2127 17.5922 39.1054 17.5876 40.0173C17.5906 40.6235 17.4762 41.2243 17.251 41.7852C17.0258 42.3461 16.6941 42.856 16.2751 43.2857C15.8561 43.7155 15.3579 44.0565 14.8093 44.2891C14.2607 44.5218 13.6725 44.6416 13.0784 44.6416L13.1016 44.5942ZM47.2692 44.5942C46.3754 44.5989 45.5004 44.3324 44.7553 43.8287C44.0102 43.325 43.4287 42.6067 43.0845 41.7651C42.7403 40.9235 42.6491 39.9966 42.8223 39.1019C42.9956 38.2073 43.4255 37.3854 44.0575 36.7406C44.6895 36.0957 45.4951 35.6571 46.372 35.4803C47.2488 35.3036 48.1574 35.3967 48.9823 35.7478C49.8072 36.099 50.5112 36.6923 51.0049 37.4525C51.4986 38.2127 51.7597 39.1054 51.7551 40.0173C51.7582 40.6235 51.6438 41.2243 51.4186 41.7852C51.1933 42.3461 50.8617 42.856 50.4427 43.2857C50.0236 43.7155 49.5255 44.0565 48.9769 44.2891C48.4283 44.5218 47.84 44.6416 47.2459 44.6416L47.2692 44.5942ZM52.9405 37.2665C52.4345 36.1645 51.6313 35.2325 50.6248 34.5796C49.6183 33.9266 48.4503 33.5799 47.2576 33.5799C46.0648 33.5799 44.8968 33.9266 43.8903 34.5796C42.8839 35.2325 42.0806 36.1645 41.5746 37.2665H18.7497C18.2437 36.1645 17.4405 35.2325 16.434 34.5796C15.4275 33.9266 14.2595 33.5799 13.0667 33.5799C11.874 33.5799 10.706 33.9266 9.69953 34.5796C8.69304 35.2325 7.88976 36.1645 7.38378 37.2665H4.08324V11.6076H56.2178V37.3139L52.9405 37.2665Z" fill="white"/>
<path d="M7.66278 6.10599H5.87305V7.93199H7.66278V6.10599Z" fill="#D0B991"/>
<path d="M11.2658 6.10599H9.47607V7.93199H11.2658V6.10599Z" fill="#D0B991"/>
<path d="M14.8679 6.10599H13.0781V7.93199H14.8679V6.10599Z" fill="#D0B991"/>
<path d="M4.08291 55.6452V59.3209H22.0499V55.6452C22.1119 54.4023 21.9255 53.1596 21.502 51.9925C21.0785 50.8255 20.4268 49.7585 19.5866 48.8564C18.7463 47.9544 17.7349 47.2361 16.6141 46.7453C15.4932 46.2545 14.2862 46.0014 13.0664 46.0014C11.8467 46.0014 10.6397 46.2545 9.5188 46.7453C8.39792 47.2361 7.38659 47.9544 6.5463 48.8564C5.70601 49.7585 5.05431 50.8255 4.63083 51.9925C4.20735 53.1596 4.02093 54.4023 4.08291 55.6452ZM13.078 48.3175C14.981 48.3237 16.8042 49.0978 18.1498 50.4706C19.4954 51.8435 20.2541 53.7037 20.2602 55.6452V57.4001H18.5402V53.8192H16.7272V57.4001H9.47535V53.8192H7.66237V57.4001H5.87264V55.5503C5.90314 53.6212 6.67572 51.7817 8.02371 50.4286C9.37169 49.0755 11.187 48.3172 13.078 48.3175Z" fill="white"/>
<path d="M38.2509 55.6452V59.3209H56.2179V55.6452C56.2799 54.4023 56.0935 53.1596 55.67 51.9925C55.2465 50.8255 54.5948 49.7585 53.7545 48.8564C52.9142 47.9544 51.9029 47.2361 50.782 46.7453C49.6611 46.2545 48.4541 46.0014 47.2344 46.0014C46.0146 46.0014 44.8076 46.2545 43.6868 46.7453C42.5659 47.2361 41.5546 47.9544 40.7143 48.8564C39.874 49.7585 39.2223 50.8255 38.7988 51.9925C38.3753 53.1596 38.1889 54.4023 38.2509 55.6452ZM47.246 48.3175C49.149 48.3237 50.9722 49.0978 52.3178 50.4706C53.6634 51.8435 54.4221 53.7037 54.4282 55.6452V57.4001H52.6385V53.8192H50.8255V57.4001H43.6433V53.8192H41.7839V57.4001H39.9941V55.5503C40.0247 53.613 40.8037 51.7663 42.1617 50.4119C43.5197 49.0574 45.347 48.3047 47.246 48.3175Z" fill="white"/>
<path d="M30.1623 18.9593C28.9155 18.9546 27.6954 19.3275 26.6565 20.0308C25.6175 20.7341 24.8066 21.7361 24.3263 22.91C23.8459 24.0839 23.7179 25.3768 23.9583 26.625C24.1987 27.8732 24.7968 29.0205 25.6768 29.9217C26.5568 30.8228 27.6791 31.4372 28.9016 31.6871C30.1241 31.937 31.3918 31.8112 32.5441 31.3255C33.6964 30.8397 34.6816 30.0161 35.3747 28.9587C36.0679 27.9014 36.4379 26.6579 36.4379 25.3858C36.4379 23.6855 35.7775 22.0545 34.6012 20.8499C33.425 19.6454 31.8288 18.9655 30.1623 18.9593ZM30.1623 29.9627C29.2685 29.9674 28.3935 29.701 27.6484 29.1973C26.9033 28.6935 26.3217 27.9753 25.9776 27.1337C25.6334 26.2921 25.5421 25.3651 25.7154 24.4705C25.8886 23.5758 26.3186 22.7539 26.9506 22.1091C27.5826 21.4643 28.3882 21.0256 29.2651 20.8489C30.1419 20.6721 31.0505 20.7652 31.8754 21.1164C32.7003 21.4675 33.4043 22.0608 33.898 22.821C34.3917 23.5812 34.6528 24.4739 34.6482 25.3858C34.6421 26.5978 34.1675 27.7583 33.3275 28.6153C32.4876 29.4723 31.3501 29.9565 30.1623 29.9627Z" fill="#D0B991"/>
<path d="M41.156 29.346L39.4592 28.7532C38.7201 30.8616 37.3138 32.6589 35.4623 33.8613C33.6108 35.0638 31.4195 35.6028 29.2343 35.3935C27.0491 35.1841 24.9945 34.2383 23.3948 32.7052C21.795 31.1721 20.7412 29.1391 20.3998 26.9272L22.5614 28.0417L23.3517 26.3817L19.1911 24.2L16.03 27.4014L17.3084 28.7057L18.6565 27.3303C19.0582 29.954 20.3115 32.3642 22.2156 34.1747C24.1198 35.9852 26.5644 37.0911 29.1579 37.3152C31.7514 37.5394 34.3436 36.8688 36.5191 35.4109C38.6946 33.953 40.3274 31.7923 41.156 29.2749V29.346Z" fill="white"/>
<path d="M41.7839 23.3463C41.3917 20.7123 40.1414 18.29 38.2347 16.4697C36.328 14.6494 33.8761 13.5372 31.2742 13.3126C28.6722 13.088 26.0719 13.7639 23.8926 15.2314C21.7132 16.6989 20.0817 18.8725 19.2612 21.4017L20.958 22.0183C21.6878 19.8985 23.091 18.0883 24.9446 16.8753C26.7981 15.6623 28.9958 15.1159 31.1886 15.323C33.3813 15.5301 35.4434 16.4788 37.0472 18.0183C38.651 19.5579 39.7046 21.6001 40.0407 23.8205L37.8558 22.7297L37.0655 24.366L41.2261 26.5003L44.3872 23.2751L43.132 21.9708L41.7839 23.3463Z" fill="white"/>
<path d="M21.1669 59.7714V63.4472H39.1339V59.7714C39.1959 58.5286 39.0095 57.2858 38.586 56.1188C38.1625 54.9517 37.5108 53.8847 36.6705 52.9827C35.8302 52.0806 34.8189 51.3624 33.698 50.8716C32.5772 50.3808 31.3702 50.1277 30.1504 50.1277C28.9307 50.1277 27.7237 50.3808 26.6028 50.8716C25.4819 51.3624 24.4706 52.0806 23.6303 52.9827C22.79 53.8847 22.1383 54.9517 21.7148 56.1188C21.2913 57.2858 21.1049 58.5286 21.1669 59.7714ZM30.162 52.4912C32.057 52.4973 33.8733 53.2648 35.2175 54.6275C36.5618 55.9901 37.3259 57.8382 37.3442 59.7714V61.6212H35.5545V57.9929H33.7415V61.6686H26.5593V57.9929H24.7464V61.6686H22.9566V59.7714C22.975 57.8341 23.7422 55.9824 25.0915 54.6191C26.4408 53.2558 28.2631 52.4911 30.162 52.4912Z" fill="white"/>
<path d="M30.1623 50.7364C28.9247 50.7364 27.7149 50.3617 26.6862 49.6597C25.6575 48.9577 24.8562 47.96 24.3836 46.793C23.9111 45.626 23.7886 44.3421 24.0318 43.104C24.2749 41.866 24.8727 40.7294 25.7494 39.8382C26.6262 38.947 27.7424 38.3413 28.9568 38.0978C30.1712 37.8544 31.4291 37.9841 32.5712 38.4706C33.7132 38.957 34.6881 39.7784 35.3723 40.8305C36.0565 41.8827 36.4193 43.1183 36.4147 44.381C36.4147 45.2176 36.2529 46.046 35.9384 46.8186C35.6239 47.5912 35.1629 48.2929 34.582 48.8834C34.0011 49.4738 33.3117 49.9415 32.5533 50.2595C31.7948 50.5775 30.9823 50.7396 30.1623 50.7364ZM30.1623 39.8516C29.2843 39.8516 28.4259 40.1172 27.6959 40.6149C26.9658 41.1126 26.3968 41.82 26.0608 42.6477C25.7248 43.4753 25.6368 44.386 25.8081 45.2647C25.9794 46.1433 26.4023 46.9504 27.0231 47.5838C27.644 48.2173 28.435 48.6486 29.2962 48.8234C30.1574 48.9982 31.05 48.9085 31.8612 48.5657C32.6724 48.2228 33.3658 47.6423 33.8536 46.8974C34.3414 46.1526 34.6018 45.2768 34.6018 44.381C34.6018 43.1797 34.134 42.0277 33.3015 41.1782C32.4689 40.3288 31.3397 39.8516 30.1623 39.8516Z" fill="white"/>
</svg>
