<svg width="58" height="59" viewBox="0 0 58 59" fill="none" xmlns="http://www.w3.org/2000/svg">
<path d="M34.0774 24.5399C33.5904 25.1462 33.3469 25.9132 33.3949 26.6903C33.4428 27.4675 33.7788 28.1985 34.3366 28.7399L35.852 30.1399C36.444 30.719 37.2383 31.0431 38.0652 31.0431C38.8921 31.0431 39.6863 30.719 40.2784 30.1399L46.918 23.5599C47.5076 22.9483 47.8372 22.1307 47.8372 21.2799C47.8372 20.4291 47.5076 19.6116 46.918 18.9999L45.4026 17.5799C44.8301 17.0399 44.081 16.7278 43.2955 16.702C42.5101 16.6763 41.7422 16.9386 41.1357 17.4399L32.0836 8.55991C32.5781 7.94681 32.8326 7.17384 32.7996 6.38592C32.7666 5.59799 32.4482 4.8492 31.9041 4.27991L30.3888 2.85991C29.7919 2.29009 28.9995 1.97229 28.1756 1.97229C27.3516 1.97229 26.5592 2.29009 25.9624 2.85991L19.3427 9.45991C19.0461 9.75217 18.8105 10.1008 18.6497 10.4854C18.4888 10.87 18.406 11.2829 18.406 11.6999C18.406 12.117 18.4888 12.5298 18.6497 12.9144C18.8105 13.299 19.0461 13.6476 19.3427 13.9399L20.858 15.3399C21.3969 15.8792 22.1131 16.203 22.8728 16.2509C23.6325 16.2987 24.3835 16.0673 24.9854 15.5999L26.6602 17.2199L1.05884 42.8199L6.64169 48.4599L32.3228 22.7999L34.0774 24.5399ZM42.5913 19.1999C42.6783 19.1139 42.7829 19.0481 42.898 19.007C43.013 18.9659 43.1356 18.9505 43.2572 18.962C43.3787 18.9734 43.4964 19.0114 43.6018 19.0732C43.7072 19.135 43.7978 19.2192 43.8674 19.3199L45.3827 20.7399C45.5158 20.8841 45.5898 21.0734 45.5898 21.2699C45.5898 21.4664 45.5158 21.6557 45.3827 21.7999L38.763 28.3999C38.5897 28.5616 38.3617 28.6514 38.125 28.6514C37.8883 28.6514 37.6603 28.5616 37.487 28.3999L35.9517 26.9999C35.8727 26.9234 35.8098 26.8318 35.7669 26.7304C35.724 26.629 35.7019 26.52 35.7019 26.4099C35.7019 26.2998 35.724 26.1908 35.7669 26.0894C35.8098 25.988 35.8727 25.8964 35.9517 25.8199L42.5913 19.1999ZM39.5606 18.9999L35.5728 22.9999L26.6403 14.0799L30.628 10.0799L39.5606 18.9999ZM23.7691 13.5999C23.5957 13.7616 23.3678 13.8514 23.131 13.8514C22.8943 13.8514 22.6664 13.7616 22.493 13.5999L20.9976 12.1799C20.9132 12.1067 20.8455 12.0161 20.7991 11.9143C20.7526 11.8125 20.7286 11.7019 20.7286 11.5899C20.7286 11.478 20.7526 11.3673 20.7991 11.2655C20.8455 11.1637 20.9132 11.0731 20.9976 10.9999L27.6173 4.39991C27.7071 4.31811 27.8133 4.25637 27.9287 4.21877C28.0441 4.18117 28.1661 4.16857 28.2867 4.1818C28.4073 4.19504 28.5238 4.2338 28.6284 4.29553C28.7329 4.35727 28.8233 4.44056 28.8933 4.53991L30.4286 5.93991C30.5576 6.08616 30.6288 6.27466 30.6288 6.46991C30.6288 6.66515 30.5576 6.85366 30.4286 6.99991L23.7691 13.5999ZM6.68157 45.1799L4.2291 42.8199L28.2752 18.8199L30.6878 21.1999L6.68157 45.1799Z" fill="#D0B991"/>
<path d="M50.766 48.2401V42.0001H29.7107V48.2401H24.8257V56.8401H55.651V48.2401H50.766ZM32.0435 44.2401H48.5528V48.2401H32.0435V44.2401ZM53.4577 54.4801H27.1585V50.6001H53.4577V54.4801Z" fill="white"/>
</svg>
