<svg width="57" height="49" viewBox="0 0 57 49" fill="none" xmlns="http://www.w3.org/2000/svg">
<path d="M34.0164 23.0533C34.0026 24.5959 34.4483 26.1077 35.2967 27.3962C36.1451 28.6846 37.3579 29.6914 38.7805 30.2881C40.2031 30.8849 41.7711 31.0446 43.2849 30.747C44.7986 30.4495 46.1895 29.708 47.2803 28.6172C48.3712 27.5263 49.1126 26.1354 49.4102 24.6217C49.7078 23.108 49.548 21.54 48.9513 20.1173C48.3545 18.6947 47.3478 17.482 46.0593 16.6336C44.7709 15.7851 43.2591 15.3394 41.7164 15.3533C39.6818 15.3775 37.7373 16.1965 36.2985 17.6353C34.8597 19.0742 34.0407 21.0186 34.0164 23.0533ZM41.7164 17.1266C42.9083 17.1128 44.0773 17.4545 45.0741 18.108C46.0709 18.7616 46.8503 19.6974 47.3128 20.7959C47.7753 21.8945 47.9 23.106 47.6708 24.2757C47.4417 25.4454 46.8691 26.5203 46.0263 27.3632C45.1835 28.206 44.1086 28.7785 42.9388 29.0077C41.7691 29.2368 40.5576 29.1122 39.4591 28.6497C38.3605 28.1871 37.4247 27.4077 36.7712 26.4109C36.1176 25.4141 35.7759 24.2452 35.7898 23.0533C35.8138 21.4889 36.446 19.9954 37.5523 18.8891C38.6586 17.7828 40.1521 17.1507 41.7164 17.1266Z" fill="#D0B991" stroke="#5F544D" stroke-width="0.05" stroke-miterlimit="10"/>
<path d="M41.7166 27.3461C42.433 27.353 43.1393 27.1765 43.7682 26.8335C44.3972 26.4904 44.9279 25.9922 45.3099 25.3861C45.3757 25.2916 45.4218 25.1849 45.4457 25.0722C45.4695 24.9596 45.4706 24.8433 45.4489 24.7303C45.4271 24.6172 45.383 24.5097 45.3191 24.4139C45.2551 24.3182 45.1727 24.2362 45.0766 24.1728C44.9802 24.1065 44.8717 24.0599 44.7572 24.0357C44.6428 24.0116 44.5247 24.0103 44.4097 24.032C44.2948 24.0537 44.1852 24.0979 44.0874 24.1621C43.9897 24.2263 43.9055 24.3093 43.8399 24.4061C43.6155 24.7449 43.3103 25.0224 42.9518 25.2139C42.5934 25.4053 42.193 25.5046 41.7866 25.5028C41.3814 25.4985 40.9832 25.3967 40.6257 25.2057C40.2683 25.0148 39.9621 24.7405 39.7333 24.4061C39.6722 24.3074 39.5912 24.2224 39.4956 24.1566C39.4 24.0907 39.2918 24.0454 39.1778 24.0235C39.0637 24.0016 38.9464 24.0035 38.8332 24.0292C38.72 24.0549 38.6133 24.1038 38.5199 24.1728C38.422 24.2343 38.3374 24.3149 38.2712 24.4098C38.205 24.5047 38.1586 24.6119 38.1347 24.7251C38.1107 24.8383 38.1098 24.9551 38.1319 25.0687C38.154 25.1822 38.1986 25.2902 38.2633 25.3861C38.6503 25.9662 39.1741 26.4421 39.7886 26.7717C40.4031 27.1013 41.0893 27.2746 41.7866 27.2761L41.7166 27.3461Z" fill="#D0B991" stroke="#5F544D" stroke-width="0.05" stroke-miterlimit="10"/>
<path d="M20.9497 9.35651C20.9543 10.8923 21.4139 12.3922 22.2705 13.6669C23.1271 14.9416 24.3422 15.9339 25.7624 16.5184C27.1826 17.1029 28.7441 17.2535 30.2498 16.951C31.7555 16.6486 33.1378 15.9067 34.2221 14.8191C35.3064 13.7316 36.0442 12.347 36.3421 10.8405C36.64 9.33386 36.4848 7.77278 35.896 6.35435C35.3072 4.93593 34.3113 3.7238 33.0341 2.87105C31.7568 2.0183 30.2555 1.56318 28.7197 1.56317C26.6568 1.56935 24.6806 2.39316 23.2241 3.85402C21.7676 5.31489 20.9497 7.29362 20.9497 9.35651ZM28.7197 3.3365C29.9113 3.33188 31.0775 3.68102 32.0706 4.33969C33.0636 4.99836 33.8389 5.93694 34.2981 7.03653C34.7573 8.13613 34.8798 9.34728 34.6502 10.5166C34.4206 11.6859 33.8491 12.7607 33.0081 13.605C32.1671 14.4492 31.0945 15.0249 29.9261 15.2591C28.7577 15.4933 27.5461 15.3754 26.4447 14.9205C25.3433 14.4655 24.4018 13.6939 23.7392 12.7034C23.0767 11.713 22.7231 10.5481 22.723 9.35651C22.7291 7.76581 23.3621 6.24166 24.4848 5.11468C25.6074 3.9877 27.1291 3.34877 28.7197 3.3365Z" fill="#D0B991" stroke="#5F544D" stroke-width="0.05" stroke-miterlimit="10"/>
<path d="M28.7199 13.5563C29.4151 13.5573 30.1 13.3877 30.7143 13.0622C31.3286 12.7367 31.8536 12.2654 32.2433 11.6897C32.32 11.5937 32.3759 11.4828 32.4075 11.364C32.4391 11.2453 32.4457 11.1212 32.4268 10.9998C32.408 10.8784 32.3641 10.7622 32.2979 10.6586C32.2317 10.5551 32.1448 10.4664 32.0425 10.3983C31.9403 10.3301 31.825 10.2839 31.7039 10.2627C31.5829 10.2414 31.4588 10.2456 31.3394 10.2749C31.2201 10.3041 31.1081 10.3579 31.0106 10.4328C30.9132 10.5076 30.8324 10.6019 30.7733 10.7097C30.5541 11.0519 30.2494 11.3309 29.8892 11.5192C29.5291 11.7074 29.126 11.7984 28.7199 11.783C28.3164 11.7833 27.9188 11.6859 27.5612 11.4989C27.2036 11.312 26.8966 11.0412 26.6666 10.7097C26.6022 10.6147 26.5198 10.5333 26.424 10.4701C26.3282 10.407 26.2209 10.3634 26.1083 10.3417C25.9956 10.32 25.8797 10.3208 25.7674 10.3439C25.655 10.367 25.5482 10.412 25.4533 10.4763C25.3583 10.5407 25.2769 10.6231 25.2137 10.7189C25.1506 10.8147 25.107 10.922 25.0853 11.0347C25.0636 11.1473 25.0644 11.2632 25.0875 11.3756C25.1106 11.4879 25.1556 11.5947 25.2199 11.6897C25.6073 12.2622 26.1286 12.7314 26.7386 13.0567C27.3485 13.382 28.0287 13.5535 28.7199 13.5563Z" fill="#D0B991" stroke="#5F544D" stroke-width="0.05" stroke-miterlimit="10"/>
<path d="M15.6533 30.893C17.1871 30.8929 18.6865 30.4389 19.9627 29.5882C21.2389 28.7375 22.2348 27.5281 22.8249 26.1124C23.415 24.6967 23.5729 23.138 23.2787 21.6327C22.9846 20.1274 22.2514 18.7428 21.1718 17.6534C20.0921 16.5641 18.7142 15.8186 17.2116 15.5109C15.709 15.2032 14.149 15.3472 12.728 15.9245C11.3071 16.5019 10.0888 17.4869 9.22668 18.7554C8.36454 20.024 7.89712 21.5193 7.8833 23.053C7.88946 25.1118 8.71006 27.0846 10.1659 28.5404C11.6217 29.9962 13.5945 30.8168 15.6533 30.823V30.893ZM15.6533 17.1263C16.8423 17.1264 18.0044 17.4799 18.992 18.142C19.9796 18.8041 20.7481 19.7448 21.1999 20.8446C21.6516 21.9444 21.7662 23.1537 21.5291 24.3188C21.292 25.484 20.7139 26.5523 19.8682 27.3881C19.0225 28.2239 17.9475 28.7894 16.7797 29.0128C15.6119 29.2362 14.404 29.1075 13.3096 28.6428C12.2151 28.1782 11.2835 27.3987 10.633 26.4034C9.98262 25.4081 9.64275 24.2419 9.65663 23.053C9.66278 21.4644 10.2965 19.9427 11.4198 18.8195C12.5431 17.6962 14.0648 17.0624 15.6533 17.0563V17.1263Z" fill="#D0B991" stroke="#5F544D" stroke-width="0.05" stroke-miterlimit="10"/>
<path d="M15.6533 27.3463C16.3578 27.3414 17.0498 27.1593 17.6655 26.8167C18.2812 26.4742 18.8009 25.9823 19.1766 25.3863C19.3066 25.1945 19.355 24.9589 19.3112 24.7313C19.2675 24.5038 19.1351 24.3029 18.9433 24.173C18.7514 24.043 18.5158 23.9946 18.2883 24.0384C18.0607 24.0821 17.8599 24.2145 17.7299 24.4063C17.501 24.7432 17.1932 25.0189 16.8332 25.2095C16.4733 25.4001 16.0722 25.4997 15.6649 25.4997C15.2577 25.4997 14.8566 25.4001 14.4966 25.2095C14.1367 25.0189 13.8289 24.7432 13.5999 24.4063C13.5356 24.3113 13.4532 24.2299 13.3574 24.1668C13.2616 24.1037 13.1543 24.06 13.0416 24.0384C12.9289 24.0167 12.8131 24.0174 12.7007 24.0405C12.5883 24.0636 12.4816 24.1086 12.3866 24.173C12.2916 24.2373 12.2102 24.3198 12.1471 24.4156C12.084 24.5114 12.0403 24.6187 12.0186 24.7313C11.997 24.844 11.9977 24.9598 12.0208 25.0722C12.0439 25.1846 12.0889 25.2913 12.1533 25.3863C12.5351 25.966 13.0546 26.4421 13.6653 26.7719C14.2761 27.1018 14.9591 27.275 15.6533 27.2763V27.3463Z" fill="#D0B991" stroke="#5F544D" stroke-width="0.05" stroke-miterlimit="10"/>
<path d="M15.6533 32.6667C11.7689 32.6729 8.04538 34.2187 5.29868 36.9654C2.55199 39.7121 1.00617 43.4356 1 47.32C1 47.5552 1.09342 47.7807 1.2597 47.947C1.42599 48.1133 1.65151 48.2067 1.88667 48.2067C2.12183 48.2067 2.34735 48.1133 2.51364 47.947C2.67992 47.7807 2.77334 47.5552 2.77334 47.32C3.10515 44.1475 4.60028 41.2104 6.97021 39.0754C9.34014 36.9404 12.4169 35.7589 15.6067 35.7589C18.7965 35.7589 21.8732 36.9404 24.2431 39.0754C26.6131 41.2104 28.1082 44.1475 28.44 47.32C28.44 47.5552 28.5334 47.7807 28.6997 47.947C28.866 48.1133 29.0915 48.2067 29.3267 48.2067C29.5618 48.2067 29.7874 48.1133 29.9536 47.947C30.1199 47.7807 30.2133 47.5552 30.2133 47.32C30.2072 43.4316 28.6581 39.7045 25.9064 36.9571C23.1547 34.2098 19.4251 32.6667 15.5367 32.6667H15.6533Z" fill="white" stroke="#5F544D" stroke-width="0.05" stroke-miterlimit="10"/>
<path d="M41.7166 32.6662C39.4563 32.6589 37.2252 33.178 35.2003 34.1824C33.1753 35.1868 31.412 36.6489 30.05 38.4528C29.9113 38.6418 29.8531 38.8779 29.8881 39.1097C29.9231 39.3414 30.0484 39.5499 30.2366 39.6895C30.4248 39.8249 30.6575 39.8834 30.8873 39.853C31.1172 39.8227 31.3267 39.7058 31.4733 39.5262C32.6649 37.9373 34.2121 36.6496 35.9909 35.7663C37.7697 34.883 39.7306 34.4286 41.7166 34.4395C45.1348 34.4395 48.4132 35.7957 50.8324 38.2105C53.2516 40.6253 54.6138 43.9014 54.62 47.3195C54.62 47.5546 54.7134 47.7802 54.8797 47.9465C55.0459 48.1127 55.2715 48.2061 55.5066 48.2061C55.7418 48.2061 55.9673 48.1127 56.1336 47.9465C56.2999 47.7802 56.3933 47.5546 56.3933 47.3195C56.3871 43.431 54.8381 39.704 52.0863 36.9566C49.3346 34.2092 45.6051 32.6661 41.7166 32.6662Z" fill="white" stroke="#5F544D" stroke-width="0.05" stroke-miterlimit="10"/>
</svg>
